<mxfile host="app.diagrams.net" agent="Mozilla/5.0 (Windows NT 10.0; Win64; x64) AppleWebKit/537.36 (KHTML, like Gecko) Chrome/137.0.0.0 Safari/537.36 Edg/137.0.0.0" version="27.1.6">
  <diagram name="Page-1" id="Dd6miMVwvD_fp70EQrQt">
    <mxGraphModel dx="2836" dy="1572" grid="1" gridSize="10" guides="1" tooltips="1" connect="1" arrows="1" fold="1" page="1" pageScale="1" pageWidth="1169" pageHeight="827" math="0" shadow="0">
      <root>
        <mxCell id="0" />
        <mxCell id="1" parent="0" />
        <mxCell id="Qk6iisqbKT5Qhv3eNS_e-63" value="" style="rounded=1;whiteSpace=wrap;html=1;fillStyle=hatch;strokeColor=#000000;gradientColor=none;gradientDirection=radial;fillColor=none;" vertex="1" parent="1">
          <mxGeometry x="1463.75" y="618.89" width="262.5" height="158.36" as="geometry" />
        </mxCell>
        <mxCell id="Qk6iisqbKT5Qhv3eNS_e-64" value="" style="rounded=1;whiteSpace=wrap;html=1;fillColor=none;" vertex="1" parent="1">
          <mxGeometry x="800" y="173" width="1270" height="620" as="geometry" />
        </mxCell>
        <mxCell id="Qk6iisqbKT5Qhv3eNS_e-65" value="" style="rounded=1;whiteSpace=wrap;html=1;fillStyle=auto;strokeColor=#000000;gradientColor=none;gradientDirection=radial;fillColor=none;" vertex="1" parent="1">
          <mxGeometry x="1096.3899999999999" y="419.64" width="230" height="175.25" as="geometry" />
        </mxCell>
        <mxCell id="Qk6iisqbKT5Qhv3eNS_e-66" value="" style="rounded=1;whiteSpace=wrap;html=1;fillStyle=hatch;strokeColor=#000000;gradientColor=none;gradientDirection=radial;fillColor=none;" vertex="1" parent="1">
          <mxGeometry x="1160.75" y="618.64" width="262.5" height="160.36" as="geometry" />
        </mxCell>
        <mxCell id="Qk6iisqbKT5Qhv3eNS_e-67" value="" style="rounded=1;whiteSpace=wrap;html=1;fillStyle=auto;strokeColor=#000000;gradientColor=none;gradientDirection=radial;fillColor=none;" vertex="1" parent="1">
          <mxGeometry x="1061.3899999999999" y="220.39" width="736.61" height="294.5" as="geometry" />
        </mxCell>
        <mxCell id="Qk6iisqbKT5Qhv3eNS_e-68" value="" style="rounded=1;whiteSpace=wrap;html=1;fillStyle=hatch;strokeColor=#000000;gradientColor=none;gradientDirection=radial;fillColor=none;" vertex="1" parent="1">
          <mxGeometry x="848.75" y="617.14" width="262.5" height="161.86" as="geometry" />
        </mxCell>
        <mxCell id="Qk6iisqbKT5Qhv3eNS_e-69" value="&lt;font&gt;Training data&lt;/font&gt;" style="strokeWidth=2;html=1;shape=mxgraph.flowchart.database;whiteSpace=wrap;fillColor=#ffe6cc;strokeColor=#d79b00;fontFamily=Work Sans;fontSource=https%3A%2F%2Ffonts.googleapis.com%2Fcss%3Ffamily%3DWork%2BSans;" vertex="1" parent="1">
          <mxGeometry x="1171.3899999999999" y="239" width="80" height="112.5" as="geometry" />
        </mxCell>
        <mxCell id="Qk6iisqbKT5Qhv3eNS_e-70" value="&lt;div&gt;Model&lt;/div&gt;&lt;div&gt;Prod&lt;br&gt;&lt;/div&gt;" style="rounded=1;whiteSpace=wrap;html=1;fillColor=#ffe6cc;fontFamily=Work Sans;fontSource=https%3A%2F%2Ffonts.googleapis.com%2Fcss%3Ffamily%3DWork%2BSans;strokeColor=#d79b00;" vertex="1" parent="1">
          <mxGeometry x="1126.3899999999999" y="434.89" width="50" height="60" as="geometry" />
        </mxCell>
        <mxCell id="Qk6iisqbKT5Qhv3eNS_e-71" value="API REST" style="rounded=1;whiteSpace=wrap;html=1;fillColor=#dae8fc;fontFamily=Work Sans;fontSource=https%3A%2F%2Ffonts.googleapis.com%2Fcss%3Ffamily%3DWork%2BSans;strokeColor=#6c8ebf;" vertex="1" parent="1">
          <mxGeometry x="920.01" y="658.64" width="120" height="60" as="geometry" />
        </mxCell>
        <mxCell id="Qk6iisqbKT5Qhv3eNS_e-72" value="" style="verticalLabelPosition=bottom;html=1;verticalAlign=top;align=center;shape=mxgraph.azure.laptop;pointerEvents=1;" vertex="1" parent="1">
          <mxGeometry x="1291.25" y="844" width="75" height="50" as="geometry" />
        </mxCell>
        <mxCell id="Qk6iisqbKT5Qhv3eNS_e-73" value="&lt;div&gt;&lt;font&gt;Client&lt;/font&gt;&lt;/div&gt;" style="rounded=1;whiteSpace=wrap;html=1;fillColor=#f8cecc;fontFamily=Work Sans;fontSource=https%3A%2F%2Ffonts.googleapis.com%2Fcss%3Ffamily%3DWork%2BSans;strokeColor=#b85450;" vertex="1" parent="1">
          <mxGeometry x="1268.75" y="899" width="120" height="60" as="geometry" />
        </mxCell>
        <mxCell id="Qk6iisqbKT5Qhv3eNS_e-74" value="" style="endArrow=classic;startArrow=classic;html=1;rounded=0;exitX=0.25;exitY=0;exitDx=0;exitDy=0;strokeColor=#000000;entryX=0.25;entryY=1;entryDx=0;entryDy=0;" edge="1" parent="1" source="Qk6iisqbKT5Qhv3eNS_e-71" target="Qk6iisqbKT5Qhv3eNS_e-70">
          <mxGeometry width="50" height="50" relative="1" as="geometry">
            <mxPoint x="1628.75" y="-16.5" as="sourcePoint" />
            <mxPoint x="1668.75" y="83.5" as="targetPoint" />
          </mxGeometry>
        </mxCell>
        <mxCell id="Qk6iisqbKT5Qhv3eNS_e-75" value="" style="endArrow=classic;html=1;rounded=0;exitX=0;exitY=0;exitDx=0;exitDy=0;labelBackgroundColor=#18141D;fontColor=#000000;strokeColor=#000000;entryX=0.75;entryY=1;entryDx=0;entryDy=0;" edge="1" parent="1" source="Qk6iisqbKT5Qhv3eNS_e-73" target="Qk6iisqbKT5Qhv3eNS_e-68">
          <mxGeometry width="50" height="50" relative="1" as="geometry">
            <mxPoint x="1360.75" y="48.5" as="sourcePoint" />
            <mxPoint x="1470.75" y="48.5" as="targetPoint" />
          </mxGeometry>
        </mxCell>
        <mxCell id="Qk6iisqbKT5Qhv3eNS_e-76" value="" style="endArrow=classic;html=1;rounded=0;strokeColor=#000000;entryX=0;entryY=0.5;entryDx=0;entryDy=0;exitX=0.5;exitY=1;exitDx=0;exitDy=0;" edge="1" parent="1" source="Qk6iisqbKT5Qhv3eNS_e-68" target="Qk6iisqbKT5Qhv3eNS_e-73">
          <mxGeometry width="50" height="50" relative="1" as="geometry">
            <mxPoint x="1478.75" y="59" as="sourcePoint" />
            <mxPoint x="1360.75" y="58.5" as="targetPoint" />
          </mxGeometry>
        </mxCell>
        <mxCell id="Qk6iisqbKT5Qhv3eNS_e-77" value="&lt;font style=&quot;font-size: 12px;&quot;&gt;Response&lt;/font&gt;" style="text;html=1;align=center;verticalAlign=middle;resizable=0;points=[];autosize=1;strokeColor=none;fillColor=none;fontSize=12;fontFamily=Work Sans;fontColor=#000000;rotation=27;fontSource=https%3A%2F%2Ffonts.googleapis.com%2Fcss%3Ffamily%3DWork%2BSans;" vertex="1" parent="1">
          <mxGeometry x="1103.3899999999999" y="859" width="80" height="30" as="geometry" />
        </mxCell>
        <mxCell id="Qk6iisqbKT5Qhv3eNS_e-78" value="Training" style="text;html=1;align=center;verticalAlign=middle;resizable=0;points=[];autosize=1;strokeColor=none;fillColor=none;fontSize=12;fontFamily=Comic Sans MS;fontColor=#000000;rotation=54;" vertex="1" parent="1">
          <mxGeometry x="1216.75" y="370" width="70" height="30" as="geometry" />
        </mxCell>
        <mxCell id="Qk6iisqbKT5Qhv3eNS_e-79" value="Prediction" style="text;html=1;align=center;verticalAlign=middle;resizable=0;points=[];autosize=1;strokeColor=none;fillColor=none;fontSize=12;fontFamily=Work Sans;fontColor=#000000;rotation=-40;fontSource=https%3A%2F%2Ffonts.googleapis.com%2Fcss%3Ffamily%3DWork%2BSans;" vertex="1" parent="1">
          <mxGeometry x="989.9999999999999" y="558.64" width="80" height="30" as="geometry" />
        </mxCell>
        <mxCell id="Qk6iisqbKT5Qhv3eNS_e-80" style="edgeStyle=orthogonalEdgeStyle;rounded=0;orthogonalLoop=1;jettySize=auto;html=1;exitX=0.5;exitY=1;exitDx=0;exitDy=0;" edge="1" parent="1" source="Qk6iisqbKT5Qhv3eNS_e-65" target="Qk6iisqbKT5Qhv3eNS_e-65">
          <mxGeometry relative="1" as="geometry" />
        </mxCell>
        <mxCell id="Qk6iisqbKT5Qhv3eNS_e-81" value="" style="shape=image;verticalLabelPosition=bottom;labelBackgroundColor=default;verticalAlign=top;aspect=fixed;imageAspect=0;image=data:image/png,iVBORw0KGgoAAAANSUhEUgAAAu4AAAETCAYAAABp+YOQAAAACXBIWXMAAA7EAAAOxAGVKw4bAABJlUlEQVR4nO3dCXxcVdk/8HMvq+wKIogsyssiylKaFlHEtknLH9xlUUQRF0RUUFEQWYz78oK0nXtOQlQEcY/K4qsvuGAVWZJYUaAvW5fMOWcaSptJy1qgy/zPnSyTSdM2M7nnee7M/L6fz/mklDRzn2cm9/7mzrnnCgEAAAAAAAAAUNM6C9uI61btKtrtfqJt2WEiMk0io1uENO8Tkb1ASP3lUJmrQmkzYWTUJkOZ9lDqH4TSfLP4/ZF5l8jY6aK99yDxQ/sykVm8A3eJAAAAAAC16freHUX78ikunJ/vAvf1gTT/CaR+MpB2nftzIZER6RcCZR5zP/c3QtlLxPzsTNG+ZG/u0gEAAAAAUqoQuOD8X0LmzgiV+YYL0n9wwXqJG2vcWJ9YUN/y2ODeFDztvuYGw7y9WyhzZvFsPwAAAABAw1O9+4RRHNbNMqKAXslY695QnMXdIgAAAAAAHq2FUETmpFDaG104fiYFAX1zY7XI6NO42wUAAAAAQKujbycR2ZNdIL5pcL46ezDfytAPC5k9lrttAAAAAAB0Mtn3uDB8P38Yr2TYXwu1chfu1gEAAAAA+CeXHRgqo4LixZ/cQbyyISLzBe72AQAAAAD41VnYXijzyUDqJ7gDeNXBXZoTudsIAAAAAOCPMnNcYO/lDt6THGvF1Y/uxd1KAAAAAIDkdRS2E8p+Jkj3SjETHd2isxNruAMAAABAnWlfsnegzB9TELgTGaGy3+VuKQAAAABAstpybwikvps7bCc39JPxOvPcbQUAAAAASI4y04LIaP6wneh4SLTpl3K3FgAAAAAgGVLPdiF3ZQqCdrJDmZu5WwsAAAAAkAxpjwsi8xh7yPYwRGQu524vAAAAAMDkqd5jXMAd4A7Y/oJ7dhZ3iwEAAAAAJmfe0gOCyPyNO1x7G8r0iXnLD+BuMwAAAADApITK/Jg9XHscYaR/LDKFHbj7DAAAAABQPWnOd+F2A3e49jmEzJ3B3WYAAAAAgOrJ7PEu2L7AHaw9j2dFZF7J3WoAAAAAgOq0Ltg2kPpfKQjWvsdS7lYDAAAAAFRPmotSEKq9j1DZn3O3GgAAAACgOvHZdmXWcIfqSYyNQTzFR9mnAqmfcH/WQ3d6zQfSrit9n35SyNwHudsNAAAAAFCdSLemIHxvaayPl3AMIn1XKPUPhNLnicg0iUx2iojskSLqPVxkzMHFJR7V8v1FJvcqoXr3EfOeeIVQK/dx3/uuUJqvu+99v+jo24m73QAAAAAAlZP2lMEz1ezhfLyxNl5PPp7GI6LcLNGmX8rdLgAAAAAABoUgkPruFAT0seP5MNIZ0d57EHeHAAAAAAD4KTMnSNea7U+HUt8g5mffKFoLIXd7AAAAAAD4ZfK7uaDclYKwPjyWCGlO5G4LAAAAAEC6tNn3pyCsu2E3hNJcJ65asTN3SwAAAAAAUscF5j/wh3azQSh7KXcvAAAAAADSKbPsaBeaeddtj8wLIrInc7cCAAAAACC1wsj8kPtsu5D6s9x9AAAAAABIr+8+sqsLzs+whvY2+37uNgAAAAAApJvSb+cM7aEy3+BuAQAAAABAyhUCF5zZpsmEUn+HuwMAAAAAAOnX3nuQC9CLmIL7ItGxcDvuFgAAAAAApJ/UH+IJ7fpJIe0p3OUDAAAAANSEUJpfMc1rb+euHQAAAACgNrQWQheiDX1wt0+I+fYQ7vIBAAAAAGqDWrmPC9LrqYO7aDMf5i4dAAAAAKB2qOzMQNmNxGfbs6J10fbcpQMAAAAA1A6pP0s+t13qDHfZAAAAAAC1I7N4h1Ca62mDu14jZO9x3KUDAAAAANSONv2aQNr/kJ5tV/on8RsG7tIBAAAAAGpHRre4MP0cZXAXMot12wEAAAAAKiLNp4jnt/fjbDsAAAAAQIVCaa4lDu63cNcMAAAAAFBzAmnvIQztG4XUF3LXDAAAAABQWzr6dgqkzhIG92Vi3rKjuMsGAAAAAKgtkT0yUGYN6TSZ1sK23GUDAAAAANSWjD7Phel1VMFdSHMZd8nUBqci+R/cdQIAAACALx0LtwulvZHwbHtBKDOHu2xqFH0Nlfkld50AAABQ54499tj3Tp069Urfwz3Of3HXmjpze/cIIvMgYXB/Rqjl+3OXTeoa+xKiTzIu4i4VAAAA6txQcC/4Hgju45B9B7rQt5YsuEf6PqFW7sJdNqk2+xaS4K70CdylAgAAQJ1DcGcUmSbCs+2FUNofiNYFjXVhqrQXe++tshtFR2E77lIBAACgziG4M8rocwmD+/r48bhLphZI/RuC3nZx1wkAAAANAMGdTyiNpAvu+ilxbe5o7pqpudqN/08ydIa7TgAAAGgACO5Mru/d0YW+2wjPuPfGj8ldNqnBawi891ZE+gPcpQIAAEADQHBn0maPCqR9lCy4R+Zv3CWTa8udThLcr7WHcJcKAAAADQDBnYnSZ7vQ9zRVcA+luZa7ZGqu5qsJeruCu04AAABoEAjuPIhCZemscAOuMx4ocydBb3/HXScAAAA0CAR3Hi7w/Yk2uOu3cddMzdX9PMEboiu46wQAAIAGgeDOoLNzGxf6coTBfYmI+g7nLpuUMtNo3hAtn81dKgAAADQIBHcGHX17BZF5gSq4h8r8Uszt3YO7bFKZ7KdJgnvH0t25SwUAAIAGgeDOQJoTCc+2x9M5LhOthZC7bEqh1DcS9PYB7joBAACggSC4M5DmfNLgHpmTuEumFkj9iPdPMiLzQ+46AQAAoIEguBPr6NsplLqDMLivF5ncq7jLJpV5/OUkb4iUPZe7VAAAAGggCO7EMuZgF/p6yIK7sqtE64JtucsmJfXbSIJ7Jnc0d6kAAADQQBDciSkzJyBYpnDU+Cd3ydTCyHzNf1/tU9x1AgAAQINBcCcm9WcJQ3t8x9TruEum5uq+3X9v9V+46wQAAIAGg+BOywXpH1EG9/hCWO6aqbm6BwjeEH2Tu04AAABoMAjutAKp7yEM7kuEzB3PXTOp+eb1RG+I3sldKgAAADQYBHdCHQu3C5RZShfc9V9F+4q9ucsmJc1HSIL73Oy+3KUCAABAg0FwJ9S27DAX+tZQBfdGXGc8lOZakk8yAAAAAKghuBNS+mwX+tZTBffiHVMbTKDsfQRviH7OXScAAAA0IAR3KoUgVEZRhfah4N5Y87DVol1I+qrsZ7hLBQAAgAaE4E6ktXdHF/q6yYK7MhuFzB7LXTapKDuL5g1RtrEu+AUAAIB0QHAnEtlTXeh7lvCM+5OiLXc6d9mklL6UoK/rRWfnNtylAgAAQAOq++Ae9R0upL5QKHuJkOZTDOOiUOXiO3k+Shja47ExXnoylPqr8U2fmGofNbIXh8p8Q0T6A6Jj+QE+nmpX803++6rv8bHtAAAAAFtV18G93e4XL4lIHJgxtjzWishc6ePpDpTN+d7+UJq5PrYdAAAAYKvqOrhLc2IcFFMQVjFGhn5RRPaCxJ/rNv0aiu0XypyZ+LYDAAAATER9B3f9Qf6gijFmLBdKn5D8c23eRxLcM+bgxLcdAAAAYCLqOrgrc3kKgirG6KHs3aK1sG3ST3WozDXetz3SfUlvNwAAAMCE1XNwD6XtYA+qGGXDBWwvd3N1P/su79uvzM0+th0AAABgQuo5uAeR/j13UMUoH0LZTyf+RLcWQvez13nfdqm/lPi2AwAAAExUfQd3s5A7qGJsEn5nJ/5Et+XeQLTtzYlvOwAAAMBE1W1wLxSCQNosd1DFKBvPiWvtIYk/19JeSBLcv/vIrolvOwAAAMBE1W1wV4t2cWGrPwVhFWN4RGahuH71Hkk/1aG0P/W//fbfSW83AAAAQEXqNrhHK17tAtcz7GEVY2SEUs8VnYVtkn6q3c9e7H/bbUfS2w0AAABQkboN7hndEt/shzusYoyMdaLNvCvx51n17kOx/SKyH0182wEAAAAqUbfBPdIfd4FrQwoCK8bgyIu52X2Tf57NO2iC+9IjE992AAAAgErUZXBv7d0xlPo7KQirGCPDPuzjqQ6V+QbB9q/2se0AAAAAFanL4D63d48g0p38YRWjNPSvfTzV7nn+s/dtj8wffWw7AAAAQEXqMri32/0CZe/jD6sYw0NIc5mPp9r97Cd9b3sozdd9bDsAAABAReoyuMvHXxdEWFEmRWO9lwtT2+xRFNsvMvrtiW87AAAAQKXqM7ibE1MQVjFGhn1YSP265J9n+zGS4N6+Yu/Etx0AAACgUnUZ3KPsqfxhFWN4hMr8UnQs3T3ppzmU+gcE2/9o0tsNAAAAUJW6DO7KXMkdVjFKI34+fDzN7mff73vbQ6V/4mPbAQAAACpWl8Fdmsu4wyrGqOAuc8cn/hxn8ruRbHukL0h82wEAAACqUZfBvWPhdqE03xLKfF5E5hPxzZiEsuf6H+aT7rEuCSL9exf61pIG5MjkXc3fFJnsp2lq3cqIex6ZK4XMvtvLc9y2vIUkuLfb6V62HwAAAKBSdRnceQUuwM9xoW8R7VlteyF34aQiczlBX1/gLhMAAOrY0Ucfvd+UKVNOdEHpXU1NTWe78WkXmC6Lh/u7C93XD7uvp7u/P9l939Hc2+vLUUcdtber73hX79tcre9zX891Xz/nar/Sjc/HfXD//U739c3u6+vd976Se5u5ILh7oOx/udD3OGFwXyM6+nbiLpuSq/lWgr7+g7vONJj5z1WHzerun9XS1f/O5p6Bs5q7B85r7sl/vrkr/+VZXfkvzOrOf8z9+bT4e5p7+qfN7lp5yJy7sRIPAECZ448//mUuEH3MBaLr3Nd73XiyikC1dujfznc/5xwXYA/krqtSLnhPd9t+sRs3ujq63Vg9iYCZdT/vl+7rF9w4jrs2CgjuHrQvn+JC3way4B6ZbtHZuQ132ZQo3hiF0nyPu05Ks+5efWBzV/+nXCjvaO7O3+FG1o3CZIYL9g+7n6lmdQ+cefJ9T7+cu0YAAFIuAO3lguVH3fiLx5D1LzeucI9xGHe944k/VYg/SXDbeJMbazwHzn73WD9xofM93HX7guDuQSb7VsKz7S5g6g4hCgF32WTmLz2Eoq9C5s7gLtWn4++xL5n1z4GTm7vy813IfnSyIX2C49H4jUEc5Gf0rNyHuwfkWguh1wHQKFw4+4rPMW3atGMmuX0nu/FbioA1ZixyIxWrKkyZMqVp6Gw4dQ+Gx3I3Lj3iiCN24e5FkhDcPZD6i4TBfa17vA9yl0xKZc8iCe7tvQdxl5q0kxcXdointbgA3enGs0RhfQuj/76Wnv4r3DYdwd0br2T2eBGZT7rf1c+6N4T+hrKfEZF9v7hqxc7cJVcsk53i+vQRocw5Qpr3jRrvHBmROSm+hqg4Ijsjvtne4HD9VWZaccjssWLesqNGxnzzetebQwfH0kOFWr4/d6kViz9RldlTBvtjzxrpTWRPHelNW+6tI73J6JaR3mTMm0d6E482W+pN1Hv4SG/mLTtMFCZ4AijeNyrbWtGIn69h8Z+H/34i+9n4NTH8/cMIQss5FT5NxakwLqhe7v59L2NYHR4r3fhyvE2V1jFZ7nFPd6MrBT0YHk/FvXCjLuYUI7gnL5TmR4TBfXlxp9tAQqnnE/TVcteZpJbugbfO6s7/Kh1hfbPjsZbu/gvevrD+rtdw+4Sr3WvqeZp9gs0KlZvJXXNFOrL7BlI/5Lb/BTcGxox8adh+93W8sao07Er3dcywTwyN+L/XcJdbMZk7I4jMM27bn91sb6Li1wn0Z5y+RHHfrS4G/YlwwbvS12UY6a8M//P4zyN/r+y8rT1c/JwNf//IX6YtuLvAfsnUyc3V9jXWxhe6VlJLtdzjTE1ZYB874jPwH6LohU8I7skLlP0rzQE6HvrforWwLXfNlAJl7vXe18j8lrvOSSsUgpae/BkuEC9KQSivZKye1dX/7XqaSuOC+9fd7ypRcHfhps1+gLvmSgy9saHaZ74orn50L+6aK+H2RwT7PH2HuLpvYn1p7z0oDt9jx/DPcs/nDWP/3+gz7qO/143eLT6WMueUvbaHEYSWcyby3LjvO8t9fzYFoXRr9dzt60LWeEUY9xg3uLGRu84JjviC2GN99IICgnvC2u1+Llg+RncQMrdyl0yqY+F2gbTeL/wVyl7CXWrVajewj51G83xzV/7qE/6x5qXcLZ00pc91b+ifotoviDbzCe6SJ0yZaQHpKlx2XXE6Ta1os2+J32x47suG4nSbSRp5/Y2eFjOOUcF9zeD3m3dt4WfeMvS9/yl+7zCC0HLOloo47rjjdmtqarotBSG0kvGU2+ZE59a6n3em+7nPpqC2ap7j6+LnMcl+UEBwT1ikTw9GfaznezTayidCLX8jSfDZyoEnrVq6Bk6o/cC+yVjjQvxl8cW03P2tWsZODwanNtAEd2kv5i55okKpb6Tqy9BYX5wfXiPc9t7uvyf6L6JNT/oN8kT3n8PBPT4zP/x13G+c27vH0M+8JZ4CVvzZwwhCyzmbK8D9/4PdeIQ7eE5itMXPVzVP8ujn0f2cq1JQy2THA/EnBpPsBSkE92QNfeS7kewArexHuWsmFZnPkfS1xtbFb1k4sPusrvz3XcjdmIKg7WvYlp7+2lzha96yVwSEZ5WLd46uBZE92W3vk1R9GRobi3eZ7iykfwndwTd8L/juh9uvviOJzR3Zf040uA9+jc+krx73G4emyYyeLjPy/whCyznjbZP7+1lTq1t/PW3jpzNmzKhqnm18ltr9+ztSUENSo/eYY445qJpecEBwT1ChEJDOb1duh9tm38JdNiV3wP2F/97qf3HXWYnmroH3uVC7IgXBmmrcPuPe1Qdx970irYu2d68tTbVvCJVR3CVvVWbxbgHNjdTGGzfF0+64W7A1bh9/M8H+7o74zHYi2zv0MysJ7vFKS8V/E68cs+nPG5weUzrzzhvc3d+dkYKQmeT4faVPchxw3b9bkoJtT3qscM/vayvtBwcE9wR1FrZ3O9oc3cFHZ+O7tHKXTcnVvdR76JGmjbvOiZix8Km9mrv7/ycFQZp+dOV/yd3/SgUR3bUvm516kCbSvI9uXzlmRObB+M0Udwu2SGVfG0Ta99n2QlJn22OlnznB4B6vKNPee9DQv7ul7JuG/n74tTzys4cRhJZzRm9PU1PTaSkIlz7GHyf6BE+fPn1P9/2PpWCbfY2VU6ZMSf3axAjuCVIr93E7lvVkBx9lfxufteIum0x84S9BX8c785M2zV2rZjbYWfbh8UJzT/+F3P2vhvt99b8yyMiwv+aud4syi1/utvPvdP3YZAy4bdiBuw1b4rax038f9B3iulW7JrjNg/vQiV6cGpm/Df274gWoZWf+h8/ED124OvKzhxGElnOGHyu+C2cKQqXPWr+7tSd3aHrM/dzbSjBWpvUOtMMQ3BOU6X0D5cGnli5AS4S07ybpa0an9g331IWF7Vp68lc11/dc9s2N3pndq4/mfg6q5cL0b+j2D/YP3PVukTSfotxXjtOfdaleErJj+QEBwbr/SZ5tj5V+bmXBfWQue3yDspGfVbwYdU3pv4d+9jCC0HJO/DjTpk17YwrCJEVI2+Ktwt333Mm9jYTj0akpvlkTgnuCouxHCQ8+G9xObjZ3yZTCyH7be18jk+euc3Pm3L1ibxdeF6YgQHOMm2YsWFnTd60OpZlLGEwXiBtTevdUuezAYGjuMtsoXh+kp3K3YnPca0US7OvuFSrZ36nhn11xcBfDN1nS/y7+h8odE///0TdnGvnZwwhCyzlHHXXUzu7Py1IQJCnGc24cOd4T5v7+5hRsH+loampK7XxMBPfk0B6YzXPx1BHumim5MHIHQV9v465zPLPvWvVKF16XpSBAU48XZnX3f5q7/4kY+uifaHSnNphKcwVhH8YfcXCP9OncrRjX4DSiZ3z3wIXrU5Pe9FE/e8YWv3H4d2FUcB9eGnL45k7FP7sAv8nPHkYQWs5xX9u5AyTxuH/sc+UC7EdTsF1c42NJ/GIkDcE9IW36pQHJersjY6VoLYTcZVMauuW3176Gkf0Kd51jzele82oXYHUKQjT1qOmpMZuIsqcGg7efpwimfSLqncFd8iZk7lC3fZZwP7n54OreQKTxrtOh1N8hqL9HXJP8fRFGeru14O7+f/F7RwX34b8bCvX/iafKjPuzhxEEl5+nIDhyjPOHexzfadX99zMp2CausSa+IDeZX4/kILgnpM282R0sewkPPD3cJZPKZKfQHMztKdyljja7a+UhLsA+kYIQTTwGbq71qTGbiD/+j0wfXTDNvY275LFCZa8i3EducYTS/lS09u7I3ZMyV/ftFUjt/QZ+8ZtIH5tf+vlVBHcxMq+9d/D1W5rvXvazh6Ug1NXrGDjyyCPju3EFLrjdnYLtYR1NTU0ysd+QhCC4J0Sa891OxfdtqUsHncj8kLtkUkqfRxJ2UnTBWnP3qkNdiM3zh2jaUTdTY8a6btWuAcFypiOvZWXey11ymcg0BVSfOExo2AfSdaO1QkAyjUjZ+3wthTny2qsyuI/MfZeDU2bG/dnDuANdnQ/lQtvFKdiONIz1aQuwCO7JIJ7fHn/M+ynumim5/l7nv6/6Ye46hzV3P7Vnc+NNj6mvqTFjxTdok+Yhsn2Esudylzza8BzmFI3VSV+cOSmD0y2Xe39dRDlvc/tLj1FdcB9Z033s3wsEdwzeccvYFyQnBPdkBNLeRnjAsamcv+pRoMyDvvualpvWzLl/xc7N3f33pSBIE446nBozDvc6+yfVfmLsVANWUs922/Qs4T5yImNDHJa5W1NUiM+22wu916zMYz5vPDXy2qs2uE/kZw9LQZjDaJyxsamp6fXV/mIkDcE9GbTz2/Vd8ZJq3DWTGTwT5T/oKPNJ7lJjLsjezh+kxx35Wd35B1u6839s7spf78L2LUn83LqdGjMO9zq7lWo/IZRt5a53mNueP9HtHyvoUWSauHtTFO/jlP8764qMPttnGXEQL4bxUavBjKua4D78s4elIMxhNNb4ebW/GElDcE/A9av3cDuhJ6kONmFkfsRdMqnInNQoB/GWnvzcFAT0eKxo7u7/XUtP/xXNPf0tb7pr07sruhB/+iQfYynJ1JjIvMsd8P+YhlWYwki3k+0npP5v7nqLZPbdQaRfoKq7ot95ad/N3Z7i2XZlz/Vfr+4VnYVtuMtNTAqCHEaDjaamptdwv+5jCO4JkLnj3Y6R7MDkDoSNdcdUZa4k6Ota7jJndg2cwhzWn5rVlf/+zHv7j5vI9jb35N9b/WMN3Pz2hZ4vDMws3iFUZiQouze8X/P6eBMx6uI73yMVU7+u793Rhfb7qGqufF+qvyQ6Fm7H2qOOpbu7benxXmtkPsxaZ9K4Q1wFI77j6Pdc6DvVjRljR3zHUjeumdoYdyaNb/L0Vze+42p/x3j9iNeNd6PDfc99KdjeseNK7td9DME9AfGKMspuJDvYtC1v4S6ZUiDt/3jvq5r4R7Y+nLRw1b4u0PbzBPb++1q68h+pNEhXf8Z94DxffRzRtvww97wuGvM8b3C/qyd6f+wtkfZjgdQkn865Ny38N/5TOj6TvJ5q31hxj6T+AfvKMip7FkGtS9LwiVOiUhDiNjesG99y4XN6NXW5sPQG9++vdmNlCmpJYvS68TVXV8V3hHP/bif3705yX693Y20Kanmomuc0aQjuk3TV/TuH0vyI7GAT3/FvzDJZ9c7VvZLgAM43raBQCFyg/QdDaH/EBfaq13Ou/Ix7/5KZPfnXJdm6cUX2o8HmL4R8nPWCRGlPiW+ORLS/4F0IYfDalGVk+8bqxn9EZvFubD1yjx1E5k7fdYqMTtUKQ4lIQYgbOx5xYf3MJGt0wentbvwtBbVVMx5w2/6epHpxxBFH7OJ+5sfceJSzLlfTa5OqqVoI7pMk+w4MNj2z53M8Hq8HzV02mbZlh1H0VSh9GleJzV35zxAH9idmdecnfSfnSs64t3Tnf+591Ri1chf3JvpXW3uuQ2k7vG7HlmQefznhhex/YqszJu3FgbQbCPeN1YzVvG/kzPv812gfrbuz7bEUBNPR4wrPtV6YghorGZ/31YsZM2bs6ALltVy1ucdmv+ofwX2SpD0uIJzfHkj917q6wGhrZO6DFH0V85YewFHejIVP7eWC7VNUob2le+DGpAL0BM+4P5fEm4StatNTAznhQLzBva4O9b5N43G/uxRLmxaHMneK1laewHaNfZnbhmfo9otVjw0is/jlLD0qzm3Xf/H8Gtgo2swnWOrzLQXhNB5Lm5qaplDUO82Zmv7pMzm3mf4/VhXF5/9DTDUuoKhvSxDcJylesYLwQBMqcw13yZRCZSP/fbVZrvpaevI/IgrtT7f09Cf2qWVs68G9f8nMf646LMnHHJcynw8qvWtxZH/vfbs2I6Bayz3SC0WHOZijxnjqGeV+cTJDZLIkuWsT0rzTf336YfaLb33hDqku1NwaT9+grPnoo4/ezz32/3HXvplxvwvt+1D2wz3mCW48SVznM5Q1jgfBfZIicznhQeZZ0WY/wF0ypYBgtQU3Ojlqa+7pn0YU2ntaFg4k/onCFqfKdOV/Gd9IKunHLNPRt1e8zGPVgU3lZnrdvs0IqNY0j8yDLBfjzi3e/XIt4X5xUoNlSUi1chf32Ld4rm1Dqm7ClTTmkPorrrqnT5++p3v8x1IQ1EePfx155JEsc87cm4Vj4jBNWW/8mBy1DkNwn5xQ2p/RHWSsERl9BHfNZDKLdyA5cEfmCxzlxYHae2jvyf/p+HvsS3xsf0tP/ozxHnNWV97/snMudAdSPzGp5z4yC71v5zjcPuNGon3GeiFzbyOvLzI/p9snJvD7Ly398rqRPdl/bfohn3dJZccVUuOLRblrH5o2wx3Wh8f9buzO2Q/3+O+irLmpqcn/0mhbgOA+OW4H+Q+6g4y+py4vMtqcjHkzzYGb/qzk7J7+Zv9n2gdumbqw4O1j8nGmyjzifWpMZ2GbUJlvuOctkYseRVv2rV63dxxhpL9LFkozJtFFLrYq6j3cPe46un3i5Eco9bXxGXDKNrnH7fRc13qhzOcoayLHFFJXuLEXd+0xF6q+m4LQro877rhXcPci5sL0T6jqji+O5awVwX0S2u1+AeFyZy6w/Ji7ZFKDc5cJws3iHahLi8+Eew7una0Fv2/yRgf3Wd35X81Y0Lujz8cTavn+QWTuTfj5/5fXbR5Pm72Aap8hlKY7MdTZuQ3JPReSH13xxbRkfVLZme4xBzzX9BDHfo0UU1Cdw133sHh1lanMU2ZcWE7NTWXi+fVTB2/wRFE765JdCO6TENn3uwPV02QH4Uhfyl0ypSDSvs9KxaOHuq45/xx4vefQ/g/foT02FNyfbe7u/5Dvx4rPjLvnao2X3yupm71v/2iRPdU97gqSfQblXZaVPiFI6JMQ4tEv5i0jO2kYn4DxXM96EWVZpv+RYgiqP+Cueax43XjG4M42z39zpg7euIqi9iWcdSK4Vy+M9Lx4uS2qA0x8wOeumVIgddZ3T0NpJHVd8ZrmHkN7/+y7Vr2Soo744lqSVWPm9u4RbP6GSgkMfYf3GkaT+nXuMXsp9hmhyn2NpKbW3h3jpWqp9oWJDmXXi0zuVSR9Ki4fbD3fUE4/xH43WAoMQXVf7prH47Yrx9CLtfEKN9y1jxU/R1Q94KwTwb1KHQu3CyLzN7oDjDu4RKaJu2wy8bQIgr6KjD6bsqyT73v65S5cb/AV3Gd2DZxCWQ8ZZc/1+jpwrzeyWlyoco/5fxSv7zAyEUlN8dKG/k5ixMtner1XhlA5kkUiQmnmen7O1wvVIJ/MEgfVedz1bo7btqsYgvuV3HVvjtu2PxH1gOXmLzEE9yrduGJnF9ypbl0ejyVkZ4XSYHA6gfe+irbl/s8Yj+LC9UW+Qvus7nxdr/Hvnq/bvb0OpP4ScS1dFK/vUNmfeC+meCMhb29ENghl5vg+SSIifbr3PrXb6e6xlvt9znU8t30377WkAWVQnT59+qu5690ct33HUQf3tFyQOh63fR+j6EFTU9N0rhoR3Ks0b+kBAeF8zniJtYb4+HMIzQ1c7ErqumZ15R/2Etx78stPXlyo74vRMo+/PPB3Ud8DlKUEyvyZaN9xi99KCoGQ9mMet/+u+CLLUJprffaJYk54/OmH5/3ZOvcG9Iu+60gNwqD6B+5at8Zt4xrCftzMXe+WuDcVryLqA9uFygjuVZJ6NtGBd/DAoswnuUumRDINKdKkd8+c3bP6GF9n21u6+0mn/LBR9ix/4a33cKoyXBD9BdG+43avhcQ3wfJ1LUpk1onIzig+jjSfioOprz6556NNXPfIrt76pHLHuMfJeX6uF5GujsONKqi68HIud61b47bz91T9aGpqOo273q1x27mE4HVxBld9CO5VKh5ISA688XhRyOzx3CVTcjU/57uv7s3Xlylrau7KX+3pbDvp2WJuLig+4iW8RforVDUQzHUeHn/3VkR8TwlpLvO37foPxTP6MWlOdH/3vMfHuiP+RMdXq/x/gmjXcd1Ijg1VUJ2a0otSR3Pb+B2iXjwbL0PJXe/WuDcXvyUItR/nqg/BvTpuR5whOvDGB5U1Qub25K6ZTJueStFXd6A7ibIsX9Nk3M9NzdLCJCLzXk+viS7CGi4n2Xcoe2+8vrqXGor3sfC2QsrzIpOdMvJYqnefwO+b+QFv1xDNN68PvM9tN//n841HKhEF1ce465wIF1TPJurHAu5aJ8IFzm/47oXr+SWM9SG4VyqT383tKBeQHHgHx2LukklF5pMUfXVvEF5KVdKcnvz+nqbJ3EtVQ2oUCkHg52LIjfHSkyQ1KHMO0b7jP6JjIPm7kbcWtg2Vnedru0OlfzL28QKpn/LXp3hJSHNw4n0S8dx2+22/z7HbduKLq1OBKLjcyF3nRLgQOYMouH+Pu9aJcP04jyC4f4WrPgT3Kkjd7HaWhujAW4gvZOMumVIozQ0EfV1EWVNz98B5Xs629/SfQ1lHaihzpo/XhVD2PSTbL7OnUNynYHCVEfPmxLe/Tb8m/iTQ03Y/J6K+Ta43cPvcf/vslWizRyXep/begwL/Z9sXiciQ3LshVYiCC90dzCbBbevBFP2Iz+xz1zoRbjvfgeCO4F5mcH67x/mW5SOeD8tdMiVX80MEPf0RZU0uuN/sIbg/W/cryWzONfYlgYepE/HqJSTbL5cfG5Cs5a6zLtS9K9Ftv76wY7zKlZftVWbj5p6DMNI/8dkrIXXy15pJc0Xgd/WxDSKybJ/YsyIKqu/jrnMijjnmmD0o+jFt2rQ3ctc6ES5wvgHBHcF9NP/Leo05oETmw9w1k5G5PUl6qnLnUZblQvbqxIN7V7+irCFtXMD7mYfXxn9INr61EAbS3k3zWrdnJbrtkX6T23Zf01ae3uyUFWUvdf//RX99Mp9PtE9zs/sGkV7h9/nVj4j2xw9KdLtrBVFwSf7jKk8o+pHGu6WOx72ROQTBHcF9NLfD/BPFAXdoLI1v3MFdM5niFAKCMNO+fMrWNyYZM3pW7uNjmky8vCRVDakUmXd4eG08LzoLfi7mHINqLXcXtC9IbKOvun/nwNeNsJTZ6La1dbOPHd+dVZpnffUpjIxK9F4ZUn/R/dz13p7buF9Jv9moJRTBZcqUKTWznJvb3gGCnuzFXedEHHXUUXsjuCO4jzi9c5tAWktxwB0af4rP3HCXTSVeko+gp89Q1tTSnT/JQ3Dvp6whlVoXbe/jgkWq9dzdfuTXFPsQIXPJXbjYljvd/cy1XrY10iu2uLKL7DvQ7wWq5tZ49ZpE+vTdR3Z1P2+p5+f2oXgOfSLbW4sogkutTA2Jue1d7bsf06dPr4nl7RDcEdzLtK/YO1CeDlzjjFDa+dwlU3K9/V//fdV/paypuXvgkuSD+0Cqb15HJYjs75N+fQilSe4v4n63Jc0+xHwzkQ2+ccXO7vfzTl/budWzx50F90bN251z47FKRNlk7myv9Hk+bxhV7FcjriQzGkVwceHsTdx1ThRFcD/uuONewV3nRCC4I7iXUdk3Bj4//tw0RJDOxebmau73HmSU/TZlTS3dAzcmHtx78o37EfkoLpR+3UOAvJJk46X9MsU+JIx0ezLba84P/M0xXyQ6tv7JYuD1gt54SUh9xKT71Nq7o/t5iz0/r0bMbeCz7TEE93II7iUI7gjuZSJ7AcXBdiRESHscd8lkVN9riXr6bsqyXND+u4epMjUz9dIrqc9I+vXhgu73SbZd6XMpXu+hMr+c9LZmcq8KlFno73fSnD+RzQik/h+v+wZlpk2+V/rswPPJnXj+fPHOtY0Mwb0cgnsJgjuC+4hMfjdvy6CNP9ZR3iSIHdFNaeI7PlKW5UL2I0kHd8rtTzWZOzTx14gyNNOQouypgceLLUvD3jbpbfX66YC9e6J3hnZvqrzezEhE+vRJ9al4oyjzH7/Pp16R2JSeWobgXg7BvQTBHcF9RMYc7HacD/g/0I6MZSKzuGHW6Q6laSPpKTEXtNckHNwfp64hzTy8Ru4i2fDIzggi85j313xk/ja57ew9PFDW23aKNvuBCnr2ARf0n/a2LdJO7n470r6bYG47zrbHENzLIbiXILgjuI9Qy08IPNz0ZfND/y6+vTt32VR8fhQ/PNybg19Q1jR1YWE7D9Nk/k1ZQ9q55zXpuxg/SrLhc3v3cI/1L+/7kcjcO5nNDJVp97h9t8V9mPDGZPQRgccLVN3+QVbdqMG1+bv9Pp92pZDLDqx6G+sJgns5BPcSBHcE9xFq+Xu9H2RHH0Qi8zXukskM3gnTe0+FMp+jLGtOT35/D8H9dsoa0i5I/oLFVXTbbv9C8Lr/V9Vr00emKZD6CU/b9WS8NntF21PcT3jbnnhJylurXn43/gTF99x2pS8Vra042x5DcC+H4F6C4I7gPixU5msEB9nhsUYo+x7umslEvTMo+hrf9ZGyrDnda17tIbjfQFlD2rnnNemznHm6bSdYy12ZB8VVK3auZvtCqX/qb9vsr6vqmbKPeNumyGgxf+khFW9UoRC4f/tHz8/lgJi39IBqelaXENzLIbiXILgjuA8LIp34mtFbGItF1EdyI5hUiOwlBD3dKDoWbkdZlo/gPqt7IENZQ9p5OGtNdsY9lPYHBK/7R8V8W3kYVWaO+7drPG1TXmR0SzU98xyQNwjVW/kdiaO+psDfUpnF4Z6Pyxtp6uRWIbiXQ3AvQXBHcC+K75iq7H0EB9nBocyfhWicnbQLX78h6GsXdV2zu1YeknRwb+nJ/4i6jjRzr52ElwjUT1BtexhZr6ukDNXTK6Q9pdJtc//uD762KZTmuqp7pozy2S+h9AmVbVHxbPvNnp/DNWLecpxtHw3BvRyCewmCO4J7UZR9tQvTOf8H2aEDm7IRd8mU3IHPeu8pw11om7tXHephqkxVUwzqVXzxZcKvlRVkGy/1Zwn2Jy+ISE985ZaYMmcGvi7Ej3TfpNZLV/YzXleWyWQrm6IY9R0e+D7bLs0VjXQiZ0IQ3MshuJcguCO4Fw3e6IVgzeXhHbX9GHfJZOb2HkTSU2XPoi5txr2rD0o8uHfl/5e6jjRzz+2yhF8rdEuGttn307z2zScnvE3F1VHMXb62JVTmmkn1TJoT3c9Z5a1XkfnChLelUAhCqW/0/Pw9LX6Qe9WkelaPENzLIbiXILgjuA/unM33AmU2UhxkBw8e2VncZZPxcPfLcXtazTzfSXrTXat2TXyOe1eeZp3xGhEkf7azm2zjpZ4deF6JpPjaL56xneg2mfODyPhai9wKufTQSfUss3g393O8ffpZ0ZKQgycdvC4RHEbmG5PqV71CcC+H4F6C4I7gLjKFHdwOdIHvg+uo8bxQfa/lLpuKO1Be7b2nkaab/jCGC9svJBzeDVctqTMY4pJ+vdxKtv0yeyzFtTMu/F01oe1p0y8NpH7Y33bYbyfRtkB6XFlGmltEZF651Y2IT+goO8/zc/ecuIb2Ts81A8G9HIJ7CYI7grvbcb4sUP4+mh1nLBKZx1/OXTYV19s7CXpKF8bGcEHbJn3W/aR7nnwZVz2p0maPSjxcSttBtv3zlr0iIDgpMOGLQZW50tt2KPNY1Wukj+HeXPhc//6B+G6xW90IF+7ddjzl9XlTybzRqUsI7uUQ3EsQ3BHcRcYc7PvAOuYg+yORWbwDd9lUgki/4Lun7iB7OVd9zd399yW+ssy9q2Zw1ZMq8bSOpH//iG985h7zJoL9SudWN+Qau58Loo97+x2U9uKkehZK7XMZzQ0iY6dvcQNaW0O3n/6W3+dMrxUZzG3fLAT3cgjuJQjuCO4isicTHFiHx0YXMj/MXTIZd4Ck6Gs8l5irRBe0b/Iwz/2zXPWkiY8bBLnXyodoazDX+f8d0H/Z6nZE5hpvjx+ZB+NpOIk1TelL3c9d629/kWve4uMXpxT5/RR2wtObGhWCezkE9xIEdwR3oczn/R9YR8Zz7o3Ckdwlk1H20xR9FZn8blwlNvfkv+phZZnruepJE/fc9ib/WslOoazB/5nb4tjyPQza9GsCj0saikh/PNGmKfse93MHPG7v6Zt97NZC6B6/1fPz9dyE5tk3MgT3cgjuJQjuCO40Z8SGh35CqEW7cNdMJZTW91Jqbtj7OWts6cmfkXhw787nG/4uisU5xom/XjZQ313XhcTPEOxX/r2lTfC8j+sRV63YOdGeDV4bYHxts5D2i5t97Lm9e7jvWerz+Yov2E+0X/UIwb0cgnsJgnuDB3d3wCG6eHJ4/Iu7ZEqu3kd99zSeD8tZY3NX/ggPwb0wu6d/yx/n17vIfMLD62UReR1Sf9D7fkWZB0Xrgm3HffxMdor7Hm9L3boQ/O7Ee9baGnpd/Uaats0+tjKf8/x8PSPUkv0T71m9QXAvh+BeguDe4MFdZWe6Han2fmAtHTB+xV0ymfYle1P0VGT0udyl+gjuzT15utVPUsg9t93J//7pn5IX0pZ9q//fA/uw6OjbabyHd//vDm+Pq8yd4vreHX20zesJlUjfKn5oN1256epH93L/f5HP5yqMdLuPftUdBPdyCO4lCO6NHtzNJ90BwttFUJvutO1XuEsmI/XbKHoqMsuO5i7VBe07fUyXOb2zsA13bSxk7lAvrxWlzyOvRS1/owvPWc+/B0uFWrnPJo8d9c7w+rsX2Rm+2hZKc4PHbe8SKrvpvTQie4HX5ykyz4i2Fa/x1bO6guBeDsG9BMG9sYO7Ozhc6/mAWn6gk/oM7pqphCr3NYKePsldZ6ylO/8VH2fdW7ryp3LXxsHXCijx0q/kxUj9ukDqezz/HmghzYllj7ugsG0cUD0+5m2io+DvegFpv+xx29eJ+dk3lj1eR99e7g1W4p/yjB7x8cZbv+oNgns5BPcSBPfGDu5uR3235wPq6LE0DWeHqQSR+aP3nirzZ+46Y7N7Vr/Fy3SZ7vz/NdxFqh19OwVeluKzWZ6CCkGg7O+9/h5Epk8oc2bZwyp9mr/HtOtcsD7Oa9si+4HA60o49uSyx5P6Q573VWtE27LDvPasniC4l0NwL0Fwb+Dg3rpg2yDSK7zurMvHLULm9uQum4qrd7XvnobSfJO7ztiMBYVtXche62mu+3u566MURvorfl4rfBcxu9fp9b5/F+KbVY08oFq5i9eLOyPzS+F7GlfGvDnweP2RiPQHRh5rcG773/3uqwjv2FsPENzLIbiXILg3cHDvyO7rdqjrfB9QR3bcynwjXi2Bu2wS7eb1FD11YeWd3KUOcyH7dk9n3R/hro1Me3x3T19BzbJNO3LB/XsEvwuXxWf3iw/o4Y6zo8bzIuo73HvT1CL35sPfhaJC6i+NPFZk3+/1+YlMPp4y5b1n9QTBvRyCewmCewMHd6mbA+VvmbRxDqzv4y6ZjDQfIenpeBfkMWnp7j/bU3CP76TaEHfb9bju/zPk67ePFulLfP8uxDd6Kj5W5vGXx/eL8Pc4+gaq6VuBxzn6ro5rRWdh++JdUiP9Z8/PzXUU/aorCO7lENxLENwbOLhH5gu+D6ajR3wWmrtkKu6g2EHQ08XcdY42Y8HKXbxNl+nOPzmnJ1/faz8rM81jcOK9KFCZc3z/PrgaZTFQK32pv8exT4uO5QdQtc3tR37lsWe3ikzuVfGndl6fm/hsu+o9hqpndQPBvRyCewmCe4MG98ziHUKlf+L7YDpqPC2usS/hLptKfCdHgqDyM+46x2ru7v+pr7PubtzbWijU51SrjqW7Bz7nM8vc8az1ReYdBPuYW8Tc3oPifY2/3zk9n7JtYWT8rUyl7L2irXgB7K1+91P6Rsqe1Q0E93II7iUI7g0a3JX9L4pwWTpIxHc2bJD57cUL4/z3NL6VPHepY83qys/xGNwLLT39V3DXmLhCvOqK8TlVYRl3iULpE9x2POt5H9PneS79mnjJRNK+yezHPO9HnvP88/MiY6eT9qxeILiXQ3AvQXBv1OCemxkvz+V5pz0y0nh22JsoN4uip6It9wbuUsfT3N2/xGN4X3H8PQSf3Mjsse53hObjfb/rdRfim6yR1LElmdzRQWQWUu1vPO3DvkXeN6lnu8c23LVX3bN49R2oDoJ7OQT3EgT3Bg3u/s/kjAkP9hLukslI/SX/PbXrRGs6p43M6h74hKfQ/o/mrif871eluWjwNWvmeH8spd/u9XUSr2+eBh0Du7vX7F+4g+Qkxkoxt3cP+r5l93XP4YMpqL+asULMM9PIe1YvENzLIbiXILg3ZnAPlb2KdAceZU/e+lbVB3egvdl/T+3d3HVuzumLCtu3dOcHEgzs6+MpMt7ntxdX1yjdKEhE5iSvjxdl409mXvD5OknTdKpQml+kIExWPpTZ6N7MsU3RcttwF3sPqhju+b6Bq2d1AcG9HIJ7CYJ7YwZ3t2O9ne7AZ+93oeg13DVTcTUv939Q1HO569yS5p78lQmFdtPSlfc/Jagt94b47PToHnsN7oNzvtd6fp2sStMF4S7IzeUOk1WOx+PrVrj6RnMiIOGhTJ/7/Wni6lldQHAvh+BeguDegMG9s7BN4PHGHuOMW0ZujFLv3BsUip6mfU38k+558mUudD89uQtRB25tWTiwu/eNjczl4/dYz/byeBQXag6+Rj7lZfurRTKFLOlh15XdkZVBGOnv8vehshEq82O36Y2xz/cFwb0cgnsJgnsDBne59FC3c32cbCcu9Xe4SyaT6T2Toqe18AmGC98XVRfa+59v7ur3Hzo7+vYKpP7rZnvs44y7sp8O/J9pjwPnw/Eb9MS3fzIi82HuQFn50I9wnm0f6tsn+PtQUc9WCJV9I2vP6gGCezkE9xIE9wYM7ip3WuB/GbCRIZQ5k7tkKkTTAZZz1zkRp7vg2NI9sLjC0L5kZk/e/63R41WVpFmxxddtksFd5vZ0P/M2st+5SKfveCztu/lDZUXjeRFl38/dNiH129y25FLQjwmN+O6/qXvTWIsQ3MshuJcguDdYcG9tDUOp/5tyR95Icx3ji0a99zQyN3PXOVHNXfnZEw7tXfnr376wbyff2+TeXH19Qq/bpKbKDC7pR/cJl0rpEnxSN3OHygpHTyquEWg3r3fb8kAK+jGBfZNeIdqxbnsiENzLIbiXILg3WHDv6NvJhcs76Hbm+qn4bobcZZNoLYTxnFjfPRXKXspdaiVcKL9pK6H9qeae/Hu9b0i8tJ40/5h4nye5HORg4CI7yz40ni7exj6NZPZYtz94kT1cTmw8537P3sPdsmFue/6egp5sdYSR/rFoXbQ9d7/qAoJ7OQT3EgT3Bgvu85a9woXLlYQ78574du7cZZOQ2eMpehrf4Im71Eo0dz+1pwvnuc2E9v/MWrjmYO8b4UK4691AZX2ucqpMe+9BYWR+7n7GRurgFE9HSbhzyZG5Q11wr5WlDW8TnekJoIGqhZVl7BON9Omqdwju5RDcSxDcGyy4ty0/jHJnHiqjROuCbbnLJhHpz1D0VKhFvBfLVWFm16qpLqSvK181Jj936sLCdl4fuGPhdi5EX1NVnysJ7vGc3sG5yLe44f1Tl3F/16T5kcdOTl673S+IzG/5A+bWhn6K5OZbFQiVTf3KMu71d53IFHbg7lXdQHAvh+BeguDeYMHd950ay8eLLvz4nwKREu7A9TOCUPFv7jqr1dKd/1wxsHfnB2Z15f0Ho/beg1zP/lltryc0x11mj3XP+zcDgrX7tziUeSyeBue9p5PketXG2qcJDftr7j5tQtoL+fuyxfGke7ODu6QmCcG9HIJ7CYJ7owV3eynhznyNyBj/0yBSwtW72HdPXfC5lrvOyXCh/Suz71r1Su8PFNlTXb+emUyvy4J7+5K9RSY7JZ73HCoT33U4nitPtjLTVsZakckd7b2nCQil/WoK+rWl0S/U8hO4+7SJSJ8eEKz9X+2IT1qk4kLeeoLgXg7BvQTBvbGCeyj1DXQ7dJ1tmAuV1Mp9KHoqpPkId6lpF0b6+8n02z7svmruULT114T+EHfPJyzSH+fu15aGe1PWzt2iccne49z2Pcrdn82M54S0x3G3qO4guJdDcC9BcG+g4B6ZVwYVrKqRwPgHd8lkpHknRU/FfPN67lJTa/D6Dco7ArOPeOoJd9srQvR7UtVQJhdPfeJu0bhaF2zrtu9O9h6N+xrUN+JsuwcI7uUQ3EsQ3BsouGfsWwJps2Q79Eh/n7tkKkPznH33dDV3namlzDnBJKfG1NyIzL3xxbfcra+Iys5k79vm9lfSfIu7PVuSygt7I/0C5rZ7guBeDsG9BMG9gYJ7ZD5JuVMX0lzEXTKVQJk/E/T0du46U6ejb6dQ6p+yBxj6YeJP0LjbXzEX8gJp16egf2PHYhH1Hs7dni0JpZ2fgj6VDfdm5wasJOMJgns5BPcSBPfGCe7xhY2UO/V4eTzumqnES8h5P0gq8zXuOlNF6te5vizhDi8MY1lNhvaY6nute5Pbm4IejtlX2Yu5W7NVynyOu09jxjqcbfcIwb0cgnsJgnvjBPdA2XsJd+qpP4OVmMyyo2nCReO8EdoqVfz06PkUhBfq8X/FFW5qlew70AX3P6agj6PHIqGW78/dmq2S+owU9GpkhJH+icgsxtl2XxDcyyG4lyC4N0hw7yxs73a2q8h26vEFS5nFu3GXTULZcyl6WtOBLSkdS3cPIvt77tDCNO4Xc3v34H4KJqcQxPuGFPSy9HslzfncXZkQaU4M0rME6QasJOMZgns5BPcSBPcGCe4Zc3Ag7Qayg2FkviAKhYC7bAqhtD8g6Omj3HWyy9jprg82BaGFYei/1ssb4TCy3+bv50hf7xEdfXtx92RCrrWHxBck8/esOLf9F6LD812PGx2CezkE9xIE9wYJ7lH2ZModu2izJ3OXTMXV+4D/A6W9kbtOVu6NoOvDi9yBhSUkKf1d0VoIuZ+CxCj7ae6ejuynZK521sB3r4FA2t9w98yNjfG68tztqHsI7uUQ3EsQ3BshuBcCF9y/QLpjVzbF/UhQPHWDImC4sMNdKos2/dIgSt2caKKhnxJRHb4BHrwLaAr6a/8irl9dU1OP3Bt4yd23UJpfic7CNty9qHsI7uUQ3EsQ3BsguF+3atdQmR8T7tz74zn13GWTkHo2RU/jaSLcpXJIy9QA8hGZB92b7Vdz99+LKDeLvb/x75TMvpu7FRWT+ousfVNmY6Pui8ghuJdDcC9BcG+A4B7fUVKZxwh38N3cJZNR5nL/IU6/wF0mm8ziHYZubtUo02SeFtJcVterdUSmKQV9viW+BwB3Kyqmcqcx9+0m0dpaP9O20gzBvRyCewmCeyME99xbKXfuobINc8dUV++t3nuqzJ3cdbKLeg9P6y3fk/u90T8RHdl9uVvtXUYf4epdy9lrMT87k7sNVZlfvPPsRra+qeVv5G5Bw0BwL4fgXoLg3gDBPbIX0O7cG2c+diD1Cu+BTpqruetMDWlPCQguBiYe3fFZaO7Wkpm3/IBA2ixXv93v089qdipfmz0qiPR9LL1T5o/c5TcUBPdyCO4lCO71H9xDZeeR7dwjo90bhRncNZOYbw+h6Gl84xXuUlNH6g+53izjCn8JjZ74jQh3K8m1r9jb1d7J0/P4gt8afpMkc3u6Nz3/w9E7nG0nhuBeDsG9BMG9/oO729EvIDww3iXa7X7cNZNQ9iySA6bsO5C71FSKl0gcXKGkhycEVjkic6977fw/7vax6ejbKZSmjaP3odTX1vr9JcJIf5++d/YO7robDoJ7OQT3EgT3Og/uHYXtXJgmOzPpDsg3FJefbAChtPMJDpiGu86aMHhXSaazuBP+3fhFvAoRd6tSQeovMTwHT9bFMrXSXEbdO/cGuWbyXd1AcC+H4F6C4F7nwb1NvyZQdhXZDt4dkLlLpuLq7fLfU/0b7jpryjX2Ze41eKHr3X8YguF44wEXej4j5vbW1Hrh3il9NvVzUbyRVY2fbS9S9j20vcPZdhYI7uUQ3EsQ3Os8uEvzThf+nqfayYvIvIO7ZBIdC7ej6ae+hLvUmuXetLrX/0fiu866Xhqi34G8G78Tkb3EPf5U7hakFtH9D0aNVSLz+Mu5y05E1DuDsG8bG+aapbRBcC+H4F6C4F7Hwb21EIZSf4vyABkv28ddNolIv4monzO4S60b8VKL8Z1Ipf5iPG3F9fefbqyexPOzxI3bw8goofR57ue+jrvEmpHJTqHcL7k3b191j1r7Z9tj1+aOJrsvB5ai5YPgXg7BvQTBvY6D+3WrdnU737sID5CrxLxlNfG6nzRpLyxOC/I9rrEv4S617sU9brNHuX43F1fwifTH3fN7sVDmSiHNRcX/juz7i58mtdm3iIw5mHuTa15kXun2Fzmi/VKurm5opXr3cTX9g6BvG4XMvY273IblgtMMN1pcuDjJfT3ZfX2b+/pO9/Xd7utp7usZ7uuZ7utZ7uvZ7us57utH3ddzXSj5hBufdOMCNz7jxkXu7y92X7/ovl7mvl7hvrZOmzZtf+46Jyp+kzHUE2+Du8ZK+O7FMccccxBXbXFwd9vwPt8jlcG9I14vWa+hC+76rzV5N0IAoNVZ2Ma9GTrVvTE6Xyh7rrcR//yMbuEuN3Ft5s3xtRze+haZT7g3ru/lLhMAoLHEH6lShXZlNobS/jduhw0AAAAAUKnBNa6ppsk8K5R+O3fJAAAAAAA1J4zstwmDu43nXnLXDAAAAABQc4ZWzqAK7g/UxRrJAAAAAACk4pUHlL2bMLjfxl0yAAAAAEDtUfoEF6Y1VXAPpfkmd8kAAAAAALUn0hcQnm0viMh+gLtkAAAAAICaEyrzY7rgrp+Mz/Bz1wwAAAAAUHNcoL6f8Ix7t5B9B3LXDAAAAABQWzKLd3Bh+mmy+e3KtIvWBdtylw0AAAAAUFtUbibt/HbzCe6SAQAAAABqy+md24TKXkUY3DeKttwbuMsGAAAAAKgtHcsPcGH6n4TB/UXxQ/sy7rIBAAAAAGqL0qdRTpMJlMmJ1kLIXTYAAAAAQE2JLxQlDe5S38FdMwAAAABAbens3MYF6SxlcA+luZq7bAAAAACA2jK4msxGumky9ikRZd/PXTYAAAAAQO3oLGwTKvNL4vntD4po6ZHcpQMAAAAA1A5lprkwvY52fru5SRQKAXfpAAAAAAA1I5R6PnFoj+e3f527bgAAAACA2iHNiYG0/dTBXUTmHdylAwAAAADUhtYF27oQ3UMd2t0bhfUiyr6au3wAAAAAgNqgzBfoQ3tx3C9aF23PXT4AAAAAQPplet/gArTlCO6htF/lLh8AAAAAoCa4AP07prPtA6LNHsVdPwAAAABA6sVnvJlCe7x++x+56wcAAAAASD9l/58Lz3R3SB0zhMx9lrsFAAAAAADppux7AmmfZTvbHunVIuo7nLsNAAAAAADpVVyv3TzHFtpl8aZLbaKzsA13KwAAAAAA0imyH3DB+QXO0D44TSZ7LHcrAAAAAADSp6NvJxGZz6UhtLvxL+52AAAAAACkTyb3qjDSP05BYI/HBiHN+dwtAQAAAABID7V8/1CarwdSr05BYB8ckb5PzM3uy90aAAAAAABehUIgZPb4UJl2F5QXswf1MUNE2VO5WwQAAAAAwCdeoUWZOS4c38Idzjc7lLmTu00AAAAAANVp0y8VcvnseF11IR9/nYjMK8U19iWbfN9VK3YWMrenmLf0ABHZI0WbfUvx3yjz+VCa64fOrq9jD+ebH8+JSL+JocMAAAAAAJPkAroLtDe5sT5QdmMg9UPu6/+GkfmhC+Xnikz2rYOB3nwqlPa/3d//OD5rHUQm7/7NhhSE8QrOttubudsNAAAAAFCdyB7pQu2Lmw+8Ng7nG9lD9+THSpExB3O3GwAAAACgOsp+OgWh2vdYLyLzDu5WAwAAAABULVD29ykI1p6H/TV3nwEAAAAAqje3dw8XbJfxB2uvY2nxQloAAAAAgJol9QeDyLyQgnDtbYjIfJi7zQAAAAAA1SsUAhdsb+UO1h7Hi0Kai7jbDAAAAAAwOe1L9g4i80wKAranM+36Eu4WAwAAAABMXmRO4g7XvkYozde52wsAAAAAkIhQ6q9yB2xPof167t4CAAAAACSjTb80iPSfuUN28qHd/kCIQsDdXgAAAACAZEg9O1B2FXfQTjS0KxvFF9xytxYAAAAAIDGhNN/kDtrJnmk33+TuKQAAAABA4oLI3MkdthMa/xDXPn4Edz8BAAAAAJJ3jX2JC7wDKQjdkxnPhpH5hujo24u7nQAAAAAAfkh7SgqC92TGShGZd3C3EQAAAADAn9ZF24eR/X4Kwnc145lQmp+50P5K7jYCAAAAAPg13x4SRHpFCkJ4hUPfISJ7smgthNwtBAAAAADwL7Kn8ofwigL7v0WUPZW7bQAAAAAApEKpb+QP41sdLwTS/kFE5iQhc3ty9wwAAAAAgJwLxUtSEMw3N54OpblBqNxM7j4BAAAAAPDKLH5VGJmfu5B8vxvPMIb0DW4sduO2UOpviaj3XaJ9xd7c7QEAAAAASJe5vXsIlTstlOZHgdQPDYZ4/VR81tt9fT6Qdp3780b3db376obdMLmgrl90X+OLYheEylwlpP6QkNljRSa/G3crAAAAAABqR2fnNqK1sK24vndH0TGwu1DZ18brvRdXcomyJw/+2Xw4lPqrQ2fs/+XGmqEz54VAxSHfPOcC/r/dn28Ope0Q0lwhlD7b/ftZot3uJ0Qh4C4TAAAAAKAxtC7avni30mvtIUKZaW7MceNM0ZZ7q4j0m0TbssNEx6p9i2f0AQAAoOH9f8bCn/Bu0O3uAAAAAElFTkSuQmCC;" vertex="1" parent="1">
          <mxGeometry x="1164.34" y="554.89" width="92.05" height="33.75" as="geometry" />
        </mxCell>
        <mxCell id="Qk6iisqbKT5Qhv3eNS_e-82" value="" style="endArrow=classic;html=1;rounded=0;strokeColor=#000000;exitX=0.5;exitY=1;exitDx=0;exitDy=0;exitPerimeter=0;entryX=0.5;entryY=0;entryDx=0;entryDy=0;" edge="1" parent="1" source="Qk6iisqbKT5Qhv3eNS_e-69" target="Qk6iisqbKT5Qhv3eNS_e-83">
          <mxGeometry width="50" height="50" relative="1" as="geometry">
            <mxPoint x="1181.30305" y="389.005" as="sourcePoint" />
            <mxPoint x="1271.3899999999999" y="633.89" as="targetPoint" />
          </mxGeometry>
        </mxCell>
        <mxCell id="Qk6iisqbKT5Qhv3eNS_e-83" value="&lt;div&gt;Model&lt;/div&gt;&lt;div&gt;Staging&lt;br&gt;&lt;/div&gt;" style="rounded=1;whiteSpace=wrap;html=1;fillColor=#ffe6cc;fontFamily=Work Sans;fontSource=https%3A%2F%2Ffonts.googleapis.com%2Fcss%3Ffamily%3DWork%2BSans;strokeColor=#d79b00;" vertex="1" parent="1">
          <mxGeometry x="1184.8" y="434.89" width="51.59" height="60" as="geometry" />
        </mxCell>
        <mxCell id="Qk6iisqbKT5Qhv3eNS_e-84" value="&lt;div&gt;Model&lt;/div&gt;&lt;div&gt;Dev&lt;br&gt;&lt;/div&gt;" style="rounded=1;whiteSpace=wrap;html=1;fillColor=#ffe6cc;fontFamily=Work Sans;fontSource=https%3A%2F%2Ffonts.googleapis.com%2Fcss%3Ffamily%3DWork%2BSans;strokeColor=#d79b00;" vertex="1" parent="1">
          <mxGeometry x="1246.3899999999999" y="434.89" width="50" height="60" as="geometry" />
        </mxCell>
        <mxCell id="Qk6iisqbKT5Qhv3eNS_e-85" value="" style="endArrow=classic;html=1;rounded=0;strokeColor=#000000;entryX=0.5;entryY=0;entryDx=0;entryDy=0;exitX=0.508;exitY=0.995;exitDx=0;exitDy=0;exitPerimeter=0;" edge="1" parent="1" source="Qk6iisqbKT5Qhv3eNS_e-69" target="Qk6iisqbKT5Qhv3eNS_e-70">
          <mxGeometry width="50" height="50" relative="1" as="geometry">
            <mxPoint x="1851.3899999999999" y="63.5" as="sourcePoint" />
            <mxPoint x="1861.3899999999999" y="111.5" as="targetPoint" />
          </mxGeometry>
        </mxCell>
        <mxCell id="Qk6iisqbKT5Qhv3eNS_e-86" value="" style="endArrow=classic;html=1;rounded=0;strokeColor=#000000;entryX=0.5;entryY=0;entryDx=0;entryDy=0;exitX=0.5;exitY=1;exitDx=0;exitDy=0;exitPerimeter=0;" edge="1" parent="1" source="Qk6iisqbKT5Qhv3eNS_e-69" target="Qk6iisqbKT5Qhv3eNS_e-84">
          <mxGeometry width="50" height="50" relative="1" as="geometry">
            <mxPoint x="1860.3899999999999" y="68.5" as="sourcePoint" />
            <mxPoint x="1796.3899999999999" y="113.5" as="targetPoint" />
          </mxGeometry>
        </mxCell>
        <mxCell id="Qk6iisqbKT5Qhv3eNS_e-87" value="" style="endArrow=classic;html=1;rounded=0;exitX=0.5;exitY=0;exitDx=0;exitDy=0;entryX=0.261;entryY=0.429;entryDx=0;entryDy=0;entryPerimeter=0;strokeColor=#000000;" edge="1" parent="1" source="Qk6iisqbKT5Qhv3eNS_e-81" target="Qk6iisqbKT5Qhv3eNS_e-65">
          <mxGeometry width="50" height="50" relative="1" as="geometry">
            <mxPoint x="1106.3899999999999" y="524.89" as="sourcePoint" />
            <mxPoint x="1156.3899999999999" y="474.89" as="targetPoint" />
          </mxGeometry>
        </mxCell>
        <mxCell id="Qk6iisqbKT5Qhv3eNS_e-88" value="" style="endArrow=classic;html=1;rounded=0;exitX=0.5;exitY=0;exitDx=0;exitDy=0;entryX=0.5;entryY=1;entryDx=0;entryDy=0;strokeColor=#000000;" edge="1" parent="1" source="Qk6iisqbKT5Qhv3eNS_e-81" target="Qk6iisqbKT5Qhv3eNS_e-83">
          <mxGeometry width="50" height="50" relative="1" as="geometry">
            <mxPoint x="1225.3899999999999" y="544.89" as="sourcePoint" />
            <mxPoint x="1166.3899999999999" y="504.89" as="targetPoint" />
          </mxGeometry>
        </mxCell>
        <mxCell id="Qk6iisqbKT5Qhv3eNS_e-89" value="" style="endArrow=classic;html=1;rounded=0;exitX=0.5;exitY=0;exitDx=0;exitDy=0;strokeColor=#000000;entryX=0.5;entryY=1;entryDx=0;entryDy=0;" edge="1" parent="1" source="Qk6iisqbKT5Qhv3eNS_e-81" target="Qk6iisqbKT5Qhv3eNS_e-84">
          <mxGeometry width="50" height="50" relative="1" as="geometry">
            <mxPoint x="1225.3899999999999" y="544.89" as="sourcePoint" />
            <mxPoint x="1220.3899999999999" y="504.89" as="targetPoint" />
          </mxGeometry>
        </mxCell>
        <mxCell id="Qk6iisqbKT5Qhv3eNS_e-90" value="&lt;div style=&quot;font-size: 12px;&quot;&gt;Logging &amp;amp;&lt;br style=&quot;font-size: 12px;&quot;&gt;&lt;/div&gt;&lt;div style=&quot;font-size: 12px;&quot;&gt;Versioning&lt;br style=&quot;font-size: 12px;&quot;&gt;&lt;/div&gt;" style="text;html=1;align=center;verticalAlign=middle;resizable=0;points=[];autosize=1;strokeColor=none;fillColor=none;fontSize=12;fontFamily=Work Sans;fontColor=#000000;fontSource=https%3A%2F%2Ffonts.googleapis.com%2Fcss%3Ffamily%3DWork%2BSans;" vertex="1" parent="1">
          <mxGeometry x="1231.3899999999999" y="514.89" width="80" height="40" as="geometry" />
        </mxCell>
        <mxCell id="Qk6iisqbKT5Qhv3eNS_e-91" value="" style="sketch=0;pointerEvents=1;shadow=0;dashed=0;html=1;strokeColor=none;fillColor=#434445;aspect=fixed;labelPosition=center;verticalLabelPosition=bottom;verticalAlign=top;align=center;outlineConnect=0;shape=mxgraph.vvd.log_files;" vertex="1" parent="1">
          <mxGeometry x="1063.75" y="722.14" width="40" height="50" as="geometry" />
        </mxCell>
        <mxCell id="Qk6iisqbKT5Qhv3eNS_e-92" value="" style="endArrow=classic;html=1;rounded=0;exitX=1;exitY=1;exitDx=0;exitDy=0;" edge="1" parent="1" source="Qk6iisqbKT5Qhv3eNS_e-71" target="Qk6iisqbKT5Qhv3eNS_e-91">
          <mxGeometry width="50" height="50" relative="1" as="geometry">
            <mxPoint x="800" y="840.1400000000001" as="sourcePoint" />
            <mxPoint x="850" y="790.1400000000001" as="targetPoint" />
          </mxGeometry>
        </mxCell>
        <mxCell id="Qk6iisqbKT5Qhv3eNS_e-93" value="" style="aspect=fixed;sketch=0;html=1;dashed=0;whitespace=wrap;fillColor=#2875E2;strokeColor=#ffffff;points=[[0.005,0.63,0],[0.1,0.2,0],[0.9,0.2,0],[0.5,0,0],[0.995,0.63,0],[0.72,0.99,0],[0.5,1,0],[0.28,0.99,0]];shape=mxgraph.kubernetes.icon2;kubernetesLabel=1;prIcon=cronjob" vertex="1" parent="1">
          <mxGeometry x="1364.4" y="620.64" width="50" height="48" as="geometry" />
        </mxCell>
        <mxCell id="Qk6iisqbKT5Qhv3eNS_e-94" value="&lt;font&gt;Dashboard data&lt;/font&gt;" style="strokeWidth=2;html=1;shape=mxgraph.flowchart.database;whiteSpace=wrap;fillColor=#ffe6cc;strokeColor=#d79b00;fontFamily=Work Sans;fontSource=https%3A%2F%2Ffonts.googleapis.com%2Fcss%3Ffamily%3DWork%2BSans;" vertex="1" parent="1">
          <mxGeometry x="1440.94" y="239" width="80" height="112.5" as="geometry" />
        </mxCell>
        <mxCell id="Qk6iisqbKT5Qhv3eNS_e-95" value="" style="rounded=1;whiteSpace=wrap;html=1;fillColor=#dae8fc;fontFamily=Comic Sans MS;strokeColor=#6c8ebf;" vertex="1" parent="1">
          <mxGeometry x="1235.75" y="658.64" width="120" height="60" as="geometry" />
        </mxCell>
        <mxCell id="Qk6iisqbKT5Qhv3eNS_e-96" value="" style="shape=image;html=1;verticalAlign=top;verticalLabelPosition=bottom;labelBackgroundColor=#ffffff;imageAspect=0;aspect=fixed;image=https://cdn4.iconfinder.com/data/icons/scripting-and-programming-languages/512/660277-Python_logo-128.png" vertex="1" parent="1">
          <mxGeometry x="1256.3899999999999" y="648.64" width="80" height="80" as="geometry" />
        </mxCell>
        <mxCell id="Qk6iisqbKT5Qhv3eNS_e-97" value="" style="endArrow=classic;html=1;rounded=0;entryX=0;entryY=0.5;entryDx=0;entryDy=0;" edge="1" parent="1" source="Qk6iisqbKT5Qhv3eNS_e-91" target="Qk6iisqbKT5Qhv3eNS_e-95">
          <mxGeometry width="50" height="50" relative="1" as="geometry">
            <mxPoint x="1212.5" y="698.64" as="sourcePoint" />
            <mxPoint x="1402.5" y="838.6400000000001" as="targetPoint" />
          </mxGeometry>
        </mxCell>
        <mxCell id="Qk6iisqbKT5Qhv3eNS_e-98" value="" style="endArrow=classic;html=1;rounded=0;entryX=0.5;entryY=1;entryDx=0;entryDy=0;entryPerimeter=0;exitX=0.75;exitY=0;exitDx=0;exitDy=0;" edge="1" parent="1" source="Qk6iisqbKT5Qhv3eNS_e-95" target="Qk6iisqbKT5Qhv3eNS_e-94">
          <mxGeometry width="50" height="50" relative="1" as="geometry">
            <mxPoint x="1278.75" y="619" as="sourcePoint" />
            <mxPoint x="1328.75" y="569" as="targetPoint" />
          </mxGeometry>
        </mxCell>
        <mxCell id="Qk6iisqbKT5Qhv3eNS_e-99" value="Dashboard" style="rounded=1;whiteSpace=wrap;html=1;fillColor=#dae8fc;fontFamily=Work Sans;fontSource=https%3A%2F%2Ffonts.googleapis.com%2Fcss%3Ffamily%3DWork%2BSans;strokeColor=#6c8ebf;" vertex="1" parent="1">
          <mxGeometry x="1535" y="658.64" width="120" height="60" as="geometry" />
        </mxCell>
        <mxCell id="Qk6iisqbKT5Qhv3eNS_e-100" value="" style="endArrow=classic;html=1;rounded=0;exitX=0.69;exitY=0.987;exitDx=0;exitDy=0;exitPerimeter=0;entryX=0;entryY=0.5;entryDx=0;entryDy=0;" edge="1" parent="1" source="Qk6iisqbKT5Qhv3eNS_e-94" target="Qk6iisqbKT5Qhv3eNS_e-99">
          <mxGeometry width="50" height="50" relative="1" as="geometry">
            <mxPoint x="1898.75" y="459" as="sourcePoint" />
            <mxPoint x="1878.75" y="619" as="targetPoint" />
          </mxGeometry>
        </mxCell>
        <mxCell id="Qk6iisqbKT5Qhv3eNS_e-101" value="" style="endArrow=classic;html=1;rounded=0;exitX=1;exitY=0;exitDx=0;exitDy=0;labelBackgroundColor=#18141D;fontColor=#000000;strokeColor=#000000;entryX=0.25;entryY=1;entryDx=0;entryDy=0;" edge="1" parent="1" source="Qk6iisqbKT5Qhv3eNS_e-73" target="Qk6iisqbKT5Qhv3eNS_e-63">
          <mxGeometry width="50" height="50" relative="1" as="geometry">
            <mxPoint x="1762.75" y="1224" as="sourcePoint" />
            <mxPoint x="1718.75" y="899" as="targetPoint" />
          </mxGeometry>
        </mxCell>
        <mxCell id="Qk6iisqbKT5Qhv3eNS_e-102" value="&lt;b style=&quot;font-size: 24px;&quot;&gt;&lt;font style=&quot;font-size: 24px;&quot; data-font-src=&quot;https://fonts.googleapis.com/css?family=Work+Sans&quot; face=&quot;Work Sans&quot;&gt;Onyxia - SSP Cloud &lt;/font&gt;&lt;font style=&quot;font-size: 24px;&quot; data-font-src=&quot;https://fonts.googleapis.com/css?family=Work+Sans&quot; face=&quot;Work Sans&quot; color=&quot;#ff5629&quot;&gt;Datalab&lt;/font&gt;&lt;/b&gt;" style="text;html=1;align=center;verticalAlign=middle;whiteSpace=wrap;rounded=0;fontSize=24;" vertex="1" parent="1">
          <mxGeometry x="1655" y="140" width="330" height="40" as="geometry" />
        </mxCell>
        <mxCell id="Qk6iisqbKT5Qhv3eNS_e-103" value="&lt;font style=&quot;font-size: 12px;&quot;&gt;Query&lt;/font&gt;" style="text;html=1;align=center;verticalAlign=middle;resizable=0;points=[];autosize=1;strokeColor=none;fillColor=none;fontSize=12;fontFamily=Work Sans;fontColor=#000000;rotation=28;fontSource=https%3A%2F%2Ffonts.googleapis.com%2Fcss%3Ffamily%3DWork%2BSans;" vertex="1" parent="1">
          <mxGeometry x="1146.34" y="820" width="60" height="30" as="geometry" />
        </mxCell>
        <mxCell id="Qk6iisqbKT5Qhv3eNS_e-104" value="&lt;font style=&quot;font-size: 12px;&quot;&gt;Query&lt;/font&gt;" style="text;html=1;align=center;verticalAlign=middle;resizable=0;points=[];autosize=1;strokeColor=none;fillColor=none;fontSize=12;fontFamily=Work Sans;fontColor=#000000;rotation=319;fontSource=https%3A%2F%2Ffonts.googleapis.com%2Fcss%3Ffamily%3DWork%2BSans;" vertex="1" parent="1">
          <mxGeometry x="1443.86" y="829" width="60" height="30" as="geometry" />
        </mxCell>
        <mxCell id="Qk6iisqbKT5Qhv3eNS_e-105" value="" style="shape=image;verticalLabelPosition=bottom;labelBackgroundColor=default;verticalAlign=top;aspect=fixed;imageAspect=0;image=https://upload.wikimedia.org/wikipedia/commons/thumb/4/47/Apache_Parquet_logo.svg/2560px-Apache_Parquet_logo.svg.png;" vertex="1" parent="1">
          <mxGeometry x="1183.48" y="324.3" width="53.77" height="10.98" as="geometry" />
        </mxCell>
        <mxCell id="Qk6iisqbKT5Qhv3eNS_e-106" value="" style="shape=image;verticalLabelPosition=bottom;labelBackgroundColor=default;verticalAlign=top;aspect=fixed;imageAspect=0;image=https://upload.wikimedia.org/wikipedia/commons/thumb/4/47/Apache_Parquet_logo.svg/2560px-Apache_Parquet_logo.svg.png;" vertex="1" parent="1">
          <mxGeometry x="1454.06" y="324.3" width="53.77" height="10.98" as="geometry" />
        </mxCell>
        <mxCell id="Qk6iisqbKT5Qhv3eNS_e-107" value="&lt;font&gt;Test data&lt;/font&gt;" style="strokeWidth=2;html=1;shape=mxgraph.flowchart.database;whiteSpace=wrap;fillColor=#ffe6cc;strokeColor=#d79b00;fontFamily=Work Sans;fontSource=https%3A%2F%2Ffonts.googleapis.com%2Fcss%3Ffamily%3DWork%2BSans;" vertex="1" parent="1">
          <mxGeometry x="1650.8600000000001" y="239" width="80" height="112.5" as="geometry" />
        </mxCell>
        <mxCell id="Qk6iisqbKT5Qhv3eNS_e-108" value="" style="shape=image;verticalLabelPosition=bottom;labelBackgroundColor=default;verticalAlign=top;aspect=fixed;imageAspect=0;image=https://upload.wikimedia.org/wikipedia/commons/thumb/4/47/Apache_Parquet_logo.svg/2560px-Apache_Parquet_logo.svg.png;" vertex="1" parent="1">
          <mxGeometry x="1663.98" y="324.3" width="53.77" height="10.98" as="geometry" />
        </mxCell>
        <mxCell id="Qk6iisqbKT5Qhv3eNS_e-109" value="" style="rounded=1;whiteSpace=wrap;html=1;fillStyle=hatch;strokeColor=#000000;gradientColor=none;gradientDirection=radial;fillColor=none;" vertex="1" parent="1">
          <mxGeometry x="1760" y="620.64" width="262.5" height="158.36" as="geometry" />
        </mxCell>
        <mxCell id="Qk6iisqbKT5Qhv3eNS_e-110" value="Annotation Dashboard" style="rounded=1;whiteSpace=wrap;html=1;fillColor=#dae8fc;fontFamily=Work Sans;fontSource=https%3A%2F%2Ffonts.googleapis.com%2Fcss%3Ffamily%3DWork%2BSans;strokeColor=#6c8ebf;" vertex="1" parent="1">
          <mxGeometry x="1840" y="658.64" width="120" height="60" as="geometry" />
        </mxCell>
        <mxCell id="Qk6iisqbKT5Qhv3eNS_e-111" value="" style="endArrow=classic;html=1;rounded=0;entryX=0;entryY=0.75;entryDx=0;entryDy=0;exitX=0.687;exitY=0.985;exitDx=0;exitDy=0;exitPerimeter=0;" edge="1" parent="1" source="Qk6iisqbKT5Qhv3eNS_e-94" target="Qk6iisqbKT5Qhv3eNS_e-110">
          <mxGeometry width="50" height="50" relative="1" as="geometry">
            <mxPoint x="1350" y="360" as="sourcePoint" />
            <mxPoint x="1400" y="310" as="targetPoint" />
          </mxGeometry>
        </mxCell>
        <mxCell id="Qk6iisqbKT5Qhv3eNS_e-112" value="" style="endArrow=classic;html=1;rounded=0;entryX=0.864;entryY=0.942;entryDx=0;entryDy=0;entryPerimeter=0;exitX=0;exitY=0.25;exitDx=0;exitDy=0;" edge="1" parent="1" source="Qk6iisqbKT5Qhv3eNS_e-110" target="Qk6iisqbKT5Qhv3eNS_e-107">
          <mxGeometry width="50" height="50" relative="1" as="geometry">
            <mxPoint x="1410" y="550" as="sourcePoint" />
            <mxPoint x="1460" y="500" as="targetPoint" />
          </mxGeometry>
        </mxCell>
        <mxCell id="Qk6iisqbKT5Qhv3eNS_e-113" value="" style="endArrow=classic;html=1;rounded=0;exitX=0.5;exitY=1;exitDx=0;exitDy=0;exitPerimeter=0;entryX=1;entryY=0.5;entryDx=0;entryDy=0;" edge="1" parent="1" source="Qk6iisqbKT5Qhv3eNS_e-107" target="Qk6iisqbKT5Qhv3eNS_e-99">
          <mxGeometry width="50" height="50" relative="1" as="geometry">
            <mxPoint x="1410" y="550" as="sourcePoint" />
            <mxPoint x="1460" y="500" as="targetPoint" />
          </mxGeometry>
        </mxCell>
        <mxCell id="Qk6iisqbKT5Qhv3eNS_e-114" value="" style="sketch=0;pointerEvents=1;shadow=0;dashed=0;html=1;strokeColor=#666666;fillColor=#f5f5f5;labelPosition=center;verticalLabelPosition=bottom;verticalAlign=top;outlineConnect=0;align=center;shape=mxgraph.office.users.approver;fontColor=#333333;" vertex="1" parent="1">
          <mxGeometry x="1636.75" y="844" width="59" height="55" as="geometry" />
        </mxCell>
        <mxCell id="Qk6iisqbKT5Qhv3eNS_e-115" value="&lt;div&gt;&lt;font&gt;Data Annotator&lt;/font&gt;&lt;/div&gt;" style="rounded=1;whiteSpace=wrap;html=1;fillColor=#f8cecc;fontFamily=Work Sans;fontSource=https%3A%2F%2Ffonts.googleapis.com%2Fcss%3Ffamily%3DWork%2BSans;strokeColor=#b85450;" vertex="1" parent="1">
          <mxGeometry x="1606.25" y="899" width="120" height="60" as="geometry" />
        </mxCell>
        <mxCell id="Qk6iisqbKT5Qhv3eNS_e-116" value="" style="endArrow=classic;html=1;rounded=0;entryX=0.25;entryY=1;entryDx=0;entryDy=0;exitX=0.75;exitY=0;exitDx=0;exitDy=0;" edge="1" parent="1" source="Qk6iisqbKT5Qhv3eNS_e-115" target="Qk6iisqbKT5Qhv3eNS_e-109">
          <mxGeometry width="50" height="50" relative="1" as="geometry">
            <mxPoint x="1270" y="850" as="sourcePoint" />
            <mxPoint x="1320" y="800" as="targetPoint" />
          </mxGeometry>
        </mxCell>
        <mxCell id="Qk6iisqbKT5Qhv3eNS_e-117" value="" style="shape=image;verticalLabelPosition=bottom;labelBackgroundColor=default;verticalAlign=top;aspect=fixed;imageAspect=0;image=data:image/png,iVBORw0KGgoAAAANSUhEUgAAAgAAAAIACAYAAAD0eNT6AAAAAXNSR0IArs4c6QAAIABJREFUeAHt3Qe4PNFZ1/EfBBMICGIEUWooUkJRUErokCAWIIVQQk1oAVR6TwIqqHRI6PFRSpASIBogIRY6KDUQCCpYQg8lElRKIEHn7H+H/7539t679+7Ze2d2P/s899n77t09d+c777znO3POzCQeCCCAAAIIIIAAAggggAACCCCAAAIIIIAAAggggAACCCCAAAIIIIAAAggggAACCCCAAAIIIIAAAggggAACCCCAAAIIIIAAAggggAACCCCAAAIIIIAAAggggAACCCCAAAIIIIAAAggggAACCCCAAAIIIIAAAggggAACCCCAAAIIIIAAAggggAACCCCAAAIIIIAAAggggAACCCCAAAIIIIAAAggggAACCCCAAAIIIIAAAggggAACCCCAAAIIIIAAAggggAACCCCAAAIIIIAAAggggAACCCCAAAIIIIAAAggggAACCCCAAAIIIIAAAggggAACCCCAAAIIIIAAAggggAACCCCAAAIIIIAAAggggAACCCCAAAIIIIAAAggggAACCCCAAAIIIIAAAggggAACCCCAAAIIIIAAAggggAACCCCAAAIIIIAAAggggAACCCCAAAIIIIAAAggggAACCCCAAAIIIIAAAggggAACCCCAAAIIIIAAAggggAACCCCAAAIIIIAAAggggAACCCCAAAIIIIAAAggggAACCCCAAAIIIIAAAggggAACCCCAAAIIIIAAAggggAACCCCAAAIIIIAAAggggAACCCCAAAIIIIAAAggggAACCCCAAAIIIIAAAggggAACCCCAAAIIIIAAAggggAACCCCAAAIIIIAAAggggAACCCCAAAIIIIAAAggggAACCCCAAAIIIIAAAggggAACCCCAAAIIIIAAAggggAACCCCAAAIIIIAAAggggAACCCCAAAIIIIAAAggggAACCCCAAAIIIIAAAggggAACCCCAAAIIIIAAAggggAACCCCAAAIIIIAAAggggAACCCCAAAIIIIAAAggggAACCCCAAAIIIIAAAggggAACCCCAAAIIIIAAAggggAACCCCAAAIIIIAAAggggAACCCCAAAIIIIAAAggggAACCCCAAAIIIIAAAggggAACCCCAAAIIIIAAAggggAACCCCAAAIIIIAAAggggAACCCCAAAIIIIAAAggggAACCCCAAAIIIIAAAggggAACCCCAAAIIIIAAAggggAACCCCAAAIIIIAAAggggAACCCCAAAIIIIAAAggggAACCCCAAAIIIIAAAggggAACCCCAAAIIIIAAAggggAACCCCAAAIIIIAAAggggAACCCCAAAIIIIAAAggggAACCCCAAAIIIIAAAggggAACCCCAAAIIIIAAAggggAACCCCAAAIIIIAAAggggAACCCCAAAIIIIAAAggggAACCCCAAAIIIIAAAggggAACCCCAAAIIIIAAAggggAACCCCAAAIIIIAAAggggAACCCCAAAIIIIAAAggggAACCCCAAAIIIIDAiyR59yTfn+RpSb4syccleXCSN0zykhAhgAACCCCAwPEQaB3/Q5M8M8n/u+TnOUl+KMnXDu/79CTvm+QtBll4+ePBYUkQQAABBBA4bgJX6fgvE4P29/+T5KeGowXfNhwt+Nwkjxpk4YGDLLx6khc7bpSWDgEEEEAAgfkT6N3x7yIHfzwcLfhvw9GCp28MLTwoyRsYWph/wviGCCCAAALLJnAbHf8uctDeY2hh2bnl2yOAAAIIzJDAnDv+XQRhHFr41iSfY2hhhhnmKyGAAAIIzIrA0jv+XeTA0MKsUs6XQQABBBC4TQKn0PHvIgftPb/urIXbTEX/GwEEEEDgJgjo+C8/jXFTHM4OLXxYkgesz1q4x02sMP8DAQQQQACBfQiMHf9PX3IO/2bn5/eLZcHQwj4Z6bMIIIAAAgcloOO/uBM/pOS0oYUfTPI1Loh00BzXOAIIIIDABgEd/+11/LtIxXlDC/dNYmhhI5H9igACCCCwGwEd/7w7/l3koA0t/IILIu2W8N6FAAIInDoBHf/yO/5d5KC9Z3No4bGDLLxPkjd3r4VTLwGWHwEETo2Ajv90Ov5dBOF/r++1MF4QaTxrwdDCqVUGy4sAAkdLQMev499FCDbf80froYXvSvKl69s4u9fC0ZYIC4YAAsdGoHX8D0nidD4CsNm59/j9vKGFlzu2jcjyIIAAAksioOPX4ffo5K/bhqGFJVUL3xUBBI6CwNI7/l9N8otJXugCRLlu5zv3z50dWvjYJO+2vo3zvY9iK7QQCCCAwA0SWHrHP3Za/2zN7F5JXjvJ307y95N8UZJvT/JzSf6AHBytHLQ8MLRwg4XDv0IAgeUSOJaO/6wAXLRG2jK/YpK3GY4WPCLJZw6y8A2DLPzoIAvPJQdHLQdtaOEZSb5lfRtnZy1ctKX4GwIIHCWBY+v4ryIAl63QPzccLXiT4WjBeyT55EEWnjDIwncbWjhqMWj5c97QwusPsmBo4bKtxt8RQGD2BObc8bfL1Y4d+XWfxyGAQ62Ie54ztPAsQwt7r7vrrvOb+pyhhUNtVdpFAIGDEphzx/8D61vets5732J+aAG4aCUZWth//e27/m/r85tDC5+d5EOTvONwYyYXRLpoi/E3BBA4KIEldPwjgKULwLgc5z23oYU3TvIwQwt7i95tdfTX+b+GFs7bIryOAAIHIbCkjn8EcOwCMC7ntuezQwtfOMjCUwZZMLRw/EcVfm04WtCOgn11ks17Lbgg0rYtxWsIIHAugSV2/OPCnLIAjAy2Pbd1+krOWjipowbjkYbzhhZezW2ct20qXkPgNAmMHf9PdRhHH4tPr+dxjP+yNUMALiO0/e+bZy18yiAL/9xZCychC4YWtm8PXkXgZAgcQ8c/riwCMJLo9+yCSMc/hHCeqG8OLTwmycPXt3E2tNBv+9ISArdC4Jg6/hEgARhJ3MyzoYXTlQNDCzezjfkvCHQlcIwd/wiIAIwk5vFsaOE0BaENLfx8kqetb+M83mvBBZHmsV36FidIoHX8D06y5DH+y1YbAbiM0Hz+bmjhNOWgDTdsG1p4syR/YT7p6ZsgcBwETqHjH9cUARhJLPt5HFp4W/daOInJiJtzEH53414LmxdEctbCsrdp3/6GCZxSxz+iJQAjieN+3ja08D3utXD0srA5tPAlST5mfRtnQwvHvb1buisQOMWOf8RDAEYSp/tsaMHQQrsg0njWgqGF060FJ7Xkp9zxjyuaAIwkPG8jYGjhdOWgDS38ZJInJTG0sG3r8NoiCej47642AnCXhd+uTsDQwmkKwrahhXcdZOF+buN89Y3IJ26GgI5/ypkATJl4pQ8BQwunKQd/4qyFPhuQVvoQ0PGfz5EAnM/GXw5HwNDCacpBO3thc2ih1Z8PWd/G2VkLh9veTrJlHf/lq50AXM7IO26egKGF0xSEi4YWXuLm09B/XCIBHf/ua40A7M7KO+dBwNDCacpBG1r41STfv76Ns7MW5rE9zuZb6PivvioIwNWZ+cR8CRhaOE05OG9o4R2SvKrbOM93g+3xzXT816dIAK7PzieXR8DQwmkKgqGF5W2rl35jHf+liC59w5wFoB3q/fAkT0jylCQ/muTHkjw5yeOSfGKS907y1sMhwTaB6J6XLq03IHA+AUMLpykHm0ML/zLJo9e3cXZBpPO3lVv9y9jxPyPzS9gfSPKAW6VztX8+RwG4R5IPSvJLV1y/bUN+zgWScF+ScLXk8O4/JbA5tPDIJJ+Z5BvWUvrcK+bp5nX8/T6/Gn52nWw7a2EcWnjRP80QvxycgI6/P+I5CsDXHrCgkoT+OaTF5LyhhSaxLzxgPp/trMQ3KxTPH45C/tf1bZzHey2MF0Ry1kKnytA6/get73g1twRf2h7/2VUyNwFoM3tvex2fJwkPXw83OJJwNovEFxEwtHD72/Rt1JRtQwttyPJN3cb5os3l7t90/HdZHOq3OQlAGzppG81tbKxX/Z9nJeHx6zkJJOFQmXqc7RpaWMb2ftX6sMv7n7dxr4VWh9sFkQwtJJlzx99W7EceUS2akwA8cSGd/y4bd3sPSTiiDeWWFsXQwmkKwji08NQkbefiowdZOPqhhbl3/GPhf+dbKgaH+LdzEYA2g78Z8cj4VJ5HSfjx9dkNjiQcIsuPs01DC6dXL8Ydi/GCSONZC+PQwn2WmOpL6fjHTokA1A2vScS+jweeYOc/5tNlzyRh3+w6vc8bWqg16rJt7Jj+3nakfmJ9G+dZDy0sreMfk4QA1I2rhwB8MAHY6+jHRZLwNklMXDw9CbhoiQ0t1Bo21vZjf942tPAuSV4vyY2dtbDUjn9MDgJQN54eAvAoArCXAIy5edEzSbioS/S3kYChhVrfLtqmjulvrT5sG1oY82Lv56V3/OPKJgB1AyEAlceYJ0t83iYJn7S+MpojCXuXwMU3YGjheLb1XevT3kl7LB3/CIwA1I2AAFQeY54c6zNJ2LskHm0DhhaOrxZcO1mPreMfCzoBqElOACqPMU9O+XlTEv71+lQmRxKuXUqP4oOGFpZZJ66cfHPu+HtclpMA1EQmAJXHKXf8V1n2Jgm/kaSdAkkSrlxmj+oDZ4cWPsu9Fg4+J2jXbXXnRJtzx/+9Sd5uuKTwT3WYbEYAaodHACqPXTcs77uc22WS8Opu8LRzfV7yGw0tXL6tHKqeXJo3S+j4x4UgACOJO8+t8943cQjA/gz3XQen/HmSULfpU4sMLRy2/pybT0vq+MeFIAAjiTvPBOCwG88pd8xzWvbzJOF9krSzG9qRhNaReBwXAUML+9e3SUYsseMfF4IAjCTuPBOA/TeQOXV0vsv11+dZSWi3d20TF0lCrRnHFBlauHx7+dP1veSOf1wIAjCSuPN8TALwtPU8j/dN8ilJvjTJU9Z33PqtDkMdOtfLi8WxMyIJtX4cc2Ro4c72Puu7842T+3ZNRAJQSR2TAHxjXbRJ9OJJXjPJ2yd5vySfmuTLk3z7enLob5OEveeDHLsA7LJ8oyS067G3sxscSZhsiot/4ZSGFvKMGRbGq3b8Y8YRgJHEnedTEoC65Nujdj3s11rfl/sDknxakq9I8h1JfjrJc2e4LezSKXnPvI5ekITt29+xvHpMQwuz2iu4bsc/JhYBGEnceSYAlccu0b2Hc5RfO8k7JvnAJI9O8pVJvjPJM0/0tsYEo79gXCQJb2vi4i6b6izfs7ShhVkIwL4d/5gJBGAkceeZAFQePaK/6ijBLGrGKUgJSeixxc6njTkOLdzqxtyr4x9XMQEYSdx5JgCVR4+ohwC8IMnvEolbrT3HIhDbJOGT12c3OJLQY4u/uTZuY2jhVjbC3h3/uIoIwEjizjMBqDx6RD0E4NnrL/LS63t1v1OSDxqE4NOTPCHJdyX5WZJwK7XpWMRgczlIQo8t/3bbODu08GWddiBudCM7VMc/rhoCMJK480wAKo8eUU8B2OX7/Nkkr5ukScIjkzx2LQnttMifMSfhRuvXZqd6bL9vSsK/WZ/d4EjCLlvo7bynHS3okYNdGrnsixy64x9XAQEYSdx5JgCVR4/opgVgl+/8UmtJeGCSR6wl4auSPHUtCb/TqVhctp37e5+iPFeOTRJ+M0k7BZIk7LJlHu49ixCAm+r4R8wEYCRx55kAVB49ojkKwC7L1SThdZI8YC0Jj1mf3TDXzsb3WqZMXCYJr+GyzLtsrpe+Z9YCcNMd/0iLAIwk7jwTgMqjR7RUAThv2XW0y+xol7zezpOEdpXPNnGRJJy3td59fZYCcFsd/4iFAIwk7jwTgMqjR0QAph3m160nLj7LxMUbGVJdcud/le++bbiBJNypYrMSgNvu+MfCTgBGEneeCUDl0SMiAFMBaMVo89EmLr7exsTFs2c3PM+cBKLQKQc2JaHdH6RNXDwFSZiVAJwtAJvF4CZ/JwCVNgGoPHpEBOByAdiF83h2Q5u46OyGKdOr7Cl778X8jlESCMCWKkMAKhQCUHn0iAjAtNgeagdgnLg4nt3QJi46u2HKnwDsz6RJwk+uz25YwpEEArClmhOACoUAVB49IgIwLbaHEoBd1tdLbpzd0C6wpDPE4FA5MCdJIABbqgMBqFAIQOXRIyIA0w7mNgVgc5322P4P1Xlod5o3x8hklIQnJnmPJG2o6xAPArCFao8C8M5b2l3qSwSg/5ojANNCfkwC8DHDXR8fkuSjknzecHThG5P80HDthF8cbh/9x44wOMJyxRz4wyRfnuTFO5ciArAFKAGoUAhA5dEjIgDHLQAX7QC86HAZ5ldM8mbDvRrefbgM80cPe3ifP5zx8M3DGQ8/PNzP4ZeH20e3Gz0d456tZdpvvf54klfrUYDWbRCALTAJQIVCACqPHhEBmBbCYzoCcJEA7JI/90jySkneIsnDknxski9I8qQk/ynJryR5IUk4SUn6peGoUpvY2uNBALZQJAAVCgGoPHpEBIAA7JtHL5bklZPcP8l7Jvm4JF+U5FuS/EiSXyMJRysI7YhRjwcB2EKRAFQoBKDy6BERAALQI48ua+MrHCU4Sglo80ja3T33fRCALQQJQIVCACqPHhEBIAA98uiyNnoIwB8Md4Zs1903fj8vBm2C6b4PArCFIAGoUAhA5dEjIgDTYtqK0Rwex7T99xCAdlnceya5b5K3TvLwJJ+Y5PFJnpzkx5I8hyTcuCB9TYeNhQBsgXhMBWDL4l35JQJwZWSXfoAAEIBLk6TDG3oJwC5fpUlCm6HeJOG915LwuCTftpaEXycJXSXhp3dZKZe8hwBsAUQAKhQCUHn0iAgAAeiRR5e1cZMCcNl3aX//M2tJeKsk75XkE5J88VoSftTExSsJQrti5b4PArCFIAGoUAhA5dEjIgAEoEceXdbG3ATgsu/b/t4k4VWTvOVaEj5+fXZDG2owD+EuAwKwSzZd4z0EoEIjAJVHj4gA3C1kY1E3B6BHZtU2ligAdQnuRo8iAEWACMDd3Oj6GwGoOAlA5dEjIgAEoEceXdYGAah51jrNpw1XYPzZ4QqMz1u4UBCAy7L/mn8nABUcAag8ekQEoBbmdhTAEYAemVXbIAA1z9o9GTYf7Yp67Xz68VbRj13QraIJwOaa7Pg7AagwCUDl0SMiALUwE4AeWTVtgwDUPDsrAFNi01eaJLxOkgcMN3N6xHB1xcck+cokTx1u+PTMJP/rlo4kEIDpuuryCgGoGAlA5dEjIgC1MBOAHlk1bYMA1Dy7jgBMqU5feckkr53kHZN84HAzp0cnaey/M0k7Xe+5B5AEAjBdD11eIQAVIwGoPHpEBKAWZgLQI6umbRCAmmeHEoAp+ekr907yV5K8w3BL6E/rIAQEYMq4yysEoGIkAJVHj4gA1MJMAHpk1bQNAlDz7DYFYHPtzGX7dx2AzbWy/p0AVCgEoPLoEc2lAPRYltZG68D3/TEJsNfauNsOAah5SQDu5kb7jQBUHquIAFQoBKDy6BERgFqYHQHokVXTNghAzTMCUHOEAFQeq4gAVCgEoPLoERGAWpgJQI+smrZBAGqeEYCaIwSg8lhFBKBCIQCVR4+IANTCTAB6ZNW0DQJQ84wA1BwhAJXHKiIAFQoBqDx6RASgFmYC0COrpm0QgJpnBKDmCAGoPFYRAahQCEDl0SMiALUwE4AeWTVtgwDUPCMANUcIQOWxighAhUIAKo8eEQGohZkA9MiqaRsEoOYZAag5QgAqj1VEACoUAlB59IgIQC3MBKBHVk3bIAA1zwhAzRECUHmsIgJQoRCAyqNHRABqYSYAPbJq2gYBqHlGAGqOEIDKYxURgAqFAFQePSICUAszAeiRVdM2CEDNMwJQc4QAVB6riABUKASg8ugREYBamAlAj6yatkEAap4RgJojBKDyWEUEoEIhAJVHj4gA1MJMAHpk1bQNAlDzjADUHCEAlccqIgAVCgGoPHpEBKAWZgLQI6umbRCAmmcEoOYIAag8VhEBqFAIQOXRIyIAtTATgB5ZNW2DANQ8IwA1RwhA5bGKCECFQgAqjx4RAaiFmQD0yKppGwSg5hkBqDlCACqPVUQAKhQCUHn0iAhALcwEoEdWTdsgADXPCEDNEQJQeawiAlChEIDKo0dEAGphJgA9smraBgGoeUYAao4QgMpjFRGACoUAVB49IgJQCzMB6JFV0zYIQM0zAlBzhABUHquIAFQoBKDy6BERgFqYCUCPrJq2QQBqnhGAmiMEoPJYRQSgQiEAlUePiADUwkwAemTVtA0CUPOMANQcIQCVxyoiABUKAag8ekQEoBZmAtAjq6ZtEICaZwSg5ggBqDxWEQGoUAhA5dEjIgC1MBOAHlk1bYMA1DwjADVHCEDlsYoIQIVCACqPHhEBqIWZAPTIqmkbBKDmGQGoOUIAKo9VRAAqFAJQefSICEAtzASgR1ZN2yAANc8IQM2RoxKAeyR58bp814qWIgBtWdsyH/pBAPoTJgC1MBOA/jnWWiQANc8IQM2zxQvA/ZM8LskPJfm9JC9I8swkX53kfeuy7hzNWQDaMrVla8vYlrUtc1v2xqCxOMSDAPSnSgBqYSYA/XOstUgAap4RgJpnixWAtvf7eUlemLqCWyHZ/Hl6klesy3xpNEcBaMvQlmVz2c7+3lg0Jj2OgmxCIgCbNPr8TgCmudyK0Rwec9z+r8uFANQ8IwA1kxYpAC+b5FmXdIabnePvJHnzutwXRnMrAO27t2XYXKaLfm9sGqNeDwLQi+TddgjANJ8JwN386PUbAah5RgBqZi1SAL72Cp3h2FH+QpJ712U/N5qTALTv3L77uBy7PjdGvR4EoBfJu+0QgGlOE4C7+dHrNwJQ84wA1MxanAC8yzU6w7HTfHxd9nOjOQlA+87j97/qc2PV40EAelCsbRCAaV4TgJojPSICUPOMANSsWpwA/NgeHeKfJLlPXf6t0VwEoH3X9p2v2vGP72+sejwIQA+KtQ0CMM1rAlBzpEdEAGqeEYCaVYsSgHslef4eHWLrGB9Yl39rNBcBaN917Myv89xYNWb7PgjAvgSnnycA09wmANM82fcVAlDzjADUjFqUALzpnh1i60Q/uS7/1mguAtC+63U6/s3PNGb7PgjAvgSnnycA09wmANM82fcVAlDzjADUjFqUADyyQ4f4dXX5t0ZzEYD2XTc78+v83pjt+yAA+xKcfp4ATHObAEzzZN9XCEDNMwJQM2pRAvCoDh3iLgkwFwFo3/U6nf7mZxqzfR8EYF+C088TgGluE4Bpnuz7CgGoebZL/d+X+S6fn8v2TwC2rC0CUKEQgMqjRzSXAtBjWVobm9J53d8JQK+1cbcdAlBzkwDczY32GwGoPFYRAahQCEDl0SMiALUwN2kgAD0yq7ZBAGqeEYCaHwSg8lhFBKBCIQCVR4+IANTCTAB6ZNW0DQJQ84wA1BwhAJXHKiIAFQoBqDx6RASgFmYC0COrpm0QgJpnBKDmCAGoPFYRAahQCEDl0SMiALUwE4AeWTVtgwDUPCMANUcIQOWxighAhUIAKo8eEQGohZkA9MiqaRsEoOYZAag5QgAqj1VEACoUAlB59IgIQC3MBKBHVk3bIAA1zwhAzRECUHmsIgJQoRCAyqNHRABqYSYAPbJq2gYBqHlGAGqOEIDKYxURgAqFAFQePSICUAszAeiRVdM2CEDNMwJQc4QAVB6riABUKASg8ugREYBamAlAj6yatkEAap4RgJojBKDyWEUEoEIhAJVHj4gA1MJMAHpk1bQNAlDzjADUHCEAlccqIgAVCgGoPHpEBKAWZgLQI6umbRCAmmcEoOYIAag8VhEBqFAIQOXRIyIAtTATgB5ZNW2DANQ8IwA1RwhA5bGKCECFQgAqjx4RAaiFmQD0yKppGwSg5hkBqDlCACqPVUQAKhQCUHn0iAhALcwEoEdWTdsgADXPCEDNEQJQeawiAlChEIDKo0dEAGphJgA9smraBgGoeUYAao4QgMpjFRGACoUAVB49IgJQCzMB6JFV0zYIQM0zAlBzhABUHquIAFQoBKDy6BERgFqYCUCPrJq2QQBqnhGAmiMEoPJYRQSgQiEAlUePiADUwkwAemTVtA0CUPOMANQcIQCVxyoiABUKAag8ekQEoBZmAtAjq6ZtEICaZwSg5ggBqDxWEQGoUAhA5dEjIgC1MBOAHlk1bYMA1DwjADVHCEDlsYoIQIVCACqPHhEBqIWZAPTIqmkbBKDmGQGoOUIAKo9VRAAqFAJQefSICEAtzASgR1ZN2yAANc8IQM0RAlB5rCICUKEQgMqjR0QAamEmAD2yatoGAah5RgBqjhCAymMVEYAKhQBUHj0iAlALMwHokVXTNghAzTMCUHOEAFQeq4gAVCgEoPLoERGAWpgJQI+smrZBAGqeEYCaIwSg8lhFBKBCIQCVR4+IANTCTAB6ZNW0DQJQ84wA1BwhAJXHKiIAFQoBqDx6RASgFmYC0COrpm0QgJpnBKDmCAGoPFYRAahQCEDl0SMiALUwE4AeWTVtgwDUPCMANUcIQOWxighAhUIAKo8eEQGohZkA9MiqaRsEoOYZAag5QgAqj1VEACoUAlB59IgIQC3MBKBHVk3bIAA1zwhAzRECUHmsIgJQoRCAyqNHRABqYSYAPbJq2gYBqHlGAGqOEIDKYxURgAqFAFQePSICUAszAeiRVdM2CEDNMwJQc4QAVB6riABUKASg8ugREYBamAlAj6yatkEAap4RgJojBKDyWEUEoEIhAJVHj4gA1MJMAHpk1bQNAlDzjADUHCEAlccqIgAVCgGoPHpEBKAWZgLQI6umbRCAmmcEoOYIAag8VhEBqFAIQOXRIyIAtTATgB5ZNW2DANQ8IwA1RwhA5bGKCECFQgAqjx4RAaiFmQD0yKppGwSg5hkBqDlCACqPVUQAKhQCUHn0iAhALcwEoEdWTdsgADXPCEDNEQJQeawiAlChEIDKo0dEAGphJgA9smraBgGoeUYAao4QgMpjFRELc8IzAAAcp0lEQVSACoUAVB49IgJQCzMB6JFV0zYIQM0zAlBzhABUHquIAFQoBKDy6BERgFqYCUCPrJq2QQBqnhGAmiMEoPJYRQSgQiEAlUePiADUwkwAemTVtA0CUPOMANQcIQCVxyoiABUKAag8ekQEoBZmAtAjq6ZtEICaZwSg5ggBqDxWEQGoUAhA5dEjIgC1MBOAHlk1bYMA1DwjADVHCEDlsYoIQIVCACqPHhEBqIWZAPTIqmkbBKDmGQGoOUIAKo9VRAAqFAJQefSICEAtzASgR1ZN2yAANc8IQM0RAlB5rCICUKEQgMqjR0QAamEmAD2yatoGAah5RgBqjhCAymMVEYAKhQBUHj0iAlALMwHokVXTNghAzTMCUHOEAFQeq4gAVCgEoPLoERGAWpgJQI+smrZBAGqeEYCaIwSg8lhFBKBCIQCVR4+IANTCTAB6ZNW0DQJQ84wA1BwhAJXHKiIAFQoBqDx6RASgFmYC0COrpm0QgJpnBKDmCAGoPFYRAahQCEDl0SMiALUwE4AeWTVtgwDUPCMANUcIQOWxighAhUIAKo8eEQGohZkA9MiqaRsEoOYZAag5QgAqj1VEACoUAlB59IgIQC3MBKBHVk3bIAA1zwhAzRECUHmsIgJQoRCAyqNHRABqYSYAPbJq2gYBqHlGAGqOEIDKYxURgAqFAFQePSICUAszAeiRVdM2CEDNMwJQc4QAVB6riABUKASg8ugREYBamAlAj6yatkEAap4RgJojixKAh6WuzFY0rvrzZXX5t0YEoGIhAJVHj4gATLfdVozm8JjL9t+DBQGoeUYAalYtSgDue40O/6wgfHBd/q3RXApAS9az3/+q8aO2LuHVXiQAV+O1y7sJwDS3CcAumXO19xCAmmcEoObPogSgffXf3rNTfOO6/FsjAlCxEIDKo0dEAGphbmJLAHpkVm2DANQ8IwA1PxYnAN+0hwD8ZpJ71uXfGhGAioUAVB49IgJQCzMB6JFV0zYIQM0zAlBzZHEC8EpJnndNCXhIXfZzIwJQ0RCAyqNHRABqYSYAPbJq2gYBqHlGAGqOLE4A2td/5DUE4Il1uS+MCEDFQwAqjx4RAaiFmQD0yKppGwSg5hkBqDmySAFoi/DoJM/fUQTasMHL1OW+MCIAFQ8BqDx6RASgFmYC0COrpm0QgJpnBKDmyGIFoC3GGyb5iQsk4LeStFMHr/ogAJUYAag8ekQEoBZmAtAjq6ZtEICaZwSg5siiBaAtyosmef0kj0jSzvH/uiQfleT+SV6iLuvO0VwE4OsvkJtWMHf5+ZCdl/r8NxKA89lc9y8EYJq/rRjN4TGX7b8HCwJQ84wA1KxavADUxekTzaUAfMaOnfxFIvA2HZAQgA4QzzRBAGphdgTgTIJ0CglAzTMCUBOLAFQeq2guAvAuewrAC5O81Jblu+pLBOCqxC5/PwGohZkAXJ4z13kHAah5RgBqFhGAymMVzUUA/vKeAvCzW5btOi8RgOtQu/gzBKAWZgJwcb5c968EoOYZAaiZRAAqj1U0FwFoX+bb9pCAD9uybNd5iQBch9rFnyEAtTATgIvz5bp/JQA1zwhAzSQCUHmsojkJwMsnaVcwbAXyKj//PsmLbFm267xEAK5D7eLPEIBpPrdiNIfHnLb/fXkQgJpnBKBmFAGoPFbR3ArAg4brHrzgCgLQ7pfwqluW67ovEYDrkjv/cwSgFmZHAM7PlX3+QgBqnhGAmk0EoPJYRXMTgPal/kaSn9tBAp6c5BW2LNM+LxGAfeht/ywBqIWZAGzPk31fJQA1zwhAzSgCUHmsojkKQPti90rymCTfn+T/bsjAbyT5jiTvtWVZerxEAHpQrG0QgFqYCUDNj14RAah5RgBqZhGAymMVzVUANr/qPZLcL8mrbL54oN8JQH+wBKAWZgLQP8daiwSg5hkBqHlGACqPVbQEAdjytQ/2EgHoj5YA1MJMAPrnWGuRANQ8IwA1zwhA5bGKCECFQgAqjx4RAaiFmQD0yKppGwSg5hkBqDlCACqPVUQAKhQCUHn0iAhALcwEoEdWTdsgADXPCEDNEQJQeawiAlChEIDKo0dEAGphJgA9smraBgGoeUYAao4QgMpjFRGACoUAVB49IgJQCzMB6JFV0zYIQM0zAlBzhABUHquIAFQoBKDy6BERgFqYCUCPrJq2QQBqnhGAmiMEoPJYRQSgQiEAlUePiADUwkwAemTVtA0CUPOMANQcIQCVxyoiABUKAag8ekQEoBZmAtAjq6ZtEICaZwSg5ggBqDxWEQGoUAhA5dEjIgC1MBOAHlk1bYMA1DwjADVHCEDlsYoIQIVCACqPHhEBqIWZAPTIqmkbBKDmGQGoOUIAKo9VRAAqFAJQefSICEAtzASgR1ZN2yAANc8IQM0RAlB5rCICUKEQgMqjR0QAamEmAD2yatoGAah5RgBqjhCAymMVEYAKhQBUHj0iAlALMwHokVXTNghAzTMCUHOEAFQeq4gAVCgEoPLoERGAWpgJQI+smrZBAGqeEYCaIwSg8lhFBKBCIQCVR4+IANTCTAB6ZNW0DQJQ84wA1BwhAJXHKiIAFQoBqDx6RASgFmYC0COrpm0QgJpnBKDmCAGoPFYRAahQCEDl0SMiALUwE4AeWTVtgwDUPCMANUcIQOWxighAhUIAKo8eEQGohZkA9MiqaRsEoObZIQXgpZO8ZpK3SPKuST44yack+YLh9ScOrz99eP0nh9d/Jckfpn6vlv9X/Xn2dHVf+RUCsAUZAahQCEDl0SMiANOC14rRHB7HtP0TgJpnVxGAl9no0N9to0P/wi0d+vOv0YFftcM/+34CcKBqcUwFoAciAtCDYm2DANTC3IobAag50iMiADXPnrbeQz+vQ3/Geg/9Njr0sx38ZTEB6LGFbGmDAFQoBKDy6BERgFqYCUCPrJq2QQCmeXZZx7qUvxOAab53eYUAVIwEoPLoERGAaWF2BKBHZtU2liIAL5LkPkleJ8lbJ3lokkcleczw+uOH19uh+5+7hcPsc5YBAlBzvVtEACpKAlB59IgIAAHokUeXtXFbArBLh/4fho7+Z4aO/jlJXqBzNwnQHsBlm/Pt/J0A9OdOAAhA/6yatthLAHTo03y97aMDjgBM873LK44AVIwEoPLoERGAaUG1A9Ajs2obPQTg9+2hX3nv/Cbk4H/WVX2tqG1zPb5rl0YUgGutw4N/iAD0R0wApoXH9r9fnm07be2HOxX4Hp2ENqY5vw+T790vXVafJgBbIDoCUKEQgMqjR0QApsWQANTM2tahtwvLbJ6HvqTT1vbp7Hx2ur18UU2Xa0UEYAs2AlChEIDKo0dEAKYF7dgFQIc+Xec69usz+cAOhYgAbIFIACoUAlB59IgIwLTwHZMAtMOz/zaJPfTpetbp78/k1ztdOIsAbKnmBKBCIQCVR4+IAEyL4G0KwIsm+QtJXjfJzxs37zKnS0c/zfFeTB7WowitJaLHd+qSMLdZADZ5EoBNGgkBqDx6RARgWhx7bv+bHfrbrC8s8+FJHru+sMw3Jfnu9Xnov2GWe5f63aMj0cZ0uzjL5Bt6FKB1G44AbIFJACoUAlB59IgIwLTQXSQAOvQpr7Mdg/i4Gf1xkk9K0q7J0OtBALaQJAAVCgGoPHpEBGBarD/OHro9ccMvkxz43STfmuQtexSeM20QgDNAWkgAKhQCUHn0iAjAVADswWJyajnwwiS/leRZSdrE0Scl+dKhwHzG8PpHDsNUbfjqxXoUnHPaIABbwBCACoUAVB49oiUIQCsOrzXMZr//MJu93T71Q5J86vo89K/fmOX+q/baJnttp9aRWd478nZZh94m773d0NHfb+joXy5JG9q6zQcB2EKfAFQoBKDy6BHdhgBcpUP/I526Tl0OZGkd+lVr06wE4POSvMpVl+AA7ycAFSoBqDx6RD0E4JevsIeuQ3d43V56jr5Dv2ptmpUAtARtt4X8lvXYx1UXptf7CUAlSQAqjx5RDwFQ0HXqp54Dx76H3qPWXNTG7ARgM6FbR/xBSV7ioiU4wN8IQIVKACqPXaKzp629e5LxPPQvSfI0h1cdYpcDkxzQoe9SXfq9Z9YCMMrAb+fOxWhuaniAANQEIwB3JuuMV4p72yRnO/TxwjI/O3T0Lixjz3ysXaf+3Dr037xglvvcJsXVynf80SIEYNyIbmp4gADUxD9GAdjcQ9/s0D99uCRs20NvHfr3DB29Dl1nPtYfz3fG0Dc79G/eOG3tI4aOfuzQX28ms9xrJROdJbAoAdjcAA85PEAAapockwD8H3vok8Oum9uV309LeM7uoevQa+079mixAjAWqkMMDxCAmvbHJABj3ng+rY7uVNa3Dr3WLtH5BO6VpNdk5Fvfq+g5PEAAatIQAJ3lqXSgc1tOHXqtRaLdCNwjySuvL+L1nkk+PskXJ/m2JD+2Pgr6Jx0nod66AGxuuPsODxCAmmQEgABsbl9+v34+6NBrbRFdnUC7GdBfTPLXkzw4yT9I8rlJvjHJDw1nzrXrg7Qd4pvcTm/0n+26YNcdHiAANSkJwM1uTLvmt/fd/nrRoddaIdqfwMsOe+pvOOyp/50kj0ryWUm+dn2vgP+e5A9vuHPfpc7MUgDGL37V4QECUJOYANx+RzPmsufDrovNDr2dBTJOimtnh4yz3NtZI2a51xoh2o3ASw576q8z7Kk/MMkjh4685dU/X99X4z8Ph+r/7ww7911qzuqUqV3eeNvv2WV4gADUZCYAh+10bnubOOb/r0Ov27LocATuOeypv/pw+nATxPdN8inDofovHw7Vf8dwqP6nh0P1/2uhnfsu9WFF9Q2SPCHJ7y9gQS8aHiAAdSMhAARglyJwE+/RoddtU3QzBNqkuldK8hZJ3iPJx52ZVPecJD0n1d3EttTzf5S18OeTfFKSX1yACGwbHiAAZXWGABCAnsVisy0det3WRDdPoE2qe/kkb5LkQUn+/plJdb90C5PqNreRJfy+da01a3poku9bgAg0yOPwwM91+L7vvJXIMl+ciwB8QIf1soSNacnfUYe+zG38mL91u9hNOzr9t89MqmtzPP7bTCfVLa0GXJo/bVZjm+ywhOGBHvAJQN1rbhKx7+ONCMCNT7bVoe+btT5/SAL3TvLaSR5wZlLd04dD9W1Hrl35s0c918bFHHdex/dZ0PDAPiudANSE6SEA7YjS79mg9ypoY4fe7nEwznJv9z4wy33nEuaNN0SgTaq77/rW8OOkui8bDtV/+/po7XPVgr1qwT7929nPXjklWjF/yPrcxrONHUNMAPoLQEuyH7DRl43+sg693bVwPG2t3c2w3QTJA4HbJtDq/yuemVT3RcOh+m8dDtX/aJJfP/FJdUvrA/fKpzY8sJSzB3ZdMQTgMALwdrlzR7Jd18PS3qdD36uU+PBMCLzcmUl1nzMcqv+G4VD9D64nh/8xkS8iv7Q6dfb7dkm7JZ09cBbA2ZgAHEYAWqL9kwUVDx16l9KgkRkR2JxU92FJPnM4VP81w6H6707yC8MQ7x8saPs8W7fFtW7vyqNreh7D8AABqInUYw7AmGR/5hbPLNGhj2vB8zES2JxU94jhMPxj10dnvyvJs5L8b537Ue2579rBX/a+g20LSx0eIACHE4CWbE0S200wfnfPgqRDP9imq+GZEWjiPE6qe5/h9LdPTvKlSZ6S5BlJ2sXRLiv0/o7Rthw4eKq34YFPXMjFhRqgf5fkHQ5O5Wb+wVyuA7Btaf/yOi/anbD+6/rw428mOW+Wu0lx2yh6bekE2uTONqnuzYc99YcNe+ofm+QLk3xLkh9J8msm1ZGbPQSv1dSfSPLkJI8bzsb6hCTvNfRzb5nkVW5y4xmHB9opTNtMZG6v/cyw8X1oknZobamPOQvAUpn63ghchUCbVPfGw576uw176n8vyWcn+Vfrs2LaFVdNqltGfzC3/ql9n98Zzsh7ZpLvTPIVQy59WpL3H4ZZ3z7JayZ58ask6k2+d0n3Hmg3gmj3bH61mwTU6X8RgE4gNYPAFgIvM+ypv/6wp/631jsL/3ioE1+d5D+YVLeInbw5durjd2rXTfkv6yPS/yLJP0zywUn+5vqOln92Sz4u7qVxeODZCzgq0Mac//XChgcIwOI2CV94JgReYthT/yvDnvo7JvnA4RTWxyT5qiRPM6lO575nf/X8YU/9f6wnRD8xyT9d37L6XYZD9e2qqa1fPKlHGx548PoKZ6MBzfl5KcMDBOCkNiMLuyOBNqmuHdF76yQPX1/htF1V0aQ6h+P37XfajuKvDHvq/3HYU//mJJ8/HKr/qPXF8/7GcKj+FYa9+XYTI49zCLThgWbaS7j3wNyHBwjAOUnm5aMl0CbVtQmmbzZMKG0TRz8myRecmVTXivS+hd7nT5PhZZPqXuxot6wbXrB2GKTNWDQ8cH3wBOD67HxyngTaZZH/WpJ3TfKRZybVtVrxRzp3cnPNHFjspLp5bqp9vtU4PNCuVrUE657T8AAB6JODWrkZAi+d5H5J2rU4PmS4ZsTmpLqfX8hRwSXUqFP8jicxqe5mNtPb+y/j8MAS7iw3h+EBAnB7ueo/VwJtUt1rrSfRfsCZSXXt2g/7XhjqFDs1y3xnp9CkurqtHX30soYHdlrHBGAnTN60J4E2qe5Vk7zVmUl1/2Y4VP+Tw6H631rI0Tsd6vyOsppUt+fGecwfb8MDD1rfzGIJG+9NDw8QgGPO/ptZtjap7i8ledMzk+qeNByq/0/DofpfPfK7PC6hriz5O5pUdzPb8dH/l3ZBjq8cjgwYHri7qgnAXRZ+207gPsP1Lf7qxqS6ljNfPxyq//4k/9OkukXMO5qrAJhUt32b8+oBCYzDA614zXXDGL/XoS8uRAAOmGgLaLpdLWxzUt0/Gg7V/8vhUP2/X99/YQmn2o7biud51TOT6hZQAE75K7ZDl6c+PEAAjncLaNf53pxU9+j1EbCnJmlDTc9bgADr1OfVqY/rw6S6460bJ7lkpzo8QACWme7tYiLjpLr3Xt818fHrS1G3O3u1cdOxWHvG4io5YFLdMmuCb92BQBse+Pj12OZVNprbeG+P4QEC0CFpOjfRLgM6Tqp76LCn/tHry4W2y4a2y4e2y4i2dX8bOed/Lp+7SXWdN1jNHR+BcXig3bVrCUXvumcPEICbz91xUl27scdHrG/00W748X3rG4C4Ut0ytrk51gWT6m5+e/Yfj5zAMQ8PEIC+ydsm1b3e+pac7dac7Rad7Vad/259684lnIEyx47Nd7pz9tLR3/617+aoNQT6ETjG4QECsHt+tEl1rznsqb/9sKf+/kk+bbhz11ck+c7hTl7PNKluEUfK5ioSJtXtvh16JwK3SuCYhgcIwJ1UapPqXmXYU3/LYU/9vdZXkXzccO/tJyf5cZPqdO57DAWaVHer5do/R+BwBJY+PHAKAtAm1bV7bLd7bT9kfe/tz0vyTRuT6l6wR4Gf616l73UzcwlMqjtcfdUyAosgsNThgWMQgHZb6Dca9tT/bpIPT/JPknzdxqS6dnhVZ4jBdXLApLpFlF9fEoF5EBiHB5Zya+I/7NA5Nok41OOlhj31103yTkk+aPgnn2FSHZnpkLNNBlyp7lBbrXYRQCBLGh64zt7R+JnrCsC9hj3110jydkneb7im/KeemVTX9r7G/+EZi6vkwHmT6tpRona0qB018kAAAQQOTmBJ9x64SpEd37tNANpdGF85yf2TvOeWSXW/keRPdPAE5xo5cHZSXZvP8VHr+R1tnkeb79HmfXgggAACsyGwtFsTjx38Zc/fk2ScVPfDw6H6X05iUp099svy5ry/t0l17cyLdgZGOxPjE9ZnZrQzNNqZGu2MDQ8EEEBgsQROZXjgvCLv9dMUBJPqFluyfHEEEOhNYBweePY1DoXqRE+zE53rejeprnd10B4CCJwEgWMdHphrZ+V7XU2eTKo7iTJkIRFA4LYJtOGBr1qfpqSjulpHhdfVebX5Gu0Og+1Og+2OgybV3XYF8P8RQODkCRgeuHpnRgCmzEyqO/lSAgACCCyVQBseeHCSpVxcSCc87YQPxcSkuqVu1b43AgggcEUCb7AeHvh9kwaP/hx6k+quuHF4OwIIIHAKBNqVzNr50c4euLm97Z578SbVncJWahkRQACBAxIYhwfaxXh6dlDauj5Pk+oOmPCaRgABBBCYEjA8cP1O+yrCY1LdNPe8ggACCCAwAwJteOATDQ9c64iISXUzSGBfAQEEEEBgPwKGB+oRgcsm1bVbD3sggAACCCBwVASOfXjApLqjSlcLgwACCCDQm8AShwdMquudBdpDAAEEEDhZAnMaHjCp7mTT0IIjgAACCNwmgTY88IRh4uAhLi5kUt1trln/GwEEEEAAgR0IjMMDv7jjNQVMqtsBqrcggAACCCCwFAJteOAhSf5tku9L8sQk/zTJRyT5u0neKEmTBQ8EEEAAAQQQQAABBBBAAAEEEEAAAQQQQAABBBBAAAEEEEAAAQQQQAABBBBAAAEEEEAAAQQQQAABBBBAAAEEEEAAAQQQQAABBBBAAAEEEEAAAQQQQAABBBBAAAEEEEAAAQQQQAABBBBAAAEEEEAAAQQQQAABBBBAAAEEEEAAAQQQQAABBBBAAAEEEEAAAQQQQAABBBBAAAEEEEAAAQQQQAABBBBAAAEEEEAAAQQQQAABBBBAAAEEEEAAAQQQQAABBBBAAAEEEEAAAQQQQAABBBBAAAEEEEAAAQQQQAABBBBAAAEEEEAAAQQQQAABBBBAAAEEEEAAAQQQQAABBBBAAAEEEEAAAQQQQAABBBBAAAEEEEAAAQQQQAABBBBAAAEEEEAAAQQQQAABBBBAAAEEEEAAAQQQQAABBBBAAAEEEEAAAQQQQAABBBBAAAEEEEAAAQQQQAABBBBAAAEEEEAAAQQQQAABBBBAAAEEEEAAAQQQQAABBBBAAAEEEEAAAQQQQAABBBBAAAEEEEAAAQQQQAABBBBAAAEEEEAAAQQQQAABBBBAAAEEEEAAAQQQQAABBBBAAAEEEEAAAQQQQAABBBBAAAEEEEAAAQQQQAABBBBAAAEEEEAAAQQQQAABBBBAAAEEEEAAAQQQQAABBBBAAAEEEEAAAQQQQAABBBBAAAEEEEAAAQQQQAABBBBAAAEEEEAAAQQQQAABBBBAAAEEEEAAAQQQQAABBBBAAAEEEEAAAQQQQAABBBBAAAEEEEAAAQQQQAABBBBAAAEEEEAAAQQQQAABBBBAAAEEEEAAAQQQQAABBBBAAAEEEEAAAQQQQAABBBBAAAEEEEAAAQQQQAABBBBAAAEEEEAAAQQQQAABBBBAAAEEEEAAAQQQQAABBBBAAAEEEEAAAQQQQAABBBBAAAEEEEAAAQQQQAABBBBAAAEEEEAAAQQQQAABBBBAAAEEEEAAAQQQQAABBBBAAAEEEEAAAQQQQAABBBBAAAEEEEAAAQQQQAABBBBAAAEEEEAAAQQQQAABBBBAAAEEEEAAAQQQQAABBBBAAAEEEEAAAQQQQAABBBBAAAEEEEAAAQQQQAABBBBAAAEEEEAAAQQQQAABBBBAAAEEEEAAAQQQQAABBBBAAAEEEEAAAQQQQAABBBBAAAEEEEAAAQQQQAABBBBAAAEEEEAAAQQQQAABBBBAAAEEEEAAAQQQQAABBBBAAAEEEEAAAQQQQAABBBBAAAEEEEAAAQQQQAABBBBAAAEEEEAAAQQQQAABBBBAAAEEEEAAAQQQQAABBBBAAAEEEEAAAQQQQAABBBBAAAEEEEAAAQQQQAABBBBAAAEEEEAAAQQQQAABBBA4KQL/H0CBIlchlG0KAAAAAElFTkSuQmCC;" vertex="1" parent="1">
          <mxGeometry x="863.01" y="718.64" width="57" height="57" as="geometry" />
        </mxCell>
        <mxCell id="Qk6iisqbKT5Qhv3eNS_e-118" value="" style="shape=image;verticalLabelPosition=bottom;labelBackgroundColor=default;verticalAlign=top;aspect=fixed;imageAspect=0;image=data:image/png,iVBORw0KGgoAAAANSUhEUgAAAgAAAAIACAYAAAD0eNT6AAAAAXNSR0IArs4c6QAAIABJREFUeAHt3Qe4PNFZ1/EfBBMICGIEUWooUkJRUErokCAWIIVQQk1oAVR6TwIqqHRI6PFRSpASIBogIRY6KDUQCCpYQg8lElRKIEHn7H+H/7539t679+7Ze2d2P/s899n77t09d+c777znO3POzCQeCCCAAAIIIIAAAggggAACCCCAAAIIIIAAAggggAACCCCAAAIIIIAAAggggAACCCCAAAIIIIAAAggggAACCCCAAAIIIIAAAggggAACCCCAAAIIIIAAAggggAACCCCAAAIIIIAAAggggAACCCCAAAIIIIAAAggggAACCCCAAAIIIIAAAggggAACCCCAAAIIIIAAAggggAACCCCAAAIIIIAAAggggAACCCCAAAIIIIAAAggggAACCCCAAAIIIIAAAggggAACCCCAAAIIIIAAAggggAACCCCAAAIIIIAAAggggAACCCCAAAIIIIAAAggggAACCCCAAAIIIIAAAggggAACCCCAAAIIIIAAAggggAACCCCAAAIIIIAAAggggAACCCCAAAIIIIAAAggggAACCCCAAAIIIIAAAggggAACCCCAAAIIIIAAAggggAACCCCAAAIIIIAAAggggAACCCCAAAIIIIAAAggggAACCCCAAAIIIIAAAggggAACCCCAAAIIIIAAAggggAACCCCAAAIIIIAAAggggAACCCCAAAIIIIAAAggggAACCCCAAAIIIIAAAggggAACCCCAAAIIIIAAAggggAACCCCAAAIIIIAAAggggAACCCCAAAIIIIAAAggggAACCCCAAAIIIIAAAggggAACCCCAAAIIIIAAAggggAACCCCAAAIIIIAAAggggAACCCCAAAIIIIAAAggggAACCCCAAAIIIIAAAggggAACCCCAAAIIIIAAAggggAACCCCAAAIIIIAAAggggAACCCCAAAIIIIAAAggggAACCCCAAAIIIIAAAggggAACCCCAAAIIIIAAAggggAACCCCAAAIIIIAAAggggAACCCCAAAIIIIAAAggggAACCCCAAAIIIIAAAggggAACCCCAAAIIIIAAAggggAACCCCAAAIIIIAAAggggAACCCCAAAIIIIAAAggggAACCCCAAAIIIIAAAggggAACCCCAAAIIIIAAAggggAACCCCAAAIIIIAAAggggAACCCCAAAIIIIAAAggggAACCCCAAAIIIIAAAggggAACCCCAAAIIIIAAAggggAACCCCAAAIIIIAAAggggAACCCCAAAIIIIAAAggggAACCCCAAAIIIIAAAggggAACCCCAAAIIIIAAAggggAACCCCAAAIIIIAAAggggAACCCCAAAIIIIAAAggggAACCCCAAAIIIIAAAggggAACCCCAAAIIIIAAAggggAACCCCAAAIIIIAAAggggAACCCCAAAIIIIAAAggggAACCCCAAAIIIIAAAggggAACCCCAAAIIIIAAAggggAACCCCAAAIIIIAAAggggAACCCCAAAIIIIDAiyR59yTfn+RpSb4syccleXCSN0zykhAhgAACCCCAwPEQaB3/Q5M8M8n/u+TnOUl+KMnXDu/79CTvm+QtBll4+ePBYUkQQAABBBA4bgJX6fgvE4P29/+T5KeGowXfNhwt+Nwkjxpk4YGDLLx6khc7bpSWDgEEEEAAgfkT6N3x7yIHfzwcLfhvw9GCp28MLTwoyRsYWph/wviGCCCAAALLJnAbHf8uctDeY2hh2bnl2yOAAAIIzJDAnDv+XQRhHFr41iSfY2hhhhnmKyGAAAIIzIrA0jv+XeTA0MKsUs6XQQABBBC4TQKn0PHvIgftPb/urIXbTEX/GwEEEEDgJgjo+C8/jXFTHM4OLXxYkgesz1q4x02sMP8DAQQQQACBfQiMHf9PX3IO/2bn5/eLZcHQwj4Z6bMIIIAAAgcloOO/uBM/pOS0oYUfTPI1Loh00BzXOAIIIIDABgEd/+11/LtIxXlDC/dNYmhhI5H9igACCCCwGwEd/7w7/l3koA0t/IILIu2W8N6FAAIInDoBHf/yO/5d5KC9Z3No4bGDLLxPkjd3r4VTLwGWHwEETo2Ajv90Ov5dBOF/r++1MF4QaTxrwdDCqVUGy4sAAkdLQMev499FCDbf80froYXvSvKl69s4u9fC0ZYIC4YAAsdGoHX8D0nidD4CsNm59/j9vKGFlzu2jcjyIIAAAksioOPX4ffo5K/bhqGFJVUL3xUBBI6CwNI7/l9N8otJXugCRLlu5zv3z50dWvjYJO+2vo3zvY9iK7QQCCCAwA0SWHrHP3Za/2zN7F5JXjvJ307y95N8UZJvT/JzSf6AHBytHLQ8MLRwg4XDv0IAgeUSOJaO/6wAXLRG2jK/YpK3GY4WPCLJZw6y8A2DLPzoIAvPJQdHLQdtaOEZSb5lfRtnZy1ctKX4GwIIHCWBY+v4ryIAl63QPzccLXiT4WjBeyT55EEWnjDIwncbWjhqMWj5c97QwusPsmBo4bKtxt8RQGD2BObc8bfL1Y4d+XWfxyGAQ62Ie54ztPAsQwt7r7vrrvOb+pyhhUNtVdpFAIGDEphzx/8D61vets5732J+aAG4aCUZWth//e27/m/r85tDC5+d5EOTvONwYyYXRLpoi/E3BBA4KIEldPwjgKULwLgc5z23oYU3TvIwQwt7i95tdfTX+b+GFs7bIryOAAIHIbCkjn8EcOwCMC7ntuezQwtfOMjCUwZZMLRw/EcVfm04WtCOgn11ks17Lbgg0rYtxWsIIHAugSV2/OPCnLIAjAy2Pbd1+krOWjipowbjkYbzhhZezW2ct20qXkPgNAmMHf9PdRhHH4tPr+dxjP+yNUMALiO0/e+bZy18yiAL/9xZCychC4YWtm8PXkXgZAgcQ8c/riwCMJLo9+yCSMc/hHCeqG8OLTwmycPXt3E2tNBv+9ISArdC4Jg6/hEgARhJ3MyzoYXTlQNDCzezjfkvCHQlcIwd/wiIAIwk5vFsaOE0BaENLfx8kqetb+M83mvBBZHmsV36FidIoHX8D06y5DH+y1YbAbiM0Hz+bmjhNOWgDTdsG1p4syR/YT7p6ZsgcBwETqHjH9cUARhJLPt5HFp4W/daOInJiJtzEH53414LmxdEctbCsrdp3/6GCZxSxz+iJQAjieN+3ja08D3utXD0srA5tPAlST5mfRtnQwvHvb1buisQOMWOf8RDAEYSp/tsaMHQQrsg0njWgqGF060FJ7Xkp9zxjyuaAIwkPG8jYGjhdOWgDS38ZJInJTG0sG3r8NoiCej47642AnCXhd+uTsDQwmkKwrahhXcdZOF+buN89Y3IJ26GgI5/ypkATJl4pQ8BQwunKQd/4qyFPhuQVvoQ0PGfz5EAnM/GXw5HwNDCacpBO3thc2ih1Z8PWd/G2VkLh9veTrJlHf/lq50AXM7IO26egKGF0xSEi4YWXuLm09B/XCIBHf/ua40A7M7KO+dBwNDCacpBG1r41STfv76Ns7MW5rE9zuZb6PivvioIwNWZ+cR8CRhaOE05OG9o4R2SvKrbOM93g+3xzXT816dIAK7PzieXR8DQwmkKgqGF5W2rl35jHf+liC59w5wFoB3q/fAkT0jylCQ/muTHkjw5yeOSfGKS907y1sMhwTaB6J6XLq03IHA+AUMLpykHm0ML/zLJo9e3cXZBpPO3lVv9y9jxPyPzS9gfSPKAW6VztX8+RwG4R5IPSvJLV1y/bUN+zgWScF+ScLXk8O4/JbA5tPDIJJ+Z5BvWUvrcK+bp5nX8/T6/Gn52nWw7a2EcWnjRP80QvxycgI6/P+I5CsDXHrCgkoT+OaTF5LyhhSaxLzxgPp/trMQ3KxTPH45C/tf1bZzHey2MF0Ry1kKnytA6/get73g1twRf2h7/2VUyNwFoM3tvex2fJwkPXw83OJJwNovEFxEwtHD72/Rt1JRtQwttyPJN3cb5os3l7t90/HdZHOq3OQlAGzppG81tbKxX/Z9nJeHx6zkJJOFQmXqc7RpaWMb2ftX6sMv7n7dxr4VWh9sFkQwtJJlzx99W7EceUS2akwA8cSGd/y4bd3sPSTiiDeWWFsXQwmkKwji08NQkbefiowdZOPqhhbl3/GPhf+dbKgaH+LdzEYA2g78Z8cj4VJ5HSfjx9dkNjiQcIsuPs01DC6dXL8Ydi/GCSONZC+PQwn2WmOpL6fjHTokA1A2vScS+jweeYOc/5tNlzyRh3+w6vc8bWqg16rJt7Jj+3nakfmJ9G+dZDy0sreMfk4QA1I2rhwB8MAHY6+jHRZLwNklMXDw9CbhoiQ0t1Bo21vZjf942tPAuSV4vyY2dtbDUjn9MDgJQN54eAvAoArCXAIy5edEzSbioS/S3kYChhVrfLtqmjulvrT5sG1oY82Lv56V3/OPKJgB1AyEAlceYJ0t83iYJn7S+MpojCXuXwMU3YGjheLb1XevT3kl7LB3/CIwA1I2AAFQeY54c6zNJ2LskHm0DhhaOrxZcO1mPreMfCzoBqElOACqPMU9O+XlTEv71+lQmRxKuXUqP4oOGFpZZJ66cfHPu+HtclpMA1EQmAJXHKXf8V1n2Jgm/kaSdAkkSrlxmj+oDZ4cWPsu9Fg4+J2jXbXXnRJtzx/+9Sd5uuKTwT3WYbEYAaodHACqPXTcs77uc22WS8Opu8LRzfV7yGw0tXL6tHKqeXJo3S+j4x4UgACOJO8+t8943cQjA/gz3XQen/HmSULfpU4sMLRy2/pybT0vq+MeFIAAjiTvPBOCwG88pd8xzWvbzJOF9krSzG9qRhNaReBwXAUML+9e3SUYsseMfF4IAjCTuPBOA/TeQOXV0vsv11+dZSWi3d20TF0lCrRnHFBlauHx7+dP1veSOf1wIAjCSuPN8TALwtPU8j/dN8ilJvjTJU9Z33PqtDkMdOtfLi8WxMyIJtX4cc2Ro4c72Puu7842T+3ZNRAJQSR2TAHxjXbRJ9OJJXjPJ2yd5vySfmuTLk3z7enLob5OEveeDHLsA7LJ8oyS067G3sxscSZhsiot/4ZSGFvKMGRbGq3b8Y8YRgJHEnedTEoC65Nujdj3s11rfl/sDknxakq9I8h1JfjrJc2e4LezSKXnPvI5ekITt29+xvHpMQwuz2iu4bsc/JhYBGEnceSYAlccu0b2Hc5RfO8k7JvnAJI9O8pVJvjPJM0/0tsYEo79gXCQJb2vi4i6b6izfs7ShhVkIwL4d/5gJBGAkceeZAFQePaK/6ijBLGrGKUgJSeixxc6njTkOLdzqxtyr4x9XMQEYSdx5JgCVR4+ohwC8IMnvEolbrT3HIhDbJOGT12c3OJLQY4u/uTZuY2jhVjbC3h3/uIoIwEjizjMBqDx6RD0E4NnrL/LS63t1v1OSDxqE4NOTPCHJdyX5WZJwK7XpWMRgczlIQo8t/3bbODu08GWddiBudCM7VMc/rhoCMJK480wAKo8eUU8B2OX7/Nkkr5ukScIjkzx2LQnttMifMSfhRuvXZqd6bL9vSsK/WZ/d4EjCLlvo7bynHS3okYNdGrnsixy64x9XAQEYSdx5JgCVR4/opgVgl+/8UmtJeGCSR6wl4auSPHUtCb/TqVhctp37e5+iPFeOTRJ+M0k7BZIk7LJlHu49ixCAm+r4R8wEYCRx55kAVB49ojkKwC7L1SThdZI8YC0Jj1mf3TDXzsb3WqZMXCYJr+GyzLtsrpe+Z9YCcNMd/0iLAIwk7jwTgMqjR7RUAThv2XW0y+xol7zezpOEdpXPNnGRJJy3td59fZYCcFsd/4iFAIwk7jwTgMqjR0QAph3m160nLj7LxMUbGVJdcud/le++bbiBJNypYrMSgNvu+MfCTgBGEneeCUDl0SMiAFMBaMVo89EmLr7exsTFs2c3PM+cBKLQKQc2JaHdH6RNXDwFSZiVAJwtAJvF4CZ/JwCVNgGoPHpEBOByAdiF83h2Q5u46OyGKdOr7Cl778X8jlESCMCWKkMAKhQCUHn0iAjAtNgeagdgnLg4nt3QJi46u2HKnwDsz6RJwk+uz25YwpEEArClmhOACoUAVB49IgIwLbaHEoBd1tdLbpzd0C6wpDPE4FA5MCdJIABbqgMBqFAIQOXRIyIA0w7mNgVgc5322P4P1Xlod5o3x8hklIQnJnmPJG2o6xAPArCFao8C8M5b2l3qSwSg/5ojANNCfkwC8DHDXR8fkuSjknzecHThG5P80HDthF8cbh/9x44wOMJyxRz4wyRfnuTFO5ciArAFKAGoUAhA5dEjIgDHLQAX7QC86HAZ5ldM8mbDvRrefbgM80cPe3ifP5zx8M3DGQ8/PNzP4ZeH20e3Gz0d456tZdpvvf54klfrUYDWbRCALTAJQIVCACqPHhEBmBbCYzoCcJEA7JI/90jySkneIsnDknxski9I8qQk/ynJryR5IUk4SUn6peGoUpvY2uNBALZQJAAVCgGoPHpEBIAA7JtHL5bklZPcP8l7Jvm4JF+U5FuS/EiSXyMJRysI7YhRjwcB2EKRAFQoBKDy6BERAALQI48ua+MrHCU4Sglo80ja3T33fRCALQQJQIVCACqPHhEBIAA98uiyNnoIwB8Md4Zs1903fj8vBm2C6b4PArCFIAGoUAhA5dEjIgDTYtqK0Rwex7T99xCAdlnceya5b5K3TvLwJJ+Y5PFJnpzkx5I8hyTcuCB9TYeNhQBsgXhMBWDL4l35JQJwZWSXfoAAEIBLk6TDG3oJwC5fpUlCm6HeJOG915LwuCTftpaEXycJXSXhp3dZKZe8hwBsAUQAKhQCUHn0iAgAAeiRR5e1cZMCcNl3aX//M2tJeKsk75XkE5J88VoSftTExSsJQrti5b4PArCFIAGoUAhA5dEjIgAEoEceXdbG3ATgsu/b/t4k4VWTvOVaEj5+fXZDG2owD+EuAwKwSzZd4z0EoEIjAJVHj4gA3C1kY1E3B6BHZtU2ligAdQnuRo8iAEWACMDd3Oj6GwGoOAlA5dEjIgAEoEceXdYGAah51jrNpw1XYPzZ4QqMz1u4UBCAy7L/mn8nABUcAag8ekQEoBbmdhTAEYAemVXbIAA1z9o9GTYf7Yp67Xz68VbRj13QraIJwOaa7Pg7AagwCUDl0SMiALUwE4AeWTVtgwDUPDsrAFNi01eaJLxOkgcMN3N6xHB1xcck+cokTx1u+PTMJP/rlo4kEIDpuuryCgGoGAlA5dEjIgC1MBOAHlk1bYMA1Dy7jgBMqU5feckkr53kHZN84HAzp0cnaey/M0k7Xe+5B5AEAjBdD11eIQAVIwGoPHpEBKAWZgLQI6umbRCAmmeHEoAp+ekr907yV5K8w3BL6E/rIAQEYMq4yysEoGIkAJVHj4gA1MJMAHpk1bQNAlDz7DYFYHPtzGX7dx2AzbWy/p0AVCgEoPLoEc2lAPRYltZG68D3/TEJsNfauNsOAah5SQDu5kb7jQBUHquIAFQoBKDy6BERgFqYHQHokVXTNghAzTMCUHOEAFQeq4gAVCgEoPLoERGAWpgJQI+smrZBAGqeEYCaIwSg8lhFBKBCIQCVR4+IANTCTAB6ZNW0DQJQ84wA1BwhAJXHKiIAFQoBqDx6RASgFmYC0COrpm0QgJpnBKDmCAGoPFYRAahQCEDl0SMiALUwE4AeWTVtgwDUPCMANUcIQOWxighAhUIAKo8eEQGohZkA9MiqaRsEoOYZAag5QgAqj1VEACoUAlB59IgIQC3MBKBHVk3bIAA1zwhAzRECUHmsIgJQoRCAyqNHRABqYSYAPbJq2gYBqHlGAGqOEIDKYxURgAqFAFQePSICUAszAeiRVdM2CEDNMwJQc4QAVB6riABUKASg8ugREYBamAlAj6yatkEAap4RgJojBKDyWEUEoEIhAJVHj4gA1MJMAHpk1bQNAlDzjADUHCEAlccqIgAVCgGoPHpEBKAWZgLQI6umbRCAmmcEoOYIAag8VhEBqFAIQOXRIyIAtTATgB5ZNW2DANQ8IwA1RwhA5bGKCECFQgAqjx4RAaiFmQD0yKppGwSg5hkBqDlCACqPVUQAKhQCUHn0iAhALcwEoEdWTdsgADXPCEDNEQJQeawiAlChEIDKo0dEAGphJgA9smraBgGoeUYAao4QgMpjFRGACoUAVB49IgJQCzMB6JFV0zYIQM0zAlBzhABUHquIAFQoBKDy6BERgFqYCUCPrJq2QQBqnhGAmiMEoPJYRQSgQiEAlUePiADUwkwAemTVtA0CUPOMANQcIQCVxyoiABUKAag8ekQEoBZmAtAjq6ZtEICaZwSg5ggBqDxWEQGoUAhA5dEjIgC1MBOAHlk1bYMA1DwjADVHCEDlsYoIQIVCACqPHhEBqIWZAPTIqmkbBKDmGQGoOUIAKo9VRAAqFAJQefSICEAtzASgR1ZN2yAANc8IQM2RoxKAeyR58bp814qWIgBtWdsyH/pBAPoTJgC1MBOA/jnWWiQANc8IQM2zxQvA/ZM8LskPJfm9JC9I8swkX53kfeuy7hzNWQDaMrVla8vYlrUtc1v2xqCxOMSDAPSnSgBqYSYA/XOstUgAap4RgJpnixWAtvf7eUlemLqCWyHZ/Hl6klesy3xpNEcBaMvQlmVz2c7+3lg0Jj2OgmxCIgCbNPr8TgCmudyK0Rwec9z+r8uFANQ8IwA1kxYpAC+b5FmXdIabnePvJHnzutwXRnMrAO27t2XYXKaLfm9sGqNeDwLQi+TddgjANJ8JwN386PUbAah5RgBqZi1SAL72Cp3h2FH+QpJ712U/N5qTALTv3L77uBy7PjdGvR4EoBfJu+0QgGlOE4C7+dHrNwJQ84wA1MxanAC8yzU6w7HTfHxd9nOjOQlA+87j97/qc2PV40EAelCsbRCAaV4TgJojPSICUPOMANSsWpwA/NgeHeKfJLlPXf6t0VwEoH3X9p2v2vGP72+sejwIQA+KtQ0CMM1rAlBzpEdEAGqeEYCaVYsSgHslef4eHWLrGB9Yl39rNBcBaN917Myv89xYNWb7PgjAvgSnnycA09wmANM82fcVAlDzjADUjFqUALzpnh1i60Q/uS7/1mguAtC+63U6/s3PNGb7PgjAvgSnnycA09wmANM82fcVAlDzjADUjFqUADyyQ4f4dXX5t0ZzEYD2XTc78+v83pjt+yAA+xKcfp4ATHObAEzzZN9XCEDNMwJQM2pRAvCoDh3iLgkwFwFo3/U6nf7mZxqzfR8EYF+C088TgGluE4Bpnuz7CgGoebZL/d+X+S6fn8v2TwC2rC0CUKEQgMqjRzSXAtBjWVobm9J53d8JQK+1cbcdAlBzkwDczY32GwGoPFYRAahQCEDl0SMiALUwN2kgAD0yq7ZBAGqeEYCaHwSg8lhFBKBCIQCVR4+IANTCTAB6ZNW0DQJQ84wA1BwhAJXHKiIAFQoBqDx6RASgFmYC0COrpm0QgJpnBKDmCAGoPFYRAahQCEDl0SMiALUwE4AeWTVtgwDUPCMANUcIQOWxighAhUIAKo8eEQGohZkA9MiqaRsEoOYZAag5QgAqj1VEACoUAlB59IgIQC3MBKBHVk3bIAA1zwhAzRECUHmsIgJQoRCAyqNHRABqYSYAPbJq2gYBqHlGAGqOEIDKYxURgAqFAFQePSICUAszAeiRVdM2CEDNMwJQc4QAVB6riABUKASg8ugREYBamAlAj6yatkEAap4RgJojBKDyWEUEoEIhAJVHj4gA1MJMAHpk1bQNAlDzjADUHCEAlccqIgAVCgGoPHpEBKAWZgLQI6umbRCAmmcEoOYIAag8VhEBqFAIQOXRIyIAtTATgB5ZNW2DANQ8IwA1RwhA5bGKCECFQgAqjx4RAaiFmQD0yKppGwSg5hkBqDlCACqPVUQAKhQCUHn0iAhALcwEoEdWTdsgADXPCEDNEQJQeawiAlChEIDKo0dEAGphJgA9smraBgGoeUYAao4QgMpjFRGACoUAVB49IgJQCzMB6JFV0zYIQM0zAlBzhABUHquIAFQoBKDy6BERgFqYCUCPrJq2QQBqnhGAmiMEoPJYRQSgQiEAlUePiADUwkwAemTVtA0CUPOMANQcIQCVxyoiABUKAag8ekQEoBZmAtAjq6ZtEICaZwSg5ggBqDxWEQGoUAhA5dEjIgC1MBOAHlk1bYMA1DwjADVHCEDlsYoIQIVCACqPHhEBqIWZAPTIqmkbBKDmGQGoOUIAKo9VRAAqFAJQefSICEAtzASgR1ZN2yAANc8IQM0RAlB5rCICUKEQgMqjR0QAamEmAD2yatoGAah5RgBqjhCAymMVEYAKhQBUHj0iAlALMwHokVXTNghAzTMCUHOEAFQeq4gAVCgEoPLoERGAWpgJQI+smrZBAGqeEYCaIwSg8lhFBKBCIQCVR4+IANTCTAB6ZNW0DQJQ84wA1BwhAJXHKiIAFQoBqDx6RASgFmYC0COrpm0QgJpnBKDmCAGoPFYRAahQCEDl0SMiALUwE4AeWTVtgwDUPCMANUcIQOWxighAhUIAKo8eEQGohZkA9MiqaRsEoOYZAag5QgAqj1VEACoUAlB59IgIQC3MBKBHVk3bIAA1zwhAzRECUHmsIgJQoRCAyqNHRABqYSYAPbJq2gYBqHlGAGqOEIDKYxURgAqFAFQePSICUAszAeiRVdM2CEDNMwJQc4QAVB6riABUKASg8ugREYBamAlAj6yatkEAap4RgJojBKDyWEUEoEIhAJVHj4gA1MJMAHpk1bQNAlDzjADUHCEAlccqIgAVCgGoPHpEBKAWZgLQI6umbRCAmmcEoOYIAag8VhEBqFAIQOXRIyIAtTATgB5ZNW2DANQ8IwA1RwhA5bGKCECFQgAqjx4RAaiFmQD0yKppGwSg5hkBqDlCACqPVUQAKhQCUHn0iAhALcwEoEdWTdsgADXPCEDNEQJQeawiAlChEIDKo0dEAGphJgA9smraBgGoeUYAao4QgMpjFRELc8IzAAAcp0lEQVSACoUAVB49IgJQCzMB6JFV0zYIQM0zAlBzhABUHquIAFQoBKDy6BERgFqYCUCPrJq2QQBqnhGAmiMEoPJYRQSgQiEAlUePiADUwkwAemTVtA0CUPOMANQcIQCVxyoiABUKAag8ekQEoBZmAtAjq6ZtEICaZwSg5ggBqDxWEQGoUAhA5dEjIgC1MBOAHlk1bYMA1DwjADVHCEDlsYoIQIVCACqPHhEBqIWZAPTIqmkbBKDmGQGoOUIAKo9VRAAqFAJQefSICEAtzASgR1ZN2yAANc8IQM0RAlB5rCICUKEQgMqjR0QAamEmAD2yatoGAah5RgBqjhCAymMVEYAKhQBUHj0iAlALMwHokVXTNghAzTMCUHOEAFQeq4gAVCgEoPLoERGAWpgJQI+smrZBAGqeEYCaIwSg8lhFBKBCIQCVR4+IANTCTAB6ZNW0DQJQ84wA1BwhAJXHKiIAFQoBqDx6RASgFmYC0COrpm0QgJpnBKDmCAGoPFYRAahQCEDl0SMiALUwE4AeWTVtgwDUPCMANUcIQOWxighAhUIAKo8eEQGohZkA9MiqaRsEoOYZAag5QgAqj1VEACoUAlB59IgIQC3MBKBHVk3bIAA1zwhAzRECUHmsIgJQoRCAyqNHRABqYSYAPbJq2gYBqHlGAGqOEIDKYxURgAqFAFQePSICUAszAeiRVdM2CEDNMwJQc4QAVB6riABUKASg8ugREYBamAlAj6yatkEAap4RgJojixKAh6WuzFY0rvrzZXX5t0YEoGIhAJVHj4gATLfdVozm8JjL9t+DBQGoeUYAalYtSgDue40O/6wgfHBd/q3RXApAS9az3/+q8aO2LuHVXiQAV+O1y7sJwDS3CcAumXO19xCAmmcEoObPogSgffXf3rNTfOO6/FsjAlCxEIDKo0dEAGphbmJLAHpkVm2DANQ8IwA1PxYnAN+0hwD8ZpJ71uXfGhGAioUAVB49IgJQCzMB6JFV0zYIQM0zAlBzZHEC8EpJnndNCXhIXfZzIwJQ0RCAyqNHRABqYSYAPbJq2gYBqHlGAGqOLE4A2td/5DUE4Il1uS+MCEDFQwAqjx4RAaiFmQD0yKppGwSg5hkBqDmySAFoi/DoJM/fUQTasMHL1OW+MCIAFQ8BqDx6RASgFmYC0COrpm0QgJpnBKDmyGIFoC3GGyb5iQsk4LeStFMHr/ogAJUYAag8ekQEoBZmAtAjq6ZtEICaZwSg5siiBaAtyosmef0kj0jSzvH/uiQfleT+SV6iLuvO0VwE4OsvkJtWMHf5+ZCdl/r8NxKA89lc9y8EYJq/rRjN4TGX7b8HCwJQ84wA1KxavADUxekTzaUAfMaOnfxFIvA2HZAQgA4QzzRBAGphdgTgTIJ0CglAzTMCUBOLAFQeq2guAvAuewrAC5O81Jblu+pLBOCqxC5/PwGohZkAXJ4z13kHAah5RgBqFhGAymMVzUUA/vKeAvCzW5btOi8RgOtQu/gzBKAWZgJwcb5c968EoOYZAaiZRAAqj1U0FwFoX+bb9pCAD9uybNd5iQBch9rFnyEAtTATgIvz5bp/JQA1zwhAzSQCUHmsojkJwMsnaVcwbAXyKj//PsmLbFm267xEAK5D7eLPEIBpPrdiNIfHnLb/fXkQgJpnBKBmFAGoPFbR3ArAg4brHrzgCgLQ7pfwqluW67ovEYDrkjv/cwSgFmZHAM7PlX3+QgBqnhGAmk0EoPJYRXMTgPal/kaSn9tBAp6c5BW2LNM+LxGAfeht/ywBqIWZAGzPk31fJQA1zwhAzSgCUHmsojkKQPti90rymCTfn+T/bsjAbyT5jiTvtWVZerxEAHpQrG0QgFqYCUDNj14RAah5RgBqZhGAymMVzVUANr/qPZLcL8mrbL54oN8JQH+wBKAWZgLQP8daiwSg5hkBqHlGACqPVbQEAdjytQ/2EgHoj5YA1MJMAPrnWGuRANQ8IwA1zwhA5bGKCECFQgAqjx4RAaiFmQD0yKppGwSg5hkBqDlCACqPVUQAKhQCUHn0iAhALcwEoEdWTdsgADXPCEDNEQJQeawiAlChEIDKo0dEAGphJgA9smraBgGoeUYAao4QgMpjFRGACoUAVB49IgJQCzMB6JFV0zYIQM0zAlBzhABUHquIAFQoBKDy6BERgFqYCUCPrJq2QQBqnhGAmiMEoPJYRQSgQiEAlUePiADUwkwAemTVtA0CUPOMANQcIQCVxyoiABUKAag8ekQEoBZmAtAjq6ZtEICaZwSg5ggBqDxWEQGoUAhA5dEjIgC1MBOAHlk1bYMA1DwjADVHCEDlsYoIQIVCACqPHhEBqIWZAPTIqmkbBKDmGQGoOUIAKo9VRAAqFAJQefSICEAtzASgR1ZN2yAANc8IQM0RAlB5rCICUKEQgMqjR0QAamEmAD2yatoGAah5RgBqjhCAymMVEYAKhQBUHj0iAlALMwHokVXTNghAzTMCUHOEAFQeq4gAVCgEoPLoERGAWpgJQI+smrZBAGqeEYCaIwSg8lhFBKBCIQCVR4+IANTCTAB6ZNW0DQJQ84wA1BwhAJXHKiIAFQoBqDx6RASgFmYC0COrpm0QgJpnBKDmCAGoPFYRAahQCEDl0SMiALUwE4AeWTVtgwDUPCMANUcIQOWxighAhUIAKo8eEQGohZkA9MiqaRsEoObZIQXgpZO8ZpK3SPKuST44yack+YLh9ScOrz99eP0nh9d/Jckfpn6vlv9X/Xn2dHVf+RUCsAUZAahQCEDl0SMiANOC14rRHB7HtP0TgJpnVxGAl9no0N9to0P/wi0d+vOv0YFftcM/+34CcKBqcUwFoAciAtCDYm2DANTC3IobAag50iMiADXPnrbeQz+vQ3/Geg/9Njr0sx38ZTEB6LGFbGmDAFQoBKDy6BERgFqYCUCPrJq2QQCmeXZZx7qUvxOAab53eYUAVIwEoPLoERGAaWF2BKBHZtU2liIAL5LkPkleJ8lbJ3lokkcleczw+uOH19uh+5+7hcPsc5YBAlBzvVtEACpKAlB59IgIAAHokUeXtXFbArBLh/4fho7+Z4aO/jlJXqBzNwnQHsBlm/Pt/J0A9OdOAAhA/6yatthLAHTo03y97aMDjgBM873LK44AVIwEoPLoERGAaUG1A9Ajs2obPQTg9+2hX3nv/Cbk4H/WVX2tqG1zPb5rl0YUgGutw4N/iAD0R0wApoXH9r9fnm07be2HOxX4Hp2ENqY5vw+T790vXVafJgBbIDoCUKEQgMqjR0QApsWQANTM2tahtwvLbJ6HvqTT1vbp7Hx2ur18UU2Xa0UEYAs2AlChEIDKo0dEAKYF7dgFQIc+Xec69usz+cAOhYgAbIFIACoUAlB59IgIwLTwHZMAtMOz/zaJPfTpetbp78/k1ztdOIsAbKnmBKBCIQCVR4+IAEyL4G0KwIsm+QtJXjfJzxs37zKnS0c/zfFeTB7WowitJaLHd+qSMLdZADZ5EoBNGgkBqDx6RARgWhx7bv+bHfrbrC8s8+FJHru+sMw3Jfnu9Xnov2GWe5f63aMj0cZ0uzjL5Bt6FKB1G44AbIFJACoUAlB59IgIwLTQXSQAOvQpr7Mdg/i4Gf1xkk9K0q7J0OtBALaQJAAVCgGoPHpEBGBarD/OHro9ccMvkxz43STfmuQtexSeM20QgDNAWkgAKhQCUHn0iAjAVADswWJyajnwwiS/leRZSdrE0Scl+dKhwHzG8PpHDsNUbfjqxXoUnHPaIABbwBCACoUAVB49oiUIQCsOrzXMZr//MJu93T71Q5J86vo89K/fmOX+q/baJnttp9aRWd478nZZh94m773d0NHfb+joXy5JG9q6zQcB2EKfAFQoBKDy6BHdhgBcpUP/I526Tl0OZGkd+lVr06wE4POSvMpVl+AA7ycAFSoBqDx6RD0E4JevsIeuQ3d43V56jr5Dv2ptmpUAtARtt4X8lvXYx1UXptf7CUAlSQAqjx5RDwFQ0HXqp54Dx76H3qPWXNTG7ARgM6FbR/xBSV7ioiU4wN8IQIVKACqPXaKzp629e5LxPPQvSfI0h1cdYpcDkxzQoe9SXfq9Z9YCMMrAb+fOxWhuaniAANQEIwB3JuuMV4p72yRnO/TxwjI/O3T0Lixjz3ysXaf+3Dr037xglvvcJsXVynf80SIEYNyIbmp4gADUxD9GAdjcQ9/s0D99uCRs20NvHfr3DB29Dl1nPtYfz3fG0Dc79G/eOG3tI4aOfuzQX28ms9xrJROdJbAoAdjcAA85PEAAapockwD8H3vok8Oum9uV309LeM7uoevQa+079mixAjAWqkMMDxCAmvbHJABj3ng+rY7uVNa3Dr3WLtH5BO6VpNdk5Fvfq+g5PEAAatIQAJ3lqXSgc1tOHXqtRaLdCNwjySuvL+L1nkk+PskXJ/m2JD+2Pgr6Jx0nod66AGxuuPsODxCAmmQEgABsbl9+v34+6NBrbRFdnUC7GdBfTPLXkzw4yT9I8rlJvjHJDw1nzrXrg7Qd4pvcTm/0n+26YNcdHiAANSkJwM1uTLvmt/fd/nrRoddaIdqfwMsOe+pvOOyp/50kj0ryWUm+dn2vgP+e5A9vuHPfpc7MUgDGL37V4QECUJOYANx+RzPmsufDrovNDr2dBTJOimtnh4yz3NtZI2a51xoh2o3ASw576q8z7Kk/MMkjh4685dU/X99X4z8Ph+r/7ww7911qzuqUqV3eeNvv2WV4gADUZCYAh+10bnubOOb/r0Ov27LocATuOeypv/pw+nATxPdN8inDofovHw7Vf8dwqP6nh0P1/2uhnfsu9WFF9Q2SPCHJ7y9gQS8aHiAAdSMhAARglyJwE+/RoddtU3QzBNqkuldK8hZJ3iPJx52ZVPecJD0n1d3EttTzf5S18OeTfFKSX1yACGwbHiAAZXWGABCAnsVisy0det3WRDdPoE2qe/kkb5LkQUn+/plJdb90C5PqNreRJfy+da01a3poku9bgAg0yOPwwM91+L7vvJXIMl+ciwB8QIf1soSNacnfUYe+zG38mL91u9hNOzr9t89MqmtzPP7bTCfVLa0GXJo/bVZjm+ywhOGBHvAJQN1rbhKx7+ONCMCNT7bVoe+btT5/SAL3TvLaSR5wZlLd04dD9W1Hrl35s0c918bFHHdex/dZ0PDAPiudANSE6SEA7YjS79mg9ypoY4fe7nEwznJv9z4wy33nEuaNN0SgTaq77/rW8OOkui8bDtV/+/po7XPVgr1qwT7929nPXjklWjF/yPrcxrONHUNMAPoLQEuyH7DRl43+sg693bVwPG2t3c2w3QTJA4HbJtDq/yuemVT3RcOh+m8dDtX/aJJfP/FJdUvrA/fKpzY8sJSzB3ZdMQTgMALwdrlzR7Jd18PS3qdD36uU+PBMCLzcmUl1nzMcqv+G4VD9D64nh/8xkS8iv7Q6dfb7dkm7JZ09cBbA2ZgAHEYAWqL9kwUVDx16l9KgkRkR2JxU92FJPnM4VP81w6H6707yC8MQ7x8saPs8W7fFtW7vyqNreh7D8AABqInUYw7AmGR/5hbPLNGhj2vB8zES2JxU94jhMPxj10dnvyvJs5L8b537Ue2579rBX/a+g20LSx0eIACHE4CWbE0S200wfnfPgqRDP9imq+GZEWjiPE6qe5/h9LdPTvKlSZ6S5BlJ2sXRLiv0/o7Rthw4eKq34YFPXMjFhRqgf5fkHQ5O5Wb+wVyuA7Btaf/yOi/anbD+6/rw428mOW+Wu0lx2yh6bekE2uTONqnuzYc99YcNe+ofm+QLk3xLkh9J8msm1ZGbPQSv1dSfSPLkJI8bzsb6hCTvNfRzb5nkVW5y4xmHB9opTNtMZG6v/cyw8X1oknZobamPOQvAUpn63ghchUCbVPfGw576uw176n8vyWcn+Vfrs2LaFVdNqltGfzC3/ql9n98Zzsh7ZpLvTPIVQy59WpL3H4ZZ3z7JayZ58ask6k2+d0n3Hmg3gmj3bH61mwTU6X8RgE4gNYPAFgIvM+ypv/6wp/631jsL/3ioE1+d5D+YVLeInbw5durjd2rXTfkv6yPS/yLJP0zywUn+5vqOln92Sz4u7qVxeODZCzgq0Mac//XChgcIwOI2CV94JgReYthT/yvDnvo7JvnA4RTWxyT5qiRPM6lO575nf/X8YU/9f6wnRD8xyT9d37L6XYZD9e2qqa1fPKlHGx548PoKZ6MBzfl5KcMDBOCkNiMLuyOBNqmuHdF76yQPX1/htF1V0aQ6h+P37XfajuKvDHvq/3HYU//mJJ8/HKr/qPXF8/7GcKj+FYa9+XYTI49zCLThgWbaS7j3wNyHBwjAOUnm5aMl0CbVtQmmbzZMKG0TRz8myRecmVTXivS+hd7nT5PhZZPqXuxot6wbXrB2GKTNWDQ8cH3wBOD67HxyngTaZZH/WpJ3TfKRZybVtVrxRzp3cnPNHFjspLp5bqp9vtU4PNCuVrUE657T8AAB6JODWrkZAi+d5H5J2rU4PmS4ZsTmpLqfX8hRwSXUqFP8jicxqe5mNtPb+y/j8MAS7iw3h+EBAnB7ueo/VwJtUt1rrSfRfsCZSXXt2g/7XhjqFDs1y3xnp9CkurqtHX30soYHdlrHBGAnTN60J4E2qe5Vk7zVmUl1/2Y4VP+Tw6H631rI0Tsd6vyOsppUt+fGecwfb8MDD1rfzGIJG+9NDw8QgGPO/ptZtjap7i8ledMzk+qeNByq/0/DofpfPfK7PC6hriz5O5pUdzPb8dH/l3ZBjq8cjgwYHri7qgnAXRZ+207gPsP1Lf7qxqS6ljNfPxyq//4k/9OkukXMO5qrAJhUt32b8+oBCYzDA614zXXDGL/XoS8uRAAOmGgLaLpdLWxzUt0/Gg7V/8vhUP2/X99/YQmn2o7biud51TOT6hZQAE75K7ZDl6c+PEAAjncLaNf53pxU9+j1EbCnJmlDTc9bgADr1OfVqY/rw6S6460bJ7lkpzo8QACWme7tYiLjpLr3Xt818fHrS1G3O3u1cdOxWHvG4io5YFLdMmuCb92BQBse+Pj12OZVNprbeG+P4QEC0CFpOjfRLgM6Tqp76LCn/tHry4W2y4a2y4e2y4i2dX8bOed/Lp+7SXWdN1jNHR+BcXig3bVrCUXvumcPEICbz91xUl27scdHrG/00W748X3rG4C4Ut0ytrk51gWT6m5+e/Yfj5zAMQ8PEIC+ydsm1b3e+pac7dac7Rad7Vad/259684lnIEyx47Nd7pz9tLR3/617+aoNQT6ETjG4QECsHt+tEl1rznsqb/9sKf+/kk+bbhz11ck+c7hTl7PNKluEUfK5ioSJtXtvh16JwK3SuCYhgcIwJ1UapPqXmXYU3/LYU/9vdZXkXzccO/tJyf5cZPqdO57DAWaVHer5do/R+BwBJY+PHAKAtAm1bV7bLd7bT9kfe/tz0vyTRuT6l6wR4Gf616l73UzcwlMqjtcfdUyAosgsNThgWMQgHZb6Dca9tT/bpIPT/JPknzdxqS6dnhVZ4jBdXLApLpFlF9fEoF5EBiHB5Zya+I/7NA5Nok41OOlhj31103yTkk+aPgnn2FSHZnpkLNNBlyp7lBbrXYRQCBLGh64zt7R+JnrCsC9hj3110jydkneb7im/KeemVTX9r7G/+EZi6vkwHmT6tpRona0qB018kAAAQQOTmBJ9x64SpEd37tNANpdGF85yf2TvOeWSXW/keRPdPAE5xo5cHZSXZvP8VHr+R1tnkeb79HmfXgggAACsyGwtFsTjx38Zc/fk2ScVPfDw6H6X05iUp099svy5ry/t0l17cyLdgZGOxPjE9ZnZrQzNNqZGu2MDQ8EEEBgsQROZXjgvCLv9dMUBJPqFluyfHEEEOhNYBweePY1DoXqRE+zE53rejeprnd10B4CCJwEgWMdHphrZ+V7XU2eTKo7iTJkIRFA4LYJtOGBr1qfpqSjulpHhdfVebX5Gu0Og+1Og+2OgybV3XYF8P8RQODkCRgeuHpnRgCmzEyqO/lSAgACCCyVQBseeHCSpVxcSCc87YQPxcSkuqVu1b43AgggcEUCb7AeHvh9kwaP/hx6k+quuHF4OwIIIHAKBNqVzNr50c4euLm97Z578SbVncJWahkRQACBAxIYhwfaxXh6dlDauj5Pk+oOmPCaRgABBBCYEjA8cP1O+yrCY1LdNPe8ggACCCAwAwJteOATDQ9c64iISXUzSGBfAQEEEEBgPwKGB+oRgcsm1bVbD3sggAACCCBwVASOfXjApLqjSlcLgwACCCDQm8AShwdMquudBdpDAAEEEDhZAnMaHjCp7mTT0IIjgAACCNwmgTY88IRh4uAhLi5kUt1trln/GwEEEEAAgR0IjMMDv7jjNQVMqtsBqrcggAACCCCwFAJteOAhSf5tku9L8sQk/zTJRyT5u0neKEmTBQ8EEEAAAQQQQAABBBBAAAEEEEAAAQQQQAABBBBAAAEEEEAAAQQQQAABBBBAAAEEEEAAAQQQQAABBBBAAAEEEEAAAQQQQAABBBBAAAEEEEAAAQQQQAABBBBAAAEEEEAAAQQQQAABBBBAAAEEEEAAAQQQQAABBBBAAAEEEEAAAQQQQAABBBBAAAEEEEAAAQQQQAABBBBAAAEEEEAAAQQQQAABBBBAAAEEEEAAAQQQQAABBBBAAAEEEEAAAQQQQAABBBBAAAEEEEAAAQQQQAABBBBAAAEEEEAAAQQQQAABBBBAAAEEEEAAAQQQQAABBBBAAAEEEEAAAQQQQAABBBBAAAEEEEAAAQQQQAABBBBAAAEEEEAAAQQQQAABBBBAAAEEEEAAAQQQQAABBBBAAAEEEEAAAQQQQAABBBBAAAEEEEAAAQQQQAABBBBAAAEEEEAAAQQQQAABBBBAAAEEEEAAAQQQQAABBBBAAAEEEEAAAQQQQAABBBBAAAEEEEAAAQQQQAABBBBAAAEEEEAAAQQQQAABBBBAAAEEEEAAAQQQQAABBBBAAAEEEEAAAQQQQAABBBBAAAEEEEAAAQQQQAABBBBAAAEEEEAAAQQQQAABBBBAAAEEEEAAAQQQQAABBBBAAAEEEEAAAQQQQAABBBBAAAEEEEAAAQQQQAABBBBAAAEEEEAAAQQQQAABBBBAAAEEEEAAAQQQQAABBBBAAAEEEEAAAQQQQAABBBBAAAEEEEAAAQQQQAABBBBAAAEEEEAAAQQQQAABBBBAAAEEEEAAAQQQQAABBBBAAAEEEEAAAQQQQAABBBBAAAEEEEAAAQQQQAABBBBAAAEEEEAAAQQQQAABBBBAAAEEEEAAAQQQQAABBBBAAAEEEEAAAQQQQAABBBBAAAEEEEAAAQQQQAABBBBAAAEEEEAAAQQQQAABBBBAAAEEEEAAAQQQQAABBBBAAAEEEEAAAQQQQAABBBBAAAEEEEAAAQQQQAABBBBAAAEEEEAAAQQQQAABBBBAAAEEEEAAAQQQQAABBBBAAAEEEEAAAQQQQAABBBBAAAEEEEAAAQQQQAABBBBAAAEEEEAAAQQQQAABBBBAAAEEEEAAAQQQQAABBBBAAAEEEEAAAQQQQAABBBBAAAEEEEAAAQQQQAABBBBAAAEEEEAAAQQQQAABBBBAAAEEEEAAAQQQQAABBBBAAAEEEEAAAQQQQAABBBBAAAEEEEAAAQQQQAABBBBAAAEEEEAAAQQQQAABBBBAAAEEEEAAAQQQQAABBBBAAAEEEEAAAQQQQAABBBBAAAEEEEAAAQQQQAABBBBAAAEEEEAAAQQQQAABBBBAAAEEEEAAAQQQQAABBBA4KQL/H0CBIlchlG0KAAAAAElFTkSuQmCC;" vertex="1" parent="1">
          <mxGeometry x="1171.3899999999999" y="718.64" width="57" height="57" as="geometry" />
        </mxCell>
        <mxCell id="Qk6iisqbKT5Qhv3eNS_e-119" value="" style="shape=image;verticalLabelPosition=bottom;labelBackgroundColor=default;verticalAlign=top;aspect=fixed;imageAspect=0;image=data:image/png,iVBORw0KGgoAAAANSUhEUgAAAgAAAAIACAYAAAD0eNT6AAAAAXNSR0IArs4c6QAAIABJREFUeAHt3Qe4PNFZ1/EfBBMICGIEUWooUkJRUErokCAWIIVQQk1oAVR6TwIqqHRI6PFRSpASIBogIRY6KDUQCCpYQg8lElRKIEHn7H+H/7539t679+7Ze2d2P/s899n77t09d+c777znO3POzCQeCCCAAAIIIIAAAggggAACCCCAAAIIIIAAAggggAACCCCAAAIIIIAAAggggAACCCCAAAIIIIAAAggggAACCCCAAAIIIIAAAggggAACCCCAAAIIIIAAAggggAACCCCAAAIIIIAAAggggAACCCCAAAIIIIAAAggggAACCCCAAAIIIIAAAggggAACCCCAAAIIIIAAAggggAACCCCAAAIIIIAAAggggAACCCCAAAIIIIAAAggggAACCCCAAAIIIIAAAggggAACCCCAAAIIIIAAAggggAACCCCAAAIIIIAAAggggAACCCCAAAIIIIAAAggggAACCCCAAAIIIIAAAggggAACCCCAAAIIIIAAAggggAACCCCAAAIIIIAAAggggAACCCCAAAIIIIAAAggggAACCCCAAAIIIIAAAggggAACCCCAAAIIIIAAAggggAACCCCAAAIIIIAAAggggAACCCCAAAIIIIAAAggggAACCCCAAAIIIIAAAggggAACCCCAAAIIIIAAAggggAACCCCAAAIIIIAAAggggAACCCCAAAIIIIAAAggggAACCCCAAAIIIIAAAggggAACCCCAAAIIIIAAAggggAACCCCAAAIIIIAAAggggAACCCCAAAIIIIAAAggggAACCCCAAAIIIIAAAggggAACCCCAAAIIIIAAAggggAACCCCAAAIIIIAAAggggAACCCCAAAIIIIAAAggggAACCCCAAAIIIIAAAggggAACCCCAAAIIIIAAAggggAACCCCAAAIIIIAAAggggAACCCCAAAIIIIAAAggggAACCCCAAAIIIIAAAggggAACCCCAAAIIIIAAAggggAACCCCAAAIIIIAAAggggAACCCCAAAIIIIAAAggggAACCCCAAAIIIIAAAggggAACCCCAAAIIIIAAAggggAACCCCAAAIIIIAAAggggAACCCCAAAIIIIAAAggggAACCCCAAAIIIIAAAggggAACCCCAAAIIIIAAAggggAACCCCAAAIIIIAAAggggAACCCCAAAIIIIAAAggggAACCCCAAAIIIIAAAggggAACCCCAAAIIIIAAAggggAACCCCAAAIIIIAAAggggAACCCCAAAIIIIAAAggggAACCCCAAAIIIIAAAggggAACCCCAAAIIIIAAAggggAACCCCAAAIIIIAAAggggAACCCCAAAIIIIAAAggggAACCCCAAAIIIIAAAggggAACCCCAAAIIIIAAAggggAACCCCAAAIIIIAAAggggAACCCCAAAIIIIAAAggggAACCCCAAAIIIIAAAggggAACCCCAAAIIIIAAAggggAACCCCAAAIIIIAAAggggAACCCCAAAIIIIDAiyR59yTfn+RpSb4syccleXCSN0zykhAhgAACCCCAwPEQaB3/Q5M8M8n/u+TnOUl+KMnXDu/79CTvm+QtBll4+ePBYUkQQAABBBA4bgJX6fgvE4P29/+T5KeGowXfNhwt+Nwkjxpk4YGDLLx6khc7bpSWDgEEEEAAgfkT6N3x7yIHfzwcLfhvw9GCp28MLTwoyRsYWph/wviGCCCAAALLJnAbHf8uctDeY2hh2bnl2yOAAAIIzJDAnDv+XQRhHFr41iSfY2hhhhnmKyGAAAIIzIrA0jv+XeTA0MKsUs6XQQABBBC4TQKn0PHvIgftPb/urIXbTEX/GwEEEEDgJgjo+C8/jXFTHM4OLXxYkgesz1q4x02sMP8DAQQQQACBfQiMHf9PX3IO/2bn5/eLZcHQwj4Z6bMIIIAAAgcloOO/uBM/pOS0oYUfTPI1Loh00BzXOAIIIIDABgEd/+11/LtIxXlDC/dNYmhhI5H9igACCCCwGwEd/7w7/l3koA0t/IILIu2W8N6FAAIInDoBHf/yO/5d5KC9Z3No4bGDLLxPkjd3r4VTLwGWHwEETo2Ajv90Ov5dBOF/r++1MF4QaTxrwdDCqVUGy4sAAkdLQMev499FCDbf80froYXvSvKl69s4u9fC0ZYIC4YAAsdGoHX8D0nidD4CsNm59/j9vKGFlzu2jcjyIIAAAksioOPX4ffo5K/bhqGFJVUL3xUBBI6CwNI7/l9N8otJXugCRLlu5zv3z50dWvjYJO+2vo3zvY9iK7QQCCCAwA0SWHrHP3Za/2zN7F5JXjvJ307y95N8UZJvT/JzSf6AHBytHLQ8MLRwg4XDv0IAgeUSOJaO/6wAXLRG2jK/YpK3GY4WPCLJZw6y8A2DLPzoIAvPJQdHLQdtaOEZSb5lfRtnZy1ctKX4GwIIHCWBY+v4ryIAl63QPzccLXiT4WjBeyT55EEWnjDIwncbWjhqMWj5c97QwusPsmBo4bKtxt8RQGD2BObc8bfL1Y4d+XWfxyGAQ62Ie54ztPAsQwt7r7vrrvOb+pyhhUNtVdpFAIGDEphzx/8D61vets5732J+aAG4aCUZWth//e27/m/r85tDC5+d5EOTvONwYyYXRLpoi/E3BBA4KIEldPwjgKULwLgc5z23oYU3TvIwQwt7i95tdfTX+b+GFs7bIryOAAIHIbCkjn8EcOwCMC7ntuezQwtfOMjCUwZZMLRw/EcVfm04WtCOgn11ks17Lbgg0rYtxWsIIHAugSV2/OPCnLIAjAy2Pbd1+krOWjipowbjkYbzhhZezW2ct20qXkPgNAmMHf9PdRhHH4tPr+dxjP+yNUMALiO0/e+bZy18yiAL/9xZCychC4YWtm8PXkXgZAgcQ8c/riwCMJLo9+yCSMc/hHCeqG8OLTwmycPXt3E2tNBv+9ISArdC4Jg6/hEgARhJ3MyzoYXTlQNDCzezjfkvCHQlcIwd/wiIAIwk5vFsaOE0BaENLfx8kqetb+M83mvBBZHmsV36FidIoHX8D06y5DH+y1YbAbiM0Hz+bmjhNOWgDTdsG1p4syR/YT7p6ZsgcBwETqHjH9cUARhJLPt5HFp4W/daOInJiJtzEH53414LmxdEctbCsrdp3/6GCZxSxz+iJQAjieN+3ja08D3utXD0srA5tPAlST5mfRtnQwvHvb1buisQOMWOf8RDAEYSp/tsaMHQQrsg0njWgqGF060FJ7Xkp9zxjyuaAIwkPG8jYGjhdOWgDS38ZJInJTG0sG3r8NoiCej47642AnCXhd+uTsDQwmkKwrahhXcdZOF+buN89Y3IJ26GgI5/ypkATJl4pQ8BQwunKQd/4qyFPhuQVvoQ0PGfz5EAnM/GXw5HwNDCacpBO3thc2ih1Z8PWd/G2VkLh9veTrJlHf/lq50AXM7IO26egKGF0xSEi4YWXuLm09B/XCIBHf/ua40A7M7KO+dBwNDCacpBG1r41STfv76Ns7MW5rE9zuZb6PivvioIwNWZ+cR8CRhaOE05OG9o4R2SvKrbOM93g+3xzXT816dIAK7PzieXR8DQwmkKgqGF5W2rl35jHf+liC59w5wFoB3q/fAkT0jylCQ/muTHkjw5yeOSfGKS907y1sMhwTaB6J6XLq03IHA+AUMLpykHm0ML/zLJo9e3cXZBpPO3lVv9y9jxPyPzS9gfSPKAW6VztX8+RwG4R5IPSvJLV1y/bUN+zgWScF+ScLXk8O4/JbA5tPDIJJ+Z5BvWUvrcK+bp5nX8/T6/Gn52nWw7a2EcWnjRP80QvxycgI6/P+I5CsDXHrCgkoT+OaTF5LyhhSaxLzxgPp/trMQ3KxTPH45C/tf1bZzHey2MF0Ry1kKnytA6/get73g1twRf2h7/2VUyNwFoM3tvex2fJwkPXw83OJJwNovEFxEwtHD72/Rt1JRtQwttyPJN3cb5os3l7t90/HdZHOq3OQlAGzppG81tbKxX/Z9nJeHx6zkJJOFQmXqc7RpaWMb2ftX6sMv7n7dxr4VWh9sFkQwtJJlzx99W7EceUS2akwA8cSGd/y4bd3sPSTiiDeWWFsXQwmkKwji08NQkbefiowdZOPqhhbl3/GPhf+dbKgaH+LdzEYA2g78Z8cj4VJ5HSfjx9dkNjiQcIsuPs01DC6dXL8Ydi/GCSONZC+PQwn2WmOpL6fjHTokA1A2vScS+jweeYOc/5tNlzyRh3+w6vc8bWqg16rJt7Jj+3nakfmJ9G+dZDy0sreMfk4QA1I2rhwB8MAHY6+jHRZLwNklMXDw9CbhoiQ0t1Bo21vZjf942tPAuSV4vyY2dtbDUjn9MDgJQN54eAvAoArCXAIy5edEzSbioS/S3kYChhVrfLtqmjulvrT5sG1oY82Lv56V3/OPKJgB1AyEAlceYJ0t83iYJn7S+MpojCXuXwMU3YGjheLb1XevT3kl7LB3/CIwA1I2AAFQeY54c6zNJ2LskHm0DhhaOrxZcO1mPreMfCzoBqElOACqPMU9O+XlTEv71+lQmRxKuXUqP4oOGFpZZJ66cfHPu+HtclpMA1EQmAJXHKXf8V1n2Jgm/kaSdAkkSrlxmj+oDZ4cWPsu9Fg4+J2jXbXXnRJtzx/+9Sd5uuKTwT3WYbEYAaodHACqPXTcs77uc22WS8Opu8LRzfV7yGw0tXL6tHKqeXJo3S+j4x4UgACOJO8+t8943cQjA/gz3XQen/HmSULfpU4sMLRy2/pybT0vq+MeFIAAjiTvPBOCwG88pd8xzWvbzJOF9krSzG9qRhNaReBwXAUML+9e3SUYsseMfF4IAjCTuPBOA/TeQOXV0vsv11+dZSWi3d20TF0lCrRnHFBlauHx7+dP1veSOf1wIAjCSuPN8TALwtPU8j/dN8ilJvjTJU9Z33PqtDkMdOtfLi8WxMyIJtX4cc2Ro4c72Puu7842T+3ZNRAJQSR2TAHxjXbRJ9OJJXjPJ2yd5vySfmuTLk3z7enLob5OEveeDHLsA7LJ8oyS067G3sxscSZhsiot/4ZSGFvKMGRbGq3b8Y8YRgJHEnedTEoC65Nujdj3s11rfl/sDknxakq9I8h1JfjrJc2e4LezSKXnPvI5ekITt29+xvHpMQwuz2iu4bsc/JhYBGEnceSYAlccu0b2Hc5RfO8k7JvnAJI9O8pVJvjPJM0/0tsYEo79gXCQJb2vi4i6b6izfs7ShhVkIwL4d/5gJBGAkceeZAFQePaK/6ijBLGrGKUgJSeixxc6njTkOLdzqxtyr4x9XMQEYSdx5JgCVR4+ohwC8IMnvEolbrT3HIhDbJOGT12c3OJLQY4u/uTZuY2jhVjbC3h3/uIoIwEjizjMBqDx6RD0E4NnrL/LS63t1v1OSDxqE4NOTPCHJdyX5WZJwK7XpWMRgczlIQo8t/3bbODu08GWddiBudCM7VMc/rhoCMJK480wAKo8eUU8B2OX7/Nkkr5ukScIjkzx2LQnttMifMSfhRuvXZqd6bL9vSsK/WZ/d4EjCLlvo7bynHS3okYNdGrnsixy64x9XAQEYSdx5JgCVR4/opgVgl+/8UmtJeGCSR6wl4auSPHUtCb/TqVhctp37e5+iPFeOTRJ+M0k7BZIk7LJlHu49ixCAm+r4R8wEYCRx55kAVB49ojkKwC7L1SThdZI8YC0Jj1mf3TDXzsb3WqZMXCYJr+GyzLtsrpe+Z9YCcNMd/0iLAIwk7jwTgMqjR7RUAThv2XW0y+xol7zezpOEdpXPNnGRJJy3td59fZYCcFsd/4iFAIwk7jwTgMqjR0QAph3m160nLj7LxMUbGVJdcud/le++bbiBJNypYrMSgNvu+MfCTgBGEneeCUDl0SMiAFMBaMVo89EmLr7exsTFs2c3PM+cBKLQKQc2JaHdH6RNXDwFSZiVAJwtAJvF4CZ/JwCVNgGoPHpEBOByAdiF83h2Q5u46OyGKdOr7Cl778X8jlESCMCWKkMAKhQCUHn0iAjAtNgeagdgnLg4nt3QJi46u2HKnwDsz6RJwk+uz25YwpEEArClmhOACoUAVB49IgIwLbaHEoBd1tdLbpzd0C6wpDPE4FA5MCdJIABbqgMBqFAIQOXRIyIA0w7mNgVgc5322P4P1Xlod5o3x8hklIQnJnmPJG2o6xAPArCFao8C8M5b2l3qSwSg/5ojANNCfkwC8DHDXR8fkuSjknzecHThG5P80HDthF8cbh/9x44wOMJyxRz4wyRfnuTFO5ciArAFKAGoUAhA5dEjIgDHLQAX7QC86HAZ5ldM8mbDvRrefbgM80cPe3ifP5zx8M3DGQ8/PNzP4ZeH20e3Gz0d456tZdpvvf54klfrUYDWbRCALTAJQIVCACqPHhEBmBbCYzoCcJEA7JI/90jySkneIsnDknxski9I8qQk/ynJryR5IUk4SUn6peGoUpvY2uNBALZQJAAVCgGoPHpEBIAA7JtHL5bklZPcP8l7Jvm4JF+U5FuS/EiSXyMJRysI7YhRjwcB2EKRAFQoBKDy6BERAALQI48ua+MrHCU4Sglo80ja3T33fRCALQQJQIVCACqPHhEBIAA98uiyNnoIwB8Md4Zs1903fj8vBm2C6b4PArCFIAGoUAhA5dEjIgDTYtqK0Rwex7T99xCAdlnceya5b5K3TvLwJJ+Y5PFJnpzkx5I8hyTcuCB9TYeNhQBsgXhMBWDL4l35JQJwZWSXfoAAEIBLk6TDG3oJwC5fpUlCm6HeJOG915LwuCTftpaEXycJXSXhp3dZKZe8hwBsAUQAKhQCUHn0iAgAAeiRR5e1cZMCcNl3aX//M2tJeKsk75XkE5J88VoSftTExSsJQrti5b4PArCFIAGoUAhA5dEjIgAEoEceXdbG3ATgsu/b/t4k4VWTvOVaEj5+fXZDG2owD+EuAwKwSzZd4z0EoEIjAJVHj4gA3C1kY1E3B6BHZtU2ligAdQnuRo8iAEWACMDd3Oj6GwGoOAlA5dEjIgAEoEceXdYGAah51jrNpw1XYPzZ4QqMz1u4UBCAy7L/mn8nABUcAag8ekQEoBbmdhTAEYAemVXbIAA1z9o9GTYf7Yp67Xz68VbRj13QraIJwOaa7Pg7AagwCUDl0SMiALUwE4AeWTVtgwDUPDsrAFNi01eaJLxOkgcMN3N6xHB1xcck+cokTx1u+PTMJP/rlo4kEIDpuuryCgGoGAlA5dEjIgC1MBOAHlk1bYMA1Dy7jgBMqU5feckkr53kHZN84HAzp0cnaey/M0k7Xe+5B5AEAjBdD11eIQAVIwGoPHpEBKAWZgLQI6umbRCAmmeHEoAp+ekr907yV5K8w3BL6E/rIAQEYMq4yysEoGIkAJVHj4gA1MJMAHpk1bQNAlDz7DYFYHPtzGX7dx2AzbWy/p0AVCgEoPLoEc2lAPRYltZG68D3/TEJsNfauNsOAah5SQDu5kb7jQBUHquIAFQoBKDy6BERgFqYHQHokVXTNghAzTMCUHOEAFQeq4gAVCgEoPLoERGAWpgJQI+smrZBAGqeEYCaIwSg8lhFBKBCIQCVR4+IANTCTAB6ZNW0DQJQ84wA1BwhAJXHKiIAFQoBqDx6RASgFmYC0COrpm0QgJpnBKDmCAGoPFYRAahQCEDl0SMiALUwE4AeWTVtgwDUPCMANUcIQOWxighAhUIAKo8eEQGohZkA9MiqaRsEoOYZAag5QgAqj1VEACoUAlB59IgIQC3MBKBHVk3bIAA1zwhAzRECUHmsIgJQoRCAyqNHRABqYSYAPbJq2gYBqHlGAGqOEIDKYxURgAqFAFQePSICUAszAeiRVdM2CEDNMwJQc4QAVB6riABUKASg8ugREYBamAlAj6yatkEAap4RgJojBKDyWEUEoEIhAJVHj4gA1MJMAHpk1bQNAlDzjADUHCEAlccqIgAVCgGoPHpEBKAWZgLQI6umbRCAmmcEoOYIAag8VhEBqFAIQOXRIyIAtTATgB5ZNW2DANQ8IwA1RwhA5bGKCECFQgAqjx4RAaiFmQD0yKppGwSg5hkBqDlCACqPVUQAKhQCUHn0iAhALcwEoEdWTdsgADXPCEDNEQJQeawiAlChEIDKo0dEAGphJgA9smraBgGoeUYAao4QgMpjFRGACoUAVB49IgJQCzMB6JFV0zYIQM0zAlBzhABUHquIAFQoBKDy6BERgFqYCUCPrJq2QQBqnhGAmiMEoPJYRQSgQiEAlUePiADUwkwAemTVtA0CUPOMANQcIQCVxyoiABUKAag8ekQEoBZmAtAjq6ZtEICaZwSg5ggBqDxWEQGoUAhA5dEjIgC1MBOAHlk1bYMA1DwjADVHCEDlsYoIQIVCACqPHhEBqIWZAPTIqmkbBKDmGQGoOUIAKo9VRAAqFAJQefSICEAtzASgR1ZN2yAANc8IQM2RoxKAeyR58bp814qWIgBtWdsyH/pBAPoTJgC1MBOA/jnWWiQANc8IQM2zxQvA/ZM8LskPJfm9JC9I8swkX53kfeuy7hzNWQDaMrVla8vYlrUtc1v2xqCxOMSDAPSnSgBqYSYA/XOstUgAap4RgJpnixWAtvf7eUlemLqCWyHZ/Hl6klesy3xpNEcBaMvQlmVz2c7+3lg0Jj2OgmxCIgCbNPr8TgCmudyK0Rwec9z+r8uFANQ8IwA1kxYpAC+b5FmXdIabnePvJHnzutwXRnMrAO27t2XYXKaLfm9sGqNeDwLQi+TddgjANJ8JwN386PUbAah5RgBqZi1SAL72Cp3h2FH+QpJ712U/N5qTALTv3L77uBy7PjdGvR4EoBfJu+0QgGlOE4C7+dHrNwJQ84wA1MxanAC8yzU6w7HTfHxd9nOjOQlA+87j97/qc2PV40EAelCsbRCAaV4TgJojPSICUPOMANSsWpwA/NgeHeKfJLlPXf6t0VwEoH3X9p2v2vGP72+sejwIQA+KtQ0CMM1rAlBzpEdEAGqeEYCaVYsSgHslef4eHWLrGB9Yl39rNBcBaN917Myv89xYNWb7PgjAvgSnnycA09wmANM82fcVAlDzjADUjFqUALzpnh1i60Q/uS7/1mguAtC+63U6/s3PNGb7PgjAvgSnnycA09wmANM82fcVAlDzjADUjFqUADyyQ4f4dXX5t0ZzEYD2XTc78+v83pjt+yAA+xKcfp4ATHObAEzzZN9XCEDNMwJQM2pRAvCoDh3iLgkwFwFo3/U6nf7mZxqzfR8EYF+C088TgGluE4Bpnuz7CgGoebZL/d+X+S6fn8v2TwC2rC0CUKEQgMqjRzSXAtBjWVobm9J53d8JQK+1cbcdAlBzkwDczY32GwGoPFYRAahQCEDl0SMiALUwN2kgAD0yq7ZBAGqeEYCaHwSg8lhFBKBCIQCVR4+IANTCTAB6ZNW0DQJQ84wA1BwhAJXHKiIAFQoBqDx6RASgFmYC0COrpm0QgJpnBKDmCAGoPFYRAahQCEDl0SMiALUwE4AeWTVtgwDUPCMANUcIQOWxighAhUIAKo8eEQGohZkA9MiqaRsEoOYZAag5QgAqj1VEACoUAlB59IgIQC3MBKBHVk3bIAA1zwhAzRECUHmsIgJQoRCAyqNHRABqYSYAPbJq2gYBqHlGAGqOEIDKYxURgAqFAFQePSICUAszAeiRVdM2CEDNMwJQc4QAVB6riABUKASg8ugREYBamAlAj6yatkEAap4RgJojBKDyWEUEoEIhAJVHj4gA1MJMAHpk1bQNAlDzjADUHCEAlccqIgAVCgGoPHpEBKAWZgLQI6umbRCAmmcEoOYIAag8VhEBqFAIQOXRIyIAtTATgB5ZNW2DANQ8IwA1RwhA5bGKCECFQgAqjx4RAaiFmQD0yKppGwSg5hkBqDlCACqPVUQAKhQCUHn0iAhALcwEoEdWTdsgADXPCEDNEQJQeawiAlChEIDKo0dEAGphJgA9smraBgGoeUYAao4QgMpjFRGACoUAVB49IgJQCzMB6JFV0zYIQM0zAlBzhABUHquIAFQoBKDy6BERgFqYCUCPrJq2QQBqnhGAmiMEoPJYRQSgQiEAlUePiADUwkwAemTVtA0CUPOMANQcIQCVxyoiABUKAag8ekQEoBZmAtAjq6ZtEICaZwSg5ggBqDxWEQGoUAhA5dEjIgC1MBOAHlk1bYMA1DwjADVHCEDlsYoIQIVCACqPHhEBqIWZAPTIqmkbBKDmGQGoOUIAKo9VRAAqFAJQefSICEAtzASgR1ZN2yAANc8IQM0RAlB5rCICUKEQgMqjR0QAamEmAD2yatoGAah5RgBqjhCAymMVEYAKhQBUHj0iAlALMwHokVXTNghAzTMCUHOEAFQeq4gAVCgEoPLoERGAWpgJQI+smrZBAGqeEYCaIwSg8lhFBKBCIQCVR4+IANTCTAB6ZNW0DQJQ84wA1BwhAJXHKiIAFQoBqDx6RASgFmYC0COrpm0QgJpnBKDmCAGoPFYRAahQCEDl0SMiALUwE4AeWTVtgwDUPCMANUcIQOWxighAhUIAKo8eEQGohZkA9MiqaRsEoOYZAag5QgAqj1VEACoUAlB59IgIQC3MBKBHVk3bIAA1zwhAzRECUHmsIgJQoRCAyqNHRABqYSYAPbJq2gYBqHlGAGqOEIDKYxURgAqFAFQePSICUAszAeiRVdM2CEDNMwJQc4QAVB6riABUKASg8ugREYBamAlAj6yatkEAap4RgJojBKDyWEUEoEIhAJVHj4gA1MJMAHpk1bQNAlDzjADUHCEAlccqIgAVCgGoPHpEBKAWZgLQI6umbRCAmmcEoOYIAag8VhEBqFAIQOXRIyIAtTATgB5ZNW2DANQ8IwA1RwhA5bGKCECFQgAqjx4RAaiFmQD0yKppGwSg5hkBqDlCACqPVUQAKhQCUHn0iAhALcwEoEdWTdsgADXPCEDNEQJQeawiAlChEIDKo0dEAGphJgA9smraBgGoeUYAao4QgMpjFRELc8IzAAAcp0lEQVSACoUAVB49IgJQCzMB6JFV0zYIQM0zAlBzhABUHquIAFQoBKDy6BERgFqYCUCPrJq2QQBqnhGAmiMEoPJYRQSgQiEAlUePiADUwkwAemTVtA0CUPOMANQcIQCVxyoiABUKAag8ekQEoBZmAtAjq6ZtEICaZwSg5ggBqDxWEQGoUAhA5dEjIgC1MBOAHlk1bYMA1DwjADVHCEDlsYoIQIVCACqPHhEBqIWZAPTIqmkbBKDmGQGoOUIAKo9VRAAqFAJQefSICEAtzASgR1ZN2yAANc8IQM0RAlB5rCICUKEQgMqjR0QAamEmAD2yatoGAah5RgBqjhCAymMVEYAKhQBUHj0iAlALMwHokVXTNghAzTMCUHOEAFQeq4gAVCgEoPLoERGAWpgJQI+smrZBAGqeEYCaIwSg8lhFBKBCIQCVR4+IANTCTAB6ZNW0DQJQ84wA1BwhAJXHKiIAFQoBqDx6RASgFmYC0COrpm0QgJpnBKDmCAGoPFYRAahQCEDl0SMiALUwE4AeWTVtgwDUPCMANUcIQOWxighAhUIAKo8eEQGohZkA9MiqaRsEoOYZAag5QgAqj1VEACoUAlB59IgIQC3MBKBHVk3bIAA1zwhAzRECUHmsIgJQoRCAyqNHRABqYSYAPbJq2gYBqHlGAGqOEIDKYxURgAqFAFQePSICUAszAeiRVdM2CEDNMwJQc4QAVB6riABUKASg8ugREYBamAlAj6yatkEAap4RgJojixKAh6WuzFY0rvrzZXX5t0YEoGIhAJVHj4gATLfdVozm8JjL9t+DBQGoeUYAalYtSgDue40O/6wgfHBd/q3RXApAS9az3/+q8aO2LuHVXiQAV+O1y7sJwDS3CcAumXO19xCAmmcEoObPogSgffXf3rNTfOO6/FsjAlCxEIDKo0dEAGphbmJLAHpkVm2DANQ8IwA1PxYnAN+0hwD8ZpJ71uXfGhGAioUAVB49IgJQCzMB6JFV0zYIQM0zAlBzZHEC8EpJnndNCXhIXfZzIwJQ0RCAyqNHRABqYSYAPbJq2gYBqHlGAGqOLE4A2td/5DUE4Il1uS+MCEDFQwAqjx4RAaiFmQD0yKppGwSg5hkBqDmySAFoi/DoJM/fUQTasMHL1OW+MCIAFQ8BqDx6RASgFmYC0COrpm0QgJpnBKDmyGIFoC3GGyb5iQsk4LeStFMHr/ogAJUYAag8ekQEoBZmAtAjq6ZtEICaZwSg5siiBaAtyosmef0kj0jSzvH/uiQfleT+SV6iLuvO0VwE4OsvkJtWMHf5+ZCdl/r8NxKA89lc9y8EYJq/rRjN4TGX7b8HCwJQ84wA1KxavADUxekTzaUAfMaOnfxFIvA2HZAQgA4QzzRBAGphdgTgTIJ0CglAzTMCUBOLAFQeq2guAvAuewrAC5O81Jblu+pLBOCqxC5/PwGohZkAXJ4z13kHAah5RgBqFhGAymMVzUUA/vKeAvCzW5btOi8RgOtQu/gzBKAWZgJwcb5c968EoOYZAaiZRAAqj1U0FwFoX+bb9pCAD9uybNd5iQBch9rFnyEAtTATgIvz5bp/JQA1zwhAzSQCUHmsojkJwMsnaVcwbAXyKj//PsmLbFm267xEAK5D7eLPEIBpPrdiNIfHnLb/fXkQgJpnBKBmFAGoPFbR3ArAg4brHrzgCgLQ7pfwqluW67ovEYDrkjv/cwSgFmZHAM7PlX3+QgBqnhGAmk0EoPJYRXMTgPal/kaSn9tBAp6c5BW2LNM+LxGAfeht/ywBqIWZAGzPk31fJQA1zwhAzSgCUHmsojkKQPti90rymCTfn+T/bsjAbyT5jiTvtWVZerxEAHpQrG0QgFqYCUDNj14RAah5RgBqZhGAymMVzVUANr/qPZLcL8mrbL54oN8JQH+wBKAWZgLQP8daiwSg5hkBqHlGACqPVbQEAdjytQ/2EgHoj5YA1MJMAPrnWGuRANQ8IwA1zwhA5bGKCECFQgAqjx4RAaiFmQD0yKppGwSg5hkBqDlCACqPVUQAKhQCUHn0iAhALcwEoEdWTdsgADXPCEDNEQJQeawiAlChEIDKo0dEAGphJgA9smraBgGoeUYAao4QgMpjFRGACoUAVB49IgJQCzMB6JFV0zYIQM0zAlBzhABUHquIAFQoBKDy6BERgFqYCUCPrJq2QQBqnhGAmiMEoPJYRQSgQiEAlUePiADUwkwAemTVtA0CUPOMANQcIQCVxyoiABUKAag8ekQEoBZmAtAjq6ZtEICaZwSg5ggBqDxWEQGoUAhA5dEjIgC1MBOAHlk1bYMA1DwjADVHCEDlsYoIQIVCACqPHhEBqIWZAPTIqmkbBKDmGQGoOUIAKo9VRAAqFAJQefSICEAtzASgR1ZN2yAANc8IQM0RAlB5rCICUKEQgMqjR0QAamEmAD2yatoGAah5RgBqjhCAymMVEYAKhQBUHj0iAlALMwHokVXTNghAzTMCUHOEAFQeq4gAVCgEoPLoERGAWpgJQI+smrZBAGqeEYCaIwSg8lhFBKBCIQCVR4+IANTCTAB6ZNW0DQJQ84wA1BwhAJXHKiIAFQoBqDx6RASgFmYC0COrpm0QgJpnBKDmCAGoPFYRAahQCEDl0SMiALUwE4AeWTVtgwDUPCMANUcIQOWxighAhUIAKo8eEQGohZkA9MiqaRsEoObZIQXgpZO8ZpK3SPKuST44yack+YLh9ScOrz99eP0nh9d/Jckfpn6vlv9X/Xn2dHVf+RUCsAUZAahQCEDl0SMiANOC14rRHB7HtP0TgJpnVxGAl9no0N9to0P/wi0d+vOv0YFftcM/+34CcKBqcUwFoAciAtCDYm2DANTC3IobAag50iMiADXPnrbeQz+vQ3/Geg/9Njr0sx38ZTEB6LGFbGmDAFQoBKDy6BERgFqYCUCPrJq2QQCmeXZZx7qUvxOAab53eYUAVIwEoPLoERGAaWF2BKBHZtU2liIAL5LkPkleJ8lbJ3lokkcleczw+uOH19uh+5+7hcPsc5YBAlBzvVtEACpKAlB59IgIAAHokUeXtXFbArBLh/4fho7+Z4aO/jlJXqBzNwnQHsBlm/Pt/J0A9OdOAAhA/6yatthLAHTo03y97aMDjgBM873LK44AVIwEoPLoERGAaUG1A9Ajs2obPQTg9+2hX3nv/Cbk4H/WVX2tqG1zPb5rl0YUgGutw4N/iAD0R0wApoXH9r9fnm07be2HOxX4Hp2ENqY5vw+T790vXVafJgBbIDoCUKEQgMqjR0QApsWQANTM2tahtwvLbJ6HvqTT1vbp7Hx2ur18UU2Xa0UEYAs2AlChEIDKo0dEAKYF7dgFQIc+Xec69usz+cAOhYgAbIFIACoUAlB59IgIwLTwHZMAtMOz/zaJPfTpetbp78/k1ztdOIsAbKnmBKBCIQCVR4+IAEyL4G0KwIsm+QtJXjfJzxs37zKnS0c/zfFeTB7WowitJaLHd+qSMLdZADZ5EoBNGgkBqDx6RARgWhx7bv+bHfrbrC8s8+FJHru+sMw3Jfnu9Xnov2GWe5f63aMj0cZ0uzjL5Bt6FKB1G44AbIFJACoUAlB59IgIwLTQXSQAOvQpr7Mdg/i4Gf1xkk9K0q7J0OtBALaQJAAVCgGoPHpEBGBarD/OHro9ccMvkxz43STfmuQtexSeM20QgDNAWkgAKhQCUHn0iAjAVADswWJyajnwwiS/leRZSdrE0Scl+dKhwHzG8PpHDsNUbfjqxXoUnHPaIABbwBCACoUAVB49oiUIQCsOrzXMZr//MJu93T71Q5J86vo89K/fmOX+q/baJnttp9aRWd478nZZh94m773d0NHfb+joXy5JG9q6zQcB2EKfAFQoBKDy6BHdhgBcpUP/I526Tl0OZGkd+lVr06wE4POSvMpVl+AA7ycAFSoBqDx6RD0E4JevsIeuQ3d43V56jr5Dv2ptmpUAtARtt4X8lvXYx1UXptf7CUAlSQAqjx5RDwFQ0HXqp54Dx76H3qPWXNTG7ARgM6FbR/xBSV7ioiU4wN8IQIVKACqPXaKzp629e5LxPPQvSfI0h1cdYpcDkxzQoe9SXfq9Z9YCMMrAb+fOxWhuaniAANQEIwB3JuuMV4p72yRnO/TxwjI/O3T0Lixjz3ysXaf+3Dr037xglvvcJsXVynf80SIEYNyIbmp4gADUxD9GAdjcQ9/s0D99uCRs20NvHfr3DB29Dl1nPtYfz3fG0Dc79G/eOG3tI4aOfuzQX28ms9xrJROdJbAoAdjcAA85PEAAapockwD8H3vok8Oum9uV309LeM7uoevQa+079mixAjAWqkMMDxCAmvbHJABj3ng+rY7uVNa3Dr3WLtH5BO6VpNdk5Fvfq+g5PEAAatIQAJ3lqXSgc1tOHXqtRaLdCNwjySuvL+L1nkk+PskXJ/m2JD+2Pgr6Jx0nod66AGxuuPsODxCAmmQEgABsbl9+v34+6NBrbRFdnUC7GdBfTPLXkzw4yT9I8rlJvjHJDw1nzrXrg7Qd4pvcTm/0n+26YNcdHiAANSkJwM1uTLvmt/fd/nrRoddaIdqfwMsOe+pvOOyp/50kj0ryWUm+dn2vgP+e5A9vuHPfpc7MUgDGL37V4QECUJOYANx+RzPmsufDrovNDr2dBTJOimtnh4yz3NtZI2a51xoh2o3ASw576q8z7Kk/MMkjh4685dU/X99X4z8Ph+r/7ww7911qzuqUqV3eeNvv2WV4gADUZCYAh+10bnubOOb/r0Ov27LocATuOeypv/pw+nATxPdN8inDofovHw7Vf8dwqP6nh0P1/2uhnfsu9WFF9Q2SPCHJ7y9gQS8aHiAAdSMhAARglyJwE+/RoddtU3QzBNqkuldK8hZJ3iPJx52ZVPecJD0n1d3EttTzf5S18OeTfFKSX1yACGwbHiAAZXWGABCAnsVisy0det3WRDdPoE2qe/kkb5LkQUn+/plJdb90C5PqNreRJfy+da01a3poku9bgAg0yOPwwM91+L7vvJXIMl+ciwB8QIf1soSNacnfUYe+zG38mL91u9hNOzr9t89MqmtzPP7bTCfVLa0GXJo/bVZjm+ywhOGBHvAJQN1rbhKx7+ONCMCNT7bVoe+btT5/SAL3TvLaSR5wZlLd04dD9W1Hrl35s0c918bFHHdex/dZ0PDAPiudANSE6SEA7YjS79mg9ypoY4fe7nEwznJv9z4wy33nEuaNN0SgTaq77/rW8OOkui8bDtV/+/po7XPVgr1qwT7929nPXjklWjF/yPrcxrONHUNMAPoLQEuyH7DRl43+sg693bVwPG2t3c2w3QTJA4HbJtDq/yuemVT3RcOh+m8dDtX/aJJfP/FJdUvrA/fKpzY8sJSzB3ZdMQTgMALwdrlzR7Jd18PS3qdD36uU+PBMCLzcmUl1nzMcqv+G4VD9D64nh/8xkS8iv7Q6dfb7dkm7JZ09cBbA2ZgAHEYAWqL9kwUVDx16l9KgkRkR2JxU92FJPnM4VP81w6H6707yC8MQ7x8saPs8W7fFtW7vyqNreh7D8AABqInUYw7AmGR/5hbPLNGhj2vB8zES2JxU94jhMPxj10dnvyvJs5L8b537Ue2579rBX/a+g20LSx0eIACHE4CWbE0S200wfnfPgqRDP9imq+GZEWjiPE6qe5/h9LdPTvKlSZ6S5BlJ2sXRLiv0/o7Rthw4eKq34YFPXMjFhRqgf5fkHQ5O5Wb+wVyuA7Btaf/yOi/anbD+6/rw428mOW+Wu0lx2yh6bekE2uTONqnuzYc99YcNe+ofm+QLk3xLkh9J8msm1ZGbPQSv1dSfSPLkJI8bzsb6hCTvNfRzb5nkVW5y4xmHB9opTNtMZG6v/cyw8X1oknZobamPOQvAUpn63ghchUCbVPfGw576uw176n8vyWcn+Vfrs2LaFVdNqltGfzC3/ql9n98Zzsh7ZpLvTPIVQy59WpL3H4ZZ3z7JayZ58ask6k2+d0n3Hmg3gmj3bH61mwTU6X8RgE4gNYPAFgIvM+ypv/6wp/631jsL/3ioE1+d5D+YVLeInbw5durjd2rXTfkv6yPS/yLJP0zywUn+5vqOln92Sz4u7qVxeODZCzgq0Mac//XChgcIwOI2CV94JgReYthT/yvDnvo7JvnA4RTWxyT5qiRPM6lO575nf/X8YU/9f6wnRD8xyT9d37L6XYZD9e2qqa1fPKlHGx548PoKZ6MBzfl5KcMDBOCkNiMLuyOBNqmuHdF76yQPX1/htF1V0aQ6h+P37XfajuKvDHvq/3HYU//mJJ8/HKr/qPXF8/7GcKj+FYa9+XYTI49zCLThgWbaS7j3wNyHBwjAOUnm5aMl0CbVtQmmbzZMKG0TRz8myRecmVTXivS+hd7nT5PhZZPqXuxot6wbXrB2GKTNWDQ8cH3wBOD67HxyngTaZZH/WpJ3TfKRZybVtVrxRzp3cnPNHFjspLp5bqp9vtU4PNCuVrUE657T8AAB6JODWrkZAi+d5H5J2rU4PmS4ZsTmpLqfX8hRwSXUqFP8jicxqe5mNtPb+y/j8MAS7iw3h+EBAnB7ueo/VwJtUt1rrSfRfsCZSXXt2g/7XhjqFDs1y3xnp9CkurqtHX30soYHdlrHBGAnTN60J4E2qe5Vk7zVmUl1/2Y4VP+Tw6H631rI0Tsd6vyOsppUt+fGecwfb8MDD1rfzGIJG+9NDw8QgGPO/ptZtjap7i8ledMzk+qeNByq/0/DofpfPfK7PC6hriz5O5pUdzPb8dH/l3ZBjq8cjgwYHri7qgnAXRZ+207gPsP1Lf7qxqS6ljNfPxyq//4k/9OkukXMO5qrAJhUt32b8+oBCYzDA614zXXDGL/XoS8uRAAOmGgLaLpdLWxzUt0/Gg7V/8vhUP2/X99/YQmn2o7biud51TOT6hZQAE75K7ZDl6c+PEAAjncLaNf53pxU9+j1EbCnJmlDTc9bgADr1OfVqY/rw6S6460bJ7lkpzo8QACWme7tYiLjpLr3Xt818fHrS1G3O3u1cdOxWHvG4io5YFLdMmuCb92BQBse+Pj12OZVNprbeG+P4QEC0CFpOjfRLgM6Tqp76LCn/tHry4W2y4a2y4e2y4i2dX8bOed/Lp+7SXWdN1jNHR+BcXig3bVrCUXvumcPEICbz91xUl27scdHrG/00W748X3rG4C4Ut0ytrk51gWT6m5+e/Yfj5zAMQ8PEIC+ydsm1b3e+pac7dac7Rad7Vad/259684lnIEyx47Nd7pz9tLR3/617+aoNQT6ETjG4QECsHt+tEl1rznsqb/9sKf+/kk+bbhz11ck+c7hTl7PNKluEUfK5ioSJtXtvh16JwK3SuCYhgcIwJ1UapPqXmXYU3/LYU/9vdZXkXzccO/tJyf5cZPqdO57DAWaVHer5do/R+BwBJY+PHAKAtAm1bV7bLd7bT9kfe/tz0vyTRuT6l6wR4Gf616l73UzcwlMqjtcfdUyAosgsNThgWMQgHZb6Dca9tT/bpIPT/JPknzdxqS6dnhVZ4jBdXLApLpFlF9fEoF5EBiHB5Zya+I/7NA5Nok41OOlhj31103yTkk+aPgnn2FSHZnpkLNNBlyp7lBbrXYRQCBLGh64zt7R+JnrCsC9hj3110jydkneb7im/KeemVTX9r7G/+EZi6vkwHmT6tpRona0qB018kAAAQQOTmBJ9x64SpEd37tNANpdGF85yf2TvOeWSXW/keRPdPAE5xo5cHZSXZvP8VHr+R1tnkeb79HmfXgggAACsyGwtFsTjx38Zc/fk2ScVPfDw6H6X05iUp099svy5ry/t0l17cyLdgZGOxPjE9ZnZrQzNNqZGu2MDQ8EEEBgsQROZXjgvCLv9dMUBJPqFluyfHEEEOhNYBweePY1DoXqRE+zE53rejeprnd10B4CCJwEgWMdHphrZ+V7XU2eTKo7iTJkIRFA4LYJtOGBr1qfpqSjulpHhdfVebX5Gu0Og+1Og+2OgybV3XYF8P8RQODkCRgeuHpnRgCmzEyqO/lSAgACCCyVQBseeHCSpVxcSCc87YQPxcSkuqVu1b43AgggcEUCb7AeHvh9kwaP/hx6k+quuHF4OwIIIHAKBNqVzNr50c4euLm97Z578SbVncJWahkRQACBAxIYhwfaxXh6dlDauj5Pk+oOmPCaRgABBBCYEjA8cP1O+yrCY1LdNPe8ggACCCAwAwJteOATDQ9c64iISXUzSGBfAQEEEEBgPwKGB+oRgcsm1bVbD3sggAACCCBwVASOfXjApLqjSlcLgwACCCDQm8AShwdMquudBdpDAAEEEDhZAnMaHjCp7mTT0IIjgAACCNwmgTY88IRh4uAhLi5kUt1trln/GwEEEEAAgR0IjMMDv7jjNQVMqtsBqrcggAACCCCwFAJteOAhSf5tku9L8sQk/zTJRyT5u0neKEmTBQ8EEEAAAQQQQAABBBBAAAEEEEAAAQQQQAABBBBAAAEEEEAAAQQQQAABBBBAAAEEEEAAAQQQQAABBBBAAAEEEEAAAQQQQAABBBBAAAEEEEAAAQQQQAABBBBAAAEEEEAAAQQQQAABBBBAAAEEEEAAAQQQQAABBBBAAAEEEEAAAQQQQAABBBBAAAEEEEAAAQQQQAABBBBAAAEEEEAAAQQQQAABBBBAAAEEEEAAAQQQQAABBBBAAAEEEEAAAQQQQAABBBBAAAEEEEAAAQQQQAABBBBAAAEEEEAAAQQQQAABBBBAAAEEEEAAAQQQQAABBBBAAAEEEEAAAQQQQAABBBBAAAEEEEAAAQQQQAABBBBAAAEEEEAAAQQQQAABBBBAAAEEEEAAAQQQQAABBBBAAAEEEEAAAQQQQAABBBBAAAEEEEAAAQQQQAABBBBAAAEEEEAAAQQQQAABBBBAAAEEEEAAAQQQQAABBBBAAAEEEEAAAQQQQAABBBBAAAEEEEAAAQQQQAABBBBAAAEEEEAAAQQQQAABBBBAAAEEEEAAAQQQQAABBBBAAAEEEEAAAQQQQAABBBBAAAEEEEAAAQQQQAABBBBAAAEEEEAAAQQQQAABBBBAAAEEEEAAAQQQQAABBBBAAAEEEEAAAQQQQAABBBBAAAEEEEAAAQQQQAABBBBAAAEEEEAAAQQQQAABBBBAAAEEEEAAAQQQQAABBBBAAAEEEEAAAQQQQAABBBBAAAEEEEAAAQQQQAABBBBAAAEEEEAAAQQQQAABBBBAAAEEEEAAAQQQQAABBBBAAAEEEEAAAQQQQAABBBBAAAEEEEAAAQQQQAABBBBAAAEEEEAAAQQQQAABBBBAAAEEEEAAAQQQQAABBBBAAAEEEEAAAQQQQAABBBBAAAEEEEAAAQQQQAABBBBAAAEEEEAAAQQQQAABBBBAAAEEEEAAAQQQQAABBBBAAAEEEEAAAQQQQAABBBBAAAEEEEAAAQQQQAABBBBAAAEEEEAAAQQQQAABBBBAAAEEEEAAAQQQQAABBBBAAAEEEEAAAQQQQAABBBBAAAEEEEAAAQQQQAABBBBAAAEEEEAAAQQQQAABBBBAAAEEEEAAAQQQQAABBBBAAAEEEEAAAQQQQAABBBBAAAEEEEAAAQQQQAABBBBAAAEEEEAAAQQQQAABBBBAAAEEEEAAAQQQQAABBBBAAAEEEEAAAQQQQAABBBBAAAEEEEAAAQQQQAABBBBAAAEEEEAAAQQQQAABBBBAAAEEEEAAAQQQQAABBBBAAAEEEEAAAQQQQAABBBBAAAEEEEAAAQQQQAABBBBAAAEEEEAAAQQQQAABBBBAAAEEEEAAAQQQQAABBBA4KQL/H0CBIlchlG0KAAAAAElFTkSuQmCC;" vertex="1" parent="1">
          <mxGeometry x="1480" y="718.64" width="57" height="57" as="geometry" />
        </mxCell>
        <mxCell id="Qk6iisqbKT5Qhv3eNS_e-120" value="" style="shape=image;verticalLabelPosition=bottom;labelBackgroundColor=default;verticalAlign=top;aspect=fixed;imageAspect=0;image=data:image/png,iVBORw0KGgoAAAANSUhEUgAAAgAAAAIACAYAAAD0eNT6AAAAAXNSR0IArs4c6QAAIABJREFUeAHt3Qe4PNFZ1/EfBBMICGIEUWooUkJRUErokCAWIIVQQk1oAVR6TwIqqHRI6PFRSpASIBogIRY6KDUQCCpYQg8lElRKIEHn7H+H/7539t679+7Ze2d2P/s899n77t09d+c777znO3POzCQeCCCAAAIIIIAAAggggAACCCCAAAIIIIAAAggggAACCCCAAAIIIIAAAggggAACCCCAAAIIIIAAAggggAACCCCAAAIIIIAAAggggAACCCCAAAIIIIAAAggggAACCCCAAAIIIIAAAggggAACCCCAAAIIIIAAAggggAACCCCAAAIIIIAAAggggAACCCCAAAIIIIAAAggggAACCCCAAAIIIIAAAggggAACCCCAAAIIIIAAAggggAACCCCAAAIIIIAAAggggAACCCCAAAIIIIAAAggggAACCCCAAAIIIIAAAggggAACCCCAAAIIIIAAAggggAACCCCAAAIIIIAAAggggAACCCCAAAIIIIAAAggggAACCCCAAAIIIIAAAggggAACCCCAAAIIIIAAAggggAACCCCAAAIIIIAAAggggAACCCCAAAIIIIAAAggggAACCCCAAAIIIIAAAggggAACCCCAAAIIIIAAAggggAACCCCAAAIIIIAAAggggAACCCCAAAIIIIAAAggggAACCCCAAAIIIIAAAggggAACCCCAAAIIIIAAAggggAACCCCAAAIIIIAAAggggAACCCCAAAIIIIAAAggggAACCCCAAAIIIIAAAggggAACCCCAAAIIIIAAAggggAACCCCAAAIIIIAAAggggAACCCCAAAIIIIAAAggggAACCCCAAAIIIIAAAggggAACCCCAAAIIIIAAAggggAACCCCAAAIIIIAAAggggAACCCCAAAIIIIAAAggggAACCCCAAAIIIIAAAggggAACCCCAAAIIIIAAAggggAACCCCAAAIIIIAAAggggAACCCCAAAIIIIAAAggggAACCCCAAAIIIIAAAggggAACCCCAAAIIIIAAAggggAACCCCAAAIIIIAAAggggAACCCCAAAIIIIAAAggggAACCCCAAAIIIIAAAggggAACCCCAAAIIIIAAAggggAACCCCAAAIIIIAAAggggAACCCCAAAIIIIAAAggggAACCCCAAAIIIIAAAggggAACCCCAAAIIIIAAAggggAACCCCAAAIIIIAAAggggAACCCCAAAIIIIAAAggggAACCCCAAAIIIIAAAggggAACCCCAAAIIIIAAAggggAACCCCAAAIIIIAAAggggAACCCCAAAIIIIAAAggggAACCCCAAAIIIIAAAggggAACCCCAAAIIIIAAAggggAACCCCAAAIIIIAAAggggAACCCCAAAIIIIAAAggggAACCCCAAAIIIIAAAggggAACCCCAAAIIIIAAAggggAACCCCAAAIIIIAAAggggAACCCCAAAIIIIAAAggggAACCCCAAAIIIIAAAggggAACCCCAAAIIIIDAiyR59yTfn+RpSb4syccleXCSN0zykhAhgAACCCCAwPEQaB3/Q5M8M8n/u+TnOUl+KMnXDu/79CTvm+QtBll4+ePBYUkQQAABBBA4bgJX6fgvE4P29/+T5KeGowXfNhwt+Nwkjxpk4YGDLLx6khc7bpSWDgEEEEAAgfkT6N3x7yIHfzwcLfhvw9GCp28MLTwoyRsYWph/wviGCCCAAALLJnAbHf8uctDeY2hh2bnl2yOAAAIIzJDAnDv+XQRhHFr41iSfY2hhhhnmKyGAAAIIzIrA0jv+XeTA0MKsUs6XQQABBBC4TQKn0PHvIgftPb/urIXbTEX/GwEEEEDgJgjo+C8/jXFTHM4OLXxYkgesz1q4x02sMP8DAQQQQACBfQiMHf9PX3IO/2bn5/eLZcHQwj4Z6bMIIIAAAgcloOO/uBM/pOS0oYUfTPI1Loh00BzXOAIIIIDABgEd/+11/LtIxXlDC/dNYmhhI5H9igACCCCwGwEd/7w7/l3koA0t/IILIu2W8N6FAAIInDoBHf/yO/5d5KC9Z3No4bGDLLxPkjd3r4VTLwGWHwEETo2Ajv90Ov5dBOF/r++1MF4QaTxrwdDCqVUGy4sAAkdLQMev499FCDbf80froYXvSvKl69s4u9fC0ZYIC4YAAsdGoHX8D0nidD4CsNm59/j9vKGFlzu2jcjyIIAAAksioOPX4ffo5K/bhqGFJVUL3xUBBI6CwNI7/l9N8otJXugCRLlu5zv3z50dWvjYJO+2vo3zvY9iK7QQCCCAwA0SWHrHP3Za/2zN7F5JXjvJ307y95N8UZJvT/JzSf6AHBytHLQ8MLRwg4XDv0IAgeUSOJaO/6wAXLRG2jK/YpK3GY4WPCLJZw6y8A2DLPzoIAvPJQdHLQdtaOEZSb5lfRtnZy1ctKX4GwIIHCWBY+v4ryIAl63QPzccLXiT4WjBeyT55EEWnjDIwncbWjhqMWj5c97QwusPsmBo4bKtxt8RQGD2BObc8bfL1Y4d+XWfxyGAQ62Ie54ztPAsQwt7r7vrrvOb+pyhhUNtVdpFAIGDEphzx/8D61vets5732J+aAG4aCUZWth//e27/m/r85tDC5+d5EOTvONwYyYXRLpoi/E3BBA4KIEldPwjgKULwLgc5z23oYU3TvIwQwt7i95tdfTX+b+GFs7bIryOAAIHIbCkjn8EcOwCMC7ntuezQwtfOMjCUwZZMLRw/EcVfm04WtCOgn11ks17Lbgg0rYtxWsIIHAugSV2/OPCnLIAjAy2Pbd1+krOWjipowbjkYbzhhZezW2ct20qXkPgNAmMHf9PdRhHH4tPr+dxjP+yNUMALiO0/e+bZy18yiAL/9xZCychC4YWtm8PXkXgZAgcQ8c/riwCMJLo9+yCSMc/hHCeqG8OLTwmycPXt3E2tNBv+9ISArdC4Jg6/hEgARhJ3MyzoYXTlQNDCzezjfkvCHQlcIwd/wiIAIwk5vFsaOE0BaENLfx8kqetb+M83mvBBZHmsV36FidIoHX8D06y5DH+y1YbAbiM0Hz+bmjhNOWgDTdsG1p4syR/YT7p6ZsgcBwETqHjH9cUARhJLPt5HFp4W/daOInJiJtzEH53414LmxdEctbCsrdp3/6GCZxSxz+iJQAjieN+3ja08D3utXD0srA5tPAlST5mfRtnQwvHvb1buisQOMWOf8RDAEYSp/tsaMHQQrsg0njWgqGF060FJ7Xkp9zxjyuaAIwkPG8jYGjhdOWgDS38ZJInJTG0sG3r8NoiCej47642AnCXhd+uTsDQwmkKwrahhXcdZOF+buN89Y3IJ26GgI5/ypkATJl4pQ8BQwunKQd/4qyFPhuQVvoQ0PGfz5EAnM/GXw5HwNDCacpBO3thc2ih1Z8PWd/G2VkLh9veTrJlHf/lq50AXM7IO26egKGF0xSEi4YWXuLm09B/XCIBHf/ua40A7M7KO+dBwNDCacpBG1r41STfv76Ns7MW5rE9zuZb6PivvioIwNWZ+cR8CRhaOE05OG9o4R2SvKrbOM93g+3xzXT816dIAK7PzieXR8DQwmkKgqGF5W2rl35jHf+liC59w5wFoB3q/fAkT0jylCQ/muTHkjw5yeOSfGKS907y1sMhwTaB6J6XLq03IHA+AUMLpykHm0ML/zLJo9e3cXZBpPO3lVv9y9jxPyPzS9gfSPKAW6VztX8+RwG4R5IPSvJLV1y/bUN+zgWScF+ScLXk8O4/JbA5tPDIJJ+Z5BvWUvrcK+bp5nX8/T6/Gn52nWw7a2EcWnjRP80QvxycgI6/P+I5CsDXHrCgkoT+OaTF5LyhhSaxLzxgPp/trMQ3KxTPH45C/tf1bZzHey2MF0Ry1kKnytA6/get73g1twRf2h7/2VUyNwFoM3tvex2fJwkPXw83OJJwNovEFxEwtHD72/Rt1JRtQwttyPJN3cb5os3l7t90/HdZHOq3OQlAGzppG81tbKxX/Z9nJeHx6zkJJOFQmXqc7RpaWMb2ftX6sMv7n7dxr4VWh9sFkQwtJJlzx99W7EceUS2akwA8cSGd/y4bd3sPSTiiDeWWFsXQwmkKwji08NQkbefiowdZOPqhhbl3/GPhf+dbKgaH+LdzEYA2g78Z8cj4VJ5HSfjx9dkNjiQcIsuPs01DC6dXL8Ydi/GCSONZC+PQwn2WmOpL6fjHTokA1A2vScS+jweeYOc/5tNlzyRh3+w6vc8bWqg16rJt7Jj+3nakfmJ9G+dZDy0sreMfk4QA1I2rhwB8MAHY6+jHRZLwNklMXDw9CbhoiQ0t1Bo21vZjf942tPAuSV4vyY2dtbDUjn9MDgJQN54eAvAoArCXAIy5edEzSbioS/S3kYChhVrfLtqmjulvrT5sG1oY82Lv56V3/OPKJgB1AyEAlceYJ0t83iYJn7S+MpojCXuXwMU3YGjheLb1XevT3kl7LB3/CIwA1I2AAFQeY54c6zNJ2LskHm0DhhaOrxZcO1mPreMfCzoBqElOACqPMU9O+XlTEv71+lQmRxKuXUqP4oOGFpZZJ66cfHPu+HtclpMA1EQmAJXHKXf8V1n2Jgm/kaSdAkkSrlxmj+oDZ4cWPsu9Fg4+J2jXbXXnRJtzx/+9Sd5uuKTwT3WYbEYAaodHACqPXTcs77uc22WS8Opu8LRzfV7yGw0tXL6tHKqeXJo3S+j4x4UgACOJO8+t8943cQjA/gz3XQen/HmSULfpU4sMLRy2/pybT0vq+MeFIAAjiTvPBOCwG88pd8xzWvbzJOF9krSzG9qRhNaReBwXAUML+9e3SUYsseMfF4IAjCTuPBOA/TeQOXV0vsv11+dZSWi3d20TF0lCrRnHFBlauHx7+dP1veSOf1wIAjCSuPN8TALwtPU8j/dN8ilJvjTJU9Z33PqtDkMdOtfLi8WxMyIJtX4cc2Ro4c72Puu7842T+3ZNRAJQSR2TAHxjXbRJ9OJJXjPJ2yd5vySfmuTLk3z7enLob5OEveeDHLsA7LJ8oyS067G3sxscSZhsiot/4ZSGFvKMGRbGq3b8Y8YRgJHEnedTEoC65Nujdj3s11rfl/sDknxakq9I8h1JfjrJc2e4LezSKXnPvI5ekITt29+xvHpMQwuz2iu4bsc/JhYBGEnceSYAlccu0b2Hc5RfO8k7JvnAJI9O8pVJvjPJM0/0tsYEo79gXCQJb2vi4i6b6izfs7ShhVkIwL4d/5gJBGAkceeZAFQePaK/6ijBLGrGKUgJSeixxc6njTkOLdzqxtyr4x9XMQEYSdx5JgCVR4+ohwC8IMnvEolbrT3HIhDbJOGT12c3OJLQY4u/uTZuY2jhVjbC3h3/uIoIwEjizjMBqDx6RD0E4NnrL/LS63t1v1OSDxqE4NOTPCHJdyX5WZJwK7XpWMRgczlIQo8t/3bbODu08GWddiBudCM7VMc/rhoCMJK480wAKo8eUU8B2OX7/Nkkr5ukScIjkzx2LQnttMifMSfhRuvXZqd6bL9vSsK/WZ/d4EjCLlvo7bynHS3okYNdGrnsixy64x9XAQEYSdx5JgCVR4/opgVgl+/8UmtJeGCSR6wl4auSPHUtCb/TqVhctp37e5+iPFeOTRJ+M0k7BZIk7LJlHu49ixCAm+r4R8wEYCRx55kAVB49ojkKwC7L1SThdZI8YC0Jj1mf3TDXzsb3WqZMXCYJr+GyzLtsrpe+Z9YCcNMd/0iLAIwk7jwTgMqjR7RUAThv2XW0y+xol7zezpOEdpXPNnGRJJy3td59fZYCcFsd/4iFAIwk7jwTgMqjR0QAph3m160nLj7LxMUbGVJdcud/le++bbiBJNypYrMSgNvu+MfCTgBGEneeCUDl0SMiAFMBaMVo89EmLr7exsTFs2c3PM+cBKLQKQc2JaHdH6RNXDwFSZiVAJwtAJvF4CZ/JwCVNgGoPHpEBOByAdiF83h2Q5u46OyGKdOr7Cl778X8jlESCMCWKkMAKhQCUHn0iAjAtNgeagdgnLg4nt3QJi46u2HKnwDsz6RJwk+uz25YwpEEArClmhOACoUAVB49IgIwLbaHEoBd1tdLbpzd0C6wpDPE4FA5MCdJIABbqgMBqFAIQOXRIyIA0w7mNgVgc5322P4P1Xlod5o3x8hklIQnJnmPJG2o6xAPArCFao8C8M5b2l3qSwSg/5ojANNCfkwC8DHDXR8fkuSjknzecHThG5P80HDthF8cbh/9x44wOMJyxRz4wyRfnuTFO5ciArAFKAGoUAhA5dEjIgDHLQAX7QC86HAZ5ldM8mbDvRrefbgM80cPe3ifP5zx8M3DGQ8/PNzP4ZeH20e3Gz0d456tZdpvvf54klfrUYDWbRCALTAJQIVCACqPHhEBmBbCYzoCcJEA7JI/90jySkneIsnDknxski9I8qQk/ynJryR5IUk4SUn6peGoUpvY2uNBALZQJAAVCgGoPHpEBIAA7JtHL5bklZPcP8l7Jvm4JF+U5FuS/EiSXyMJRysI7YhRjwcB2EKRAFQoBKDy6BERAALQI48ua+MrHCU4Sglo80ja3T33fRCALQQJQIVCACqPHhEBIAA98uiyNnoIwB8Md4Zs1903fj8vBm2C6b4PArCFIAGoUAhA5dEjIgDTYtqK0Rwex7T99xCAdlnceya5b5K3TvLwJJ+Y5PFJnpzkx5I8hyTcuCB9TYeNhQBsgXhMBWDL4l35JQJwZWSXfoAAEIBLk6TDG3oJwC5fpUlCm6HeJOG915LwuCTftpaEXycJXSXhp3dZKZe8hwBsAUQAKhQCUHn0iAgAAeiRR5e1cZMCcNl3aX//M2tJeKsk75XkE5J88VoSftTExSsJQrti5b4PArCFIAGoUAhA5dEjIgAEoEceXdbG3ATgsu/b/t4k4VWTvOVaEj5+fXZDG2owD+EuAwKwSzZd4z0EoEIjAJVHj4gA3C1kY1E3B6BHZtU2ligAdQnuRo8iAEWACMDd3Oj6GwGoOAlA5dEjIgAEoEceXdYGAah51jrNpw1XYPzZ4QqMz1u4UBCAy7L/mn8nABUcAag8ekQEoBbmdhTAEYAemVXbIAA1z9o9GTYf7Yp67Xz68VbRj13QraIJwOaa7Pg7AagwCUDl0SMiALUwE4AeWTVtgwDUPDsrAFNi01eaJLxOkgcMN3N6xHB1xcck+cokTx1u+PTMJP/rlo4kEIDpuuryCgGoGAlA5dEjIgC1MBOAHlk1bYMA1Dy7jgBMqU5feckkr53kHZN84HAzp0cnaey/M0k7Xe+5B5AEAjBdD11eIQAVIwGoPHpEBKAWZgLQI6umbRCAmmeHEoAp+ekr907yV5K8w3BL6E/rIAQEYMq4yysEoGIkAJVHj4gA1MJMAHpk1bQNAlDz7DYFYHPtzGX7dx2AzbWy/p0AVCgEoPLoEc2lAPRYltZG68D3/TEJsNfauNsOAah5SQDu5kb7jQBUHquIAFQoBKDy6BERgFqYHQHokVXTNghAzTMCUHOEAFQeq4gAVCgEoPLoERGAWpgJQI+smrZBAGqeEYCaIwSg8lhFBKBCIQCVR4+IANTCTAB6ZNW0DQJQ84wA1BwhAJXHKiIAFQoBqDx6RASgFmYC0COrpm0QgJpnBKDmCAGoPFYRAahQCEDl0SMiALUwE4AeWTVtgwDUPCMANUcIQOWxighAhUIAKo8eEQGohZkA9MiqaRsEoOYZAag5QgAqj1VEACoUAlB59IgIQC3MBKBHVk3bIAA1zwhAzRECUHmsIgJQoRCAyqNHRABqYSYAPbJq2gYBqHlGAGqOEIDKYxURgAqFAFQePSICUAszAeiRVdM2CEDNMwJQc4QAVB6riABUKASg8ugREYBamAlAj6yatkEAap4RgJojBKDyWEUEoEIhAJVHj4gA1MJMAHpk1bQNAlDzjADUHCEAlccqIgAVCgGoPHpEBKAWZgLQI6umbRCAmmcEoOYIAag8VhEBqFAIQOXRIyIAtTATgB5ZNW2DANQ8IwA1RwhA5bGKCECFQgAqjx4RAaiFmQD0yKppGwSg5hkBqDlCACqPVUQAKhQCUHn0iAhALcwEoEdWTdsgADXPCEDNEQJQeawiAlChEIDKo0dEAGphJgA9smraBgGoeUYAao4QgMpjFRGACoUAVB49IgJQCzMB6JFV0zYIQM0zAlBzhABUHquIAFQoBKDy6BERgFqYCUCPrJq2QQBqnhGAmiMEoPJYRQSgQiEAlUePiADUwkwAemTVtA0CUPOMANQcIQCVxyoiABUKAag8ekQEoBZmAtAjq6ZtEICaZwSg5ggBqDxWEQGoUAhA5dEjIgC1MBOAHlk1bYMA1DwjADVHCEDlsYoIQIVCACqPHhEBqIWZAPTIqmkbBKDmGQGoOUIAKo9VRAAqFAJQefSICEAtzASgR1ZN2yAANc8IQM2RoxKAeyR58bp814qWIgBtWdsyH/pBAPoTJgC1MBOA/jnWWiQANc8IQM2zxQvA/ZM8LskPJfm9JC9I8swkX53kfeuy7hzNWQDaMrVla8vYlrUtc1v2xqCxOMSDAPSnSgBqYSYA/XOstUgAap4RgJpnixWAtvf7eUlemLqCWyHZ/Hl6klesy3xpNEcBaMvQlmVz2c7+3lg0Jj2OgmxCIgCbNPr8TgCmudyK0Rwec9z+r8uFANQ8IwA1kxYpAC+b5FmXdIabnePvJHnzutwXRnMrAO27t2XYXKaLfm9sGqNeDwLQi+TddgjANJ8JwN386PUbAah5RgBqZi1SAL72Cp3h2FH+QpJ712U/N5qTALTv3L77uBy7PjdGvR4EoBfJu+0QgGlOE4C7+dHrNwJQ84wA1MxanAC8yzU6w7HTfHxd9nOjOQlA+87j97/qc2PV40EAelCsbRCAaV4TgJojPSICUPOMANSsWpwA/NgeHeKfJLlPXf6t0VwEoH3X9p2v2vGP72+sejwIQA+KtQ0CMM1rAlBzpEdEAGqeEYCaVYsSgHslef4eHWLrGB9Yl39rNBcBaN917Myv89xYNWb7PgjAvgSnnycA09wmANM82fcVAlDzjADUjFqUALzpnh1i60Q/uS7/1mguAtC+63U6/s3PNGb7PgjAvgSnnycA09wmANM82fcVAlDzjADUjFqUADyyQ4f4dXX5t0ZzEYD2XTc78+v83pjt+yAA+xKcfp4ATHObAEzzZN9XCEDNMwJQM2pRAvCoDh3iLgkwFwFo3/U6nf7mZxqzfR8EYF+C088TgGluE4Bpnuz7CgGoebZL/d+X+S6fn8v2TwC2rC0CUKEQgMqjRzSXAtBjWVobm9J53d8JQK+1cbcdAlBzkwDczY32GwGoPFYRAahQCEDl0SMiALUwN2kgAD0yq7ZBAGqeEYCaHwSg8lhFBKBCIQCVR4+IANTCTAB6ZNW0DQJQ84wA1BwhAJXHKiIAFQoBqDx6RASgFmYC0COrpm0QgJpnBKDmCAGoPFYRAahQCEDl0SMiALUwE4AeWTVtgwDUPCMANUcIQOWxighAhUIAKo8eEQGohZkA9MiqaRsEoOYZAag5QgAqj1VEACoUAlB59IgIQC3MBKBHVk3bIAA1zwhAzRECUHmsIgJQoRCAyqNHRABqYSYAPbJq2gYBqHlGAGqOEIDKYxURgAqFAFQePSICUAszAeiRVdM2CEDNMwJQc4QAVB6riABUKASg8ugREYBamAlAj6yatkEAap4RgJojBKDyWEUEoEIhAJVHj4gA1MJMAHpk1bQNAlDzjADUHCEAlccqIgAVCgGoPHpEBKAWZgLQI6umbRCAmmcEoOYIAag8VhEBqFAIQOXRIyIAtTATgB5ZNW2DANQ8IwA1RwhA5bGKCECFQgAqjx4RAaiFmQD0yKppGwSg5hkBqDlCACqPVUQAKhQCUHn0iAhALcwEoEdWTdsgADXPCEDNEQJQeawiAlChEIDKo0dEAGphJgA9smraBgGoeUYAao4QgMpjFRGACoUAVB49IgJQCzMB6JFV0zYIQM0zAlBzhABUHquIAFQoBKDy6BERgFqYCUCPrJq2QQBqnhGAmiMEoPJYRQSgQiEAlUePiADUwkwAemTVtA0CUPOMANQcIQCVxyoiABUKAag8ekQEoBZmAtAjq6ZtEICaZwSg5ggBqDxWEQGoUAhA5dEjIgC1MBOAHlk1bYMA1DwjADVHCEDlsYoIQIVCACqPHhEBqIWZAPTIqmkbBKDmGQGoOUIAKo9VRAAqFAJQefSICEAtzASgR1ZN2yAANc8IQM0RAlB5rCICUKEQgMqjR0QAamEmAD2yatoGAah5RgBqjhCAymMVEYAKhQBUHj0iAlALMwHokVXTNghAzTMCUHOEAFQeq4gAVCgEoPLoERGAWpgJQI+smrZBAGqeEYCaIwSg8lhFBKBCIQCVR4+IANTCTAB6ZNW0DQJQ84wA1BwhAJXHKiIAFQoBqDx6RASgFmYC0COrpm0QgJpnBKDmCAGoPFYRAahQCEDl0SMiALUwE4AeWTVtgwDUPCMANUcIQOWxighAhUIAKo8eEQGohZkA9MiqaRsEoOYZAag5QgAqj1VEACoUAlB59IgIQC3MBKBHVk3bIAA1zwhAzRECUHmsIgJQoRCAyqNHRABqYSYAPbJq2gYBqHlGAGqOEIDKYxURgAqFAFQePSICUAszAeiRVdM2CEDNMwJQc4QAVB6riABUKASg8ugREYBamAlAj6yatkEAap4RgJojBKDyWEUEoEIhAJVHj4gA1MJMAHpk1bQNAlDzjADUHCEAlccqIgAVCgGoPHpEBKAWZgLQI6umbRCAmmcEoOYIAag8VhEBqFAIQOXRIyIAtTATgB5ZNW2DANQ8IwA1RwhA5bGKCECFQgAqjx4RAaiFmQD0yKppGwSg5hkBqDlCACqPVUQAKhQCUHn0iAhALcwEoEdWTdsgADXPCEDNEQJQeawiAlChEIDKo0dEAGphJgA9smraBgGoeUYAao4QgMpjFRELc8IzAAAcp0lEQVSACoUAVB49IgJQCzMB6JFV0zYIQM0zAlBzhABUHquIAFQoBKDy6BERgFqYCUCPrJq2QQBqnhGAmiMEoPJYRQSgQiEAlUePiADUwkwAemTVtA0CUPOMANQcIQCVxyoiABUKAag8ekQEoBZmAtAjq6ZtEICaZwSg5ggBqDxWEQGoUAhA5dEjIgC1MBOAHlk1bYMA1DwjADVHCEDlsYoIQIVCACqPHhEBqIWZAPTIqmkbBKDmGQGoOUIAKo9VRAAqFAJQefSICEAtzASgR1ZN2yAANc8IQM0RAlB5rCICUKEQgMqjR0QAamEmAD2yatoGAah5RgBqjhCAymMVEYAKhQBUHj0iAlALMwHokVXTNghAzTMCUHOEAFQeq4gAVCgEoPLoERGAWpgJQI+smrZBAGqeEYCaIwSg8lhFBKBCIQCVR4+IANTCTAB6ZNW0DQJQ84wA1BwhAJXHKiIAFQoBqDx6RASgFmYC0COrpm0QgJpnBKDmCAGoPFYRAahQCEDl0SMiALUwE4AeWTVtgwDUPCMANUcIQOWxighAhUIAKo8eEQGohZkA9MiqaRsEoOYZAag5QgAqj1VEACoUAlB59IgIQC3MBKBHVk3bIAA1zwhAzRECUHmsIgJQoRCAyqNHRABqYSYAPbJq2gYBqHlGAGqOEIDKYxURgAqFAFQePSICUAszAeiRVdM2CEDNMwJQc4QAVB6riABUKASg8ugREYBamAlAj6yatkEAap4RgJojixKAh6WuzFY0rvrzZXX5t0YEoGIhAJVHj4gATLfdVozm8JjL9t+DBQGoeUYAalYtSgDue40O/6wgfHBd/q3RXApAS9az3/+q8aO2LuHVXiQAV+O1y7sJwDS3CcAumXO19xCAmmcEoObPogSgffXf3rNTfOO6/FsjAlCxEIDKo0dEAGphbmJLAHpkVm2DANQ8IwA1PxYnAN+0hwD8ZpJ71uXfGhGAioUAVB49IgJQCzMB6JFV0zYIQM0zAlBzZHEC8EpJnndNCXhIXfZzIwJQ0RCAyqNHRABqYSYAPbJq2gYBqHlGAGqOLE4A2td/5DUE4Il1uS+MCEDFQwAqjx4RAaiFmQD0yKppGwSg5hkBqDmySAFoi/DoJM/fUQTasMHL1OW+MCIAFQ8BqDx6RASgFmYC0COrpm0QgJpnBKDmyGIFoC3GGyb5iQsk4LeStFMHr/ogAJUYAag8ekQEoBZmAtAjq6ZtEICaZwSg5siiBaAtyosmef0kj0jSzvH/uiQfleT+SV6iLuvO0VwE4OsvkJtWMHf5+ZCdl/r8NxKA89lc9y8EYJq/rRjN4TGX7b8HCwJQ84wA1KxavADUxekTzaUAfMaOnfxFIvA2HZAQgA4QzzRBAGphdgTgTIJ0CglAzTMCUBOLAFQeq2guAvAuewrAC5O81Jblu+pLBOCqxC5/PwGohZkAXJ4z13kHAah5RgBqFhGAymMVzUUA/vKeAvCzW5btOi8RgOtQu/gzBKAWZgJwcb5c968EoOYZAaiZRAAqj1U0FwFoX+bb9pCAD9uybNd5iQBch9rFnyEAtTATgIvz5bp/JQA1zwhAzSQCUHmsojkJwMsnaVcwbAXyKj//PsmLbFm267xEAK5D7eLPEIBpPrdiNIfHnLb/fXkQgJpnBKBmFAGoPFbR3ArAg4brHrzgCgLQ7pfwqluW67ovEYDrkjv/cwSgFmZHAM7PlX3+QgBqnhGAmk0EoPJYRXMTgPal/kaSn9tBAp6c5BW2LNM+LxGAfeht/ywBqIWZAGzPk31fJQA1zwhAzSgCUHmsojkKQPti90rymCTfn+T/bsjAbyT5jiTvtWVZerxEAHpQrG0QgFqYCUDNj14RAah5RgBqZhGAymMVzVUANr/qPZLcL8mrbL54oN8JQH+wBKAWZgLQP8daiwSg5hkBqHlGACqPVbQEAdjytQ/2EgHoj5YA1MJMAPrnWGuRANQ8IwA1zwhA5bGKCECFQgAqjx4RAaiFmQD0yKppGwSg5hkBqDlCACqPVUQAKhQCUHn0iAhALcwEoEdWTdsgADXPCEDNEQJQeawiAlChEIDKo0dEAGphJgA9smraBgGoeUYAao4QgMpjFRGACoUAVB49IgJQCzMB6JFV0zYIQM0zAlBzhABUHquIAFQoBKDy6BERgFqYCUCPrJq2QQBqnhGAmiMEoPJYRQSgQiEAlUePiADUwkwAemTVtA0CUPOMANQcIQCVxyoiABUKAag8ekQEoBZmAtAjq6ZtEICaZwSg5ggBqDxWEQGoUAhA5dEjIgC1MBOAHlk1bYMA1DwjADVHCEDlsYoIQIVCACqPHhEBqIWZAPTIqmkbBKDmGQGoOUIAKo9VRAAqFAJQefSICEAtzASgR1ZN2yAANc8IQM0RAlB5rCICUKEQgMqjR0QAamEmAD2yatoGAah5RgBqjhCAymMVEYAKhQBUHj0iAlALMwHokVXTNghAzTMCUHOEAFQeq4gAVCgEoPLoERGAWpgJQI+smrZBAGqeEYCaIwSg8lhFBKBCIQCVR4+IANTCTAB6ZNW0DQJQ84wA1BwhAJXHKiIAFQoBqDx6RASgFmYC0COrpm0QgJpnBKDmCAGoPFYRAahQCEDl0SMiALUwE4AeWTVtgwDUPCMANUcIQOWxighAhUIAKo8eEQGohZkA9MiqaRsEoObZIQXgpZO8ZpK3SPKuST44yack+YLh9ScOrz99eP0nh9d/Jckfpn6vlv9X/Xn2dHVf+RUCsAUZAahQCEDl0SMiANOC14rRHB7HtP0TgJpnVxGAl9no0N9to0P/wi0d+vOv0YFftcM/+34CcKBqcUwFoAciAtCDYm2DANTC3IobAag50iMiADXPnrbeQz+vQ3/Geg/9Njr0sx38ZTEB6LGFbGmDAFQoBKDy6BERgFqYCUCPrJq2QQCmeXZZx7qUvxOAab53eYUAVIwEoPLoERGAaWF2BKBHZtU2liIAL5LkPkleJ8lbJ3lokkcleczw+uOH19uh+5+7hcPsc5YBAlBzvVtEACpKAlB59IgIAAHokUeXtXFbArBLh/4fho7+Z4aO/jlJXqBzNwnQHsBlm/Pt/J0A9OdOAAhA/6yatthLAHTo03y97aMDjgBM873LK44AVIwEoPLoERGAaUG1A9Ajs2obPQTg9+2hX3nv/Cbk4H/WVX2tqG1zPb5rl0YUgGutw4N/iAD0R0wApoXH9r9fnm07be2HOxX4Hp2ENqY5vw+T790vXVafJgBbIDoCUKEQgMqjR0QApsWQANTM2tahtwvLbJ6HvqTT1vbp7Hx2ur18UU2Xa0UEYAs2AlChEIDKo0dEAKYF7dgFQIc+Xec69usz+cAOhYgAbIFIACoUAlB59IgIwLTwHZMAtMOz/zaJPfTpetbp78/k1ztdOIsAbKnmBKBCIQCVR4+IAEyL4G0KwIsm+QtJXjfJzxs37zKnS0c/zfFeTB7WowitJaLHd+qSMLdZADZ5EoBNGgkBqDx6RARgWhx7bv+bHfrbrC8s8+FJHru+sMw3Jfnu9Xnov2GWe5f63aMj0cZ0uzjL5Bt6FKB1G44AbIFJACoUAlB59IgIwLTQXSQAOvQpr7Mdg/i4Gf1xkk9K0q7J0OtBALaQJAAVCgGoPHpEBGBarD/OHro9ccMvkxz43STfmuQtexSeM20QgDNAWkgAKhQCUHn0iAjAVADswWJyajnwwiS/leRZSdrE0Scl+dKhwHzG8PpHDsNUbfjqxXoUnHPaIABbwBCACoUAVB49oiUIQCsOrzXMZr//MJu93T71Q5J86vo89K/fmOX+q/baJnttp9aRWd478nZZh94m773d0NHfb+joXy5JG9q6zQcB2EKfAFQoBKDy6BHdhgBcpUP/I526Tl0OZGkd+lVr06wE4POSvMpVl+AA7ycAFSoBqDx6RD0E4JevsIeuQ3d43V56jr5Dv2ptmpUAtARtt4X8lvXYx1UXptf7CUAlSQAqjx5RDwFQ0HXqp54Dx76H3qPWXNTG7ARgM6FbR/xBSV7ioiU4wN8IQIVKACqPXaKzp629e5LxPPQvSfI0h1cdYpcDkxzQoe9SXfq9Z9YCMMrAb+fOxWhuaniAANQEIwB3JuuMV4p72yRnO/TxwjI/O3T0Lixjz3ysXaf+3Dr037xglvvcJsXVynf80SIEYNyIbmp4gADUxD9GAdjcQ9/s0D99uCRs20NvHfr3DB29Dl1nPtYfz3fG0Dc79G/eOG3tI4aOfuzQX28ms9xrJROdJbAoAdjcAA85PEAAapockwD8H3vok8Oum9uV309LeM7uoevQa+079mixAjAWqkMMDxCAmvbHJABj3ng+rY7uVNa3Dr3WLtH5BO6VpNdk5Fvfq+g5PEAAatIQAJ3lqXSgc1tOHXqtRaLdCNwjySuvL+L1nkk+PskXJ/m2JD+2Pgr6Jx0nod66AGxuuPsODxCAmmQEgABsbl9+v34+6NBrbRFdnUC7GdBfTPLXkzw4yT9I8rlJvjHJDw1nzrXrg7Qd4pvcTm/0n+26YNcdHiAANSkJwM1uTLvmt/fd/nrRoddaIdqfwMsOe+pvOOyp/50kj0ryWUm+dn2vgP+e5A9vuHPfpc7MUgDGL37V4QECUJOYANx+RzPmsufDrovNDr2dBTJOimtnh4yz3NtZI2a51xoh2o3ASw576q8z7Kk/MMkjh4685dU/X99X4z8Ph+r/7ww7911qzuqUqV3eeNvv2WV4gADUZCYAh+10bnubOOb/r0Ov27LocATuOeypv/pw+nATxPdN8inDofovHw7Vf8dwqP6nh0P1/2uhnfsu9WFF9Q2SPCHJ7y9gQS8aHiAAdSMhAARglyJwE+/RoddtU3QzBNqkuldK8hZJ3iPJx52ZVPecJD0n1d3EttTzf5S18OeTfFKSX1yACGwbHiAAZXWGABCAnsVisy0det3WRDdPoE2qe/kkb5LkQUn+/plJdb90C5PqNreRJfy+da01a3poku9bgAg0yOPwwM91+L7vvJXIMl+ciwB8QIf1soSNacnfUYe+zG38mL91u9hNOzr9t89MqmtzPP7bTCfVLa0GXJo/bVZjm+ywhOGBHvAJQN1rbhKx7+ONCMCNT7bVoe+btT5/SAL3TvLaSR5wZlLd04dD9W1Hrl35s0c918bFHHdex/dZ0PDAPiudANSE6SEA7YjS79mg9ypoY4fe7nEwznJv9z4wy33nEuaNN0SgTaq77/rW8OOkui8bDtV/+/po7XPVgr1qwT7929nPXjklWjF/yPrcxrONHUNMAPoLQEuyH7DRl43+sg693bVwPG2t3c2w3QTJA4HbJtDq/yuemVT3RcOh+m8dDtX/aJJfP/FJdUvrA/fKpzY8sJSzB3ZdMQTgMALwdrlzR7Jd18PS3qdD36uU+PBMCLzcmUl1nzMcqv+G4VD9D64nh/8xkS8iv7Q6dfb7dkm7JZ09cBbA2ZgAHEYAWqL9kwUVDx16l9KgkRkR2JxU92FJPnM4VP81w6H6707yC8MQ7x8saPs8W7fFtW7vyqNreh7D8AABqInUYw7AmGR/5hbPLNGhj2vB8zES2JxU94jhMPxj10dnvyvJs5L8b537Ue2579rBX/a+g20LSx0eIACHE4CWbE0S200wfnfPgqRDP9imq+GZEWjiPE6qe5/h9LdPTvKlSZ6S5BlJ2sXRLiv0/o7Rthw4eKq34YFPXMjFhRqgf5fkHQ5O5Wb+wVyuA7Btaf/yOi/anbD+6/rw428mOW+Wu0lx2yh6bekE2uTONqnuzYc99YcNe+ofm+QLk3xLkh9J8msm1ZGbPQSv1dSfSPLkJI8bzsb6hCTvNfRzb5nkVW5y4xmHB9opTNtMZG6v/cyw8X1oknZobamPOQvAUpn63ghchUCbVPfGw576uw176n8vyWcn+Vfrs2LaFVdNqltGfzC3/ql9n98Zzsh7ZpLvTPIVQy59WpL3H4ZZ3z7JayZ58ask6k2+d0n3Hmg3gmj3bH61mwTU6X8RgE4gNYPAFgIvM+ypv/6wp/631jsL/3ioE1+d5D+YVLeInbw5durjd2rXTfkv6yPS/yLJP0zywUn+5vqOln92Sz4u7qVxeODZCzgq0Mac//XChgcIwOI2CV94JgReYthT/yvDnvo7JvnA4RTWxyT5qiRPM6lO575nf/X8YU/9f6wnRD8xyT9d37L6XYZD9e2qqa1fPKlHGx548PoKZ6MBzfl5KcMDBOCkNiMLuyOBNqmuHdF76yQPX1/htF1V0aQ6h+P37XfajuKvDHvq/3HYU//mJJ8/HKr/qPXF8/7GcKj+FYa9+XYTI49zCLThgWbaS7j3wNyHBwjAOUnm5aMl0CbVtQmmbzZMKG0TRz8myRecmVTXivS+hd7nT5PhZZPqXuxot6wbXrB2GKTNWDQ8cH3wBOD67HxyngTaZZH/WpJ3TfKRZybVtVrxRzp3cnPNHFjspLp5bqp9vtU4PNCuVrUE657T8AAB6JODWrkZAi+d5H5J2rU4PmS4ZsTmpLqfX8hRwSXUqFP8jicxqe5mNtPb+y/j8MAS7iw3h+EBAnB7ueo/VwJtUt1rrSfRfsCZSXXt2g/7XhjqFDs1y3xnp9CkurqtHX30soYHdlrHBGAnTN60J4E2qe5Vk7zVmUl1/2Y4VP+Tw6H631rI0Tsd6vyOsppUt+fGecwfb8MDD1rfzGIJG+9NDw8QgGPO/ptZtjap7i8ledMzk+qeNByq/0/DofpfPfK7PC6hriz5O5pUdzPb8dH/l3ZBjq8cjgwYHri7qgnAXRZ+207gPsP1Lf7qxqS6ljNfPxyq//4k/9OkukXMO5qrAJhUt32b8+oBCYzDA614zXXDGL/XoS8uRAAOmGgLaLpdLWxzUt0/Gg7V/8vhUP2/X99/YQmn2o7biud51TOT6hZQAE75K7ZDl6c+PEAAjncLaNf53pxU9+j1EbCnJmlDTc9bgADr1OfVqY/rw6S6460bJ7lkpzo8QACWme7tYiLjpLr3Xt818fHrS1G3O3u1cdOxWHvG4io5YFLdMmuCb92BQBse+Pj12OZVNprbeG+P4QEC0CFpOjfRLgM6Tqp76LCn/tHry4W2y4a2y4e2y4i2dX8bOed/Lp+7SXWdN1jNHR+BcXig3bVrCUXvumcPEICbz91xUl27scdHrG/00W748X3rG4C4Ut0ytrk51gWT6m5+e/Yfj5zAMQ8PEIC+ydsm1b3e+pac7dac7Rad7Vad/259684lnIEyx47Nd7pz9tLR3/617+aoNQT6ETjG4QECsHt+tEl1rznsqb/9sKf+/kk+bbhz11ck+c7hTl7PNKluEUfK5ioSJtXtvh16JwK3SuCYhgcIwJ1UapPqXmXYU3/LYU/9vdZXkXzccO/tJyf5cZPqdO57DAWaVHer5do/R+BwBJY+PHAKAtAm1bV7bLd7bT9kfe/tz0vyTRuT6l6wR4Gf616l73UzcwlMqjtcfdUyAosgsNThgWMQgHZb6Dca9tT/bpIPT/JPknzdxqS6dnhVZ4jBdXLApLpFlF9fEoF5EBiHB5Zya+I/7NA5Nok41OOlhj31103yTkk+aPgnn2FSHZnpkLNNBlyp7lBbrXYRQCBLGh64zt7R+JnrCsC9hj3110jydkneb7im/KeemVTX9r7G/+EZi6vkwHmT6tpRona0qB018kAAAQQOTmBJ9x64SpEd37tNANpdGF85yf2TvOeWSXW/keRPdPAE5xo5cHZSXZvP8VHr+R1tnkeb79HmfXgggAACsyGwtFsTjx38Zc/fk2ScVPfDw6H6X05iUp099svy5ry/t0l17cyLdgZGOxPjE9ZnZrQzNNqZGu2MDQ8EEEBgsQROZXjgvCLv9dMUBJPqFluyfHEEEOhNYBweePY1DoXqRE+zE53rejeprnd10B4CCJwEgWMdHphrZ+V7XU2eTKo7iTJkIRFA4LYJtOGBr1qfpqSjulpHhdfVebX5Gu0Og+1Og+2OgybV3XYF8P8RQODkCRgeuHpnRgCmzEyqO/lSAgACCCyVQBseeHCSpVxcSCc87YQPxcSkuqVu1b43AgggcEUCb7AeHvh9kwaP/hx6k+quuHF4OwIIIHAKBNqVzNr50c4euLm97Z578SbVncJWahkRQACBAxIYhwfaxXh6dlDauj5Pk+oOmPCaRgABBBCYEjA8cP1O+yrCY1LdNPe8ggACCCAwAwJteOATDQ9c64iISXUzSGBfAQEEEEBgPwKGB+oRgcsm1bVbD3sggAACCCBwVASOfXjApLqjSlcLgwACCCDQm8AShwdMquudBdpDAAEEEDhZAnMaHjCp7mTT0IIjgAACCNwmgTY88IRh4uAhLi5kUt1trln/GwEEEEAAgR0IjMMDv7jjNQVMqtsBqrcggAACCCCwFAJteOAhSf5tku9L8sQk/zTJRyT5u0neKEmTBQ8EEEAAAQQQQAABBBBAAAEEEEAAAQQQQAABBBBAAAEEEEAAAQQQQAABBBBAAAEEEEAAAQQQQAABBBBAAAEEEEAAAQQQQAABBBBAAAEEEEAAAQQQQAABBBBAAAEEEEAAAQQQQAABBBBAAAEEEEAAAQQQQAABBBBAAAEEEEAAAQQQQAABBBBAAAEEEEAAAQQQQAABBBBAAAEEEEAAAQQQQAABBBBAAAEEEEAAAQQQQAABBBBAAAEEEEAAAQQQQAABBBBAAAEEEEAAAQQQQAABBBBAAAEEEEAAAQQQQAABBBBAAAEEEEAAAQQQQAABBBBAAAEEEEAAAQQQQAABBBBAAAEEEEAAAQQQQAABBBBAAAEEEEAAAQQQQAABBBBAAAEEEEAAAQQQQAABBBBAAAEEEEAAAQQQQAABBBBAAAEEEEAAAQQQQAABBBBAAAEEEEAAAQQQQAABBBBAAAEEEEAAAQQQQAABBBBAAAEEEEAAAQQQQAABBBBAAAEEEEAAAQQQQAABBBBAAAEEEEAAAQQQQAABBBBAAAEEEEAAAQQQQAABBBBAAAEEEEAAAQQQQAABBBBAAAEEEEAAAQQQQAABBBBAAAEEEEAAAQQQQAABBBBAAAEEEEAAAQQQQAABBBBAAAEEEEAAAQQQQAABBBBAAAEEEEAAAQQQQAABBBBAAAEEEEAAAQQQQAABBBBAAAEEEEAAAQQQQAABBBBAAAEEEEAAAQQQQAABBBBAAAEEEEAAAQQQQAABBBBAAAEEEEAAAQQQQAABBBBAAAEEEEAAAQQQQAABBBBAAAEEEEAAAQQQQAABBBBAAAEEEEAAAQQQQAABBBBAAAEEEEAAAQQQQAABBBBAAAEEEEAAAQQQQAABBBBAAAEEEEAAAQQQQAABBBBAAAEEEEAAAQQQQAABBBBAAAEEEEAAAQQQQAABBBBAAAEEEEAAAQQQQAABBBBAAAEEEEAAAQQQQAABBBBAAAEEEEAAAQQQQAABBBBAAAEEEEAAAQQQQAABBBBAAAEEEEAAAQQQQAABBBBAAAEEEEAAAQQQQAABBBBAAAEEEEAAAQQQQAABBBBAAAEEEEAAAQQQQAABBBBAAAEEEEAAAQQQQAABBBBAAAEEEEAAAQQQQAABBBBAAAEEEEAAAQQQQAABBBBAAAEEEEAAAQQQQAABBBBAAAEEEEAAAQQQQAABBBBAAAEEEEAAAQQQQAABBBBAAAEEEEAAAQQQQAABBBBAAAEEEEAAAQQQQAABBBBAAAEEEEAAAQQQQAABBBBAAAEEEEAAAQQQQAABBBBAAAEEEEAAAQQQQAABBBBAAAEEEEAAAQQQQAABBBBAAAEEEEAAAQQQQAABBBA4KQL/H0CBIlchlG0KAAAAAElFTkSuQmCC;" vertex="1" parent="1">
          <mxGeometry x="1773" y="718.64" width="57" height="57" as="geometry" />
        </mxCell>
        <mxCell id="Qk6iisqbKT5Qhv3eNS_e-121" value="Bucket" style="outlineConnect=0;dashed=0;verticalLabelPosition=bottom;verticalAlign=top;align=center;html=1;shape=mxgraph.aws3.bucket;fillColor=#E05243;gradientColor=none;fontFamily=Work Sans;fontSource=https%3A%2F%2Ffonts.googleapis.com%2Fcss%3Ffamily%3DWork%2BSans;" vertex="1" parent="1">
          <mxGeometry x="1311.39" y="239" width="60" height="61.5" as="geometry" />
        </mxCell>
        <mxCell id="Qk6iisqbKT5Qhv3eNS_e-122" value="&lt;b&gt;&lt;font data-font-src=&quot;https://fonts.googleapis.com/css?family=Work+Sans&quot; face=&quot;Work Sans&quot;&gt;Label Studio&lt;/font&gt;&lt;/b&gt;" style="text;html=1;align=center;verticalAlign=middle;whiteSpace=wrap;rounded=0;fontSize=18;" vertex="1" parent="1">
          <mxGeometry x="1830" y="620.64" width="150" height="40" as="geometry" />
        </mxCell>
        <mxCell id="Qk6iisqbKT5Qhv3eNS_e-123" value="&lt;b&gt;&lt;font data-font-src=&quot;https://fonts.googleapis.com/css?family=Work+Sans&quot; face=&quot;Work Sans&quot;&gt;Quarto&lt;/font&gt;&lt;/b&gt;" style="text;html=1;align=center;verticalAlign=middle;whiteSpace=wrap;rounded=0;fontSize=18;" vertex="1" parent="1">
          <mxGeometry x="1520" y="618.89" width="150" height="40" as="geometry" />
        </mxCell>
        <mxCell id="Qk6iisqbKT5Qhv3eNS_e-124" value="" style="group" vertex="1" connectable="0" parent="1">
          <mxGeometry x="848.75" y="187.07" width="194.77999999999997" height="33.31999999999999" as="geometry" />
        </mxCell>
        <mxCell id="Qk6iisqbKT5Qhv3eNS_e-125" value="" style="shape=image;verticalLabelPosition=bottom;labelBackgroundColor=default;verticalAlign=top;aspect=fixed;imageAspect=0;editableCssRules=.*;image=data:image/svg+xml,PHN2ZyB4bWxucz0iaHR0cDovL3d3dy53My5vcmcvMjAwMC9zdmciIHZlcnNpb249IjEuMSIgaWQ9InN2ZzIiIGhlaWdodD0iMTA2LjY1MDAyNDQxNDA2MjUiIHdpZHRoPSI3MTguNjM0NjQzNTU0Njg3NSIgdmlld0JveD0iOS45OTk5OTUyMzE2Mjg0MTggMTAuMDAwMDMwNTE3NTc4MTI1IDcxOC42MzQ2NDM1NTQ2ODc1IDEwNi42NTAwMjQ0MTQwNjI1Ij4mI3hhOyAgPGRlZnMgaWQ9ImRlZnM0Ii8+JiN4YTsgICYjeGE7ICA8bWV0YWRhdGEgaWQ9Im1ldGFkYXRhNyI+JiN4YTsgICAgJiN4YTsgICAgICAmI3hhOyAgICAgICAgaW1hZ2Uvc3ZnK3htbCYjeGE7ICAgICAgICAmI3hhOyAgICAgICAgJiN4YTsgICAgICAmI3hhOyAgICAmI3hhOyAgPC9tZXRhZGF0YT4mI3hhOyAgPGcgdHJhbnNmb3JtPSJ0cmFuc2xhdGUoLTYuMTA1MTIwOCwtMzA1LjM2NTUyKSIgaWQ9ImxheWVyMSI+JiN4YTsgICAgPGcgaWQ9InRleHQ0MzczIiBzdHlsZT0iZm9udC1zaXplOjQwcHg7Zm9udC1zdHlsZTpub3JtYWw7Zm9udC13ZWlnaHQ6bm9ybWFsO2xpbmUtaGVpZ2h0OjEyNSU7bGV0dGVyLXNwYWNpbmc6MHB4O3dvcmQtc3BhY2luZzowcHg7ZmlsbDojMzI2ZGU1O2ZpbGwtb3BhY2l0eToxO3N0cm9rZTpub25lO2ZvbnQtZmFtaWx5OlNhbnMiPiYjeGE7ICAgICAgPHBhdGggaWQ9InBhdGgyOTg1IiBzdHlsZT0iZm9udC1zaXplOjEzNXB4O2ZvbnQtdmFyaWFudDpub3JtYWw7Zm9udC13ZWlnaHQ6Ym9sZDtmb250LXN0cmV0Y2g6bm9ybWFsO2ZpbGw6IzMyNmRlNTtmb250LWZhbWlseTpVYnVudHU7LWlua3NjYXBlLWZvbnQtc3BlY2lmaWNhdGlvbjpVYnVudHUgQm9sZCIgZD0ibSAzNi4yMjAxMjEsMzc0Ljc2NTUyIGMgMS45Nzk5NjgsLTIuMTU5OTUgNC4wMDQ5NjYsLTQuNDA5OTUgNi4wNzUsLTYuNzUgMi4xNTk5NjIsLTIuMzM5OTUgNC4yMjk5NiwtNC42MzQ5NCA2LjIxLC02Ljg4NSAxLjk3OTk1NiwtMi4zMzk5NCAzLjgyNDk1NCwtNC41NDQ5NCA1LjUzNSwtNi42MTUgMS43OTk5NTEsLTIuMDY5OTMgMy4zMjk5NDksLTMuODY5OTMgNC41OSwtNS40IGwgMjMuODk1LDAgYyAtNC43NzAwNzEsNS40OTAwNiAtOS40NTAwNjcsMTAuNzU1MDYgLTE0LjA0LDE1Ljc5NSAtNC41MDAwNTcsNC45NTAwNSAtOS40NTAwNTMsMTAuMDgwMDQgLTE0Ljg1LDE1LjM5IDIuNjk5OTUsMi40MzAwNCA1LjQ4OTk0Nyw1LjM1NTAzIDguMzcsOC43NzUgMi44Nzk5NDIsMy4zMzAwMyA1LjY2OTkzOSw2Ljc5NTAyIDguMzcsMTAuMzk1IDIuNjk5OTMzLDMuNjAwMDIgNS4xNzQ5MzEsNy4yMDAwMSA3LjQyNSwxMC44IDIuMjQ5OTI2LDMuNjAwMDEgNC4xMzk5MjUsNi44ODUgNS42Nyw5Ljg1NSBsIC0yMy4wODUsMCBjIC0xLjQ0MDA1MiwtMi4zNCAtMy4xMDUwNTEsLTQuOTA1IC00Ljk5NSwtNy42OTUgLTEuODAwMDQ3LC0yLjg3OTk5IC0zLjczNTA0NSwtNS43MTQ5OSAtNS44MDUsLTguNTA1IC0yLjA3MDA0MSwtMi44Nzk5OCAtNC4yNzUwMzksLTUuNjI0OTggLTYuNjE1LC04LjIzNSAtMi4yNTAwMzQsLTIuNjA5OTcgLTQuNTAwMDMyLC00LjgxNDk3IC02Ljc1LC02LjYxNSBsIDAsMzEuMDUgLTIwLjExNSwwIDAsLTEwMS41MiAyMC4xMTUsLTMuMjQgMCw1OS40Ii8+JiN4YTsgICAgICA8cGF0aCBpZD0icGF0aDI5ODciIHN0eWxlPSJmb250LXNpemU6MTM1cHg7Zm9udC12YXJpYW50Om5vcm1hbDtmb250LXdlaWdodDpib2xkO2ZvbnQtc3RyZXRjaDpub3JtYWw7ZmlsbDojMzI2ZGU1O2ZvbnQtZmFtaWx5OlVidW50dTstaW5rc2NhcGUtZm9udC1zcGVjaWZpY2F0aW9uOlVidW50dSBCb2xkIiBkPSJtIDE1My40NDg2NCw0MTcuNjk1NTIgYyAtMy40MjAwNywwLjk5IC03LjgzMDA3LDEuODkgLTEzLjIzLDIuNyAtNS40MDAwNSwwLjkgLTExLjA3MDA1LDEuMzUgLTE3LjAxLDEuMzUgLTYuMDMwMDQsMCAtMTEuMDcwMDMsLTAuODEgLTE1LjEyLC0yLjQzIC0zLjk2MDAyLC0xLjYyIC03LjExMDAyLC0zLjg3IC05LjQ1MDAwNCwtNi43NSAtMi4zNDAwMTIsLTIuOTY5OTkgLTQuMDA1MDExLC02LjQ3OTk5IC00Ljk5NSwtMTAuNTMgLTAuOTkwMDA5LC00LjA0OTk4IC0xLjQ4NTAwOCwtOC41MDQ5NyAtMS40ODUsLTEzLjM2NSBsIDAsLTM5LjU1NSAyMC4xMTUwMDQsMCAwLDM3LjEyNSBjIC0zZS01LDYuNDgwMDMgMC44NTQ5NywxMS4xNjAwMiAyLjU2NSwxNC4wNCAxLjcwOTk2LDIuODgwMDIgNC45MDQ5Niw0LjMyMDAxIDkuNTg1LDQuMzIgMS40Mzk5NSwxMGUtNiAyLjk2OTk1LC0wLjA0NSA0LjU5LC0wLjEzNSAxLjYxOTk1LC0wLjE3OTk5IDMuMDU5OTUsLTAuMzU5OTkgNC4zMiwtMC41NCBsIDAsLTU0LjgxIDIwLjExNSwwIDAsNjguNTgiLz4mI3hhOyAgICAgIDxwYXRoIGlkPSJwYXRoMjk4OSIgc3R5bGU9ImZvbnQtc2l6ZToxMzVweDtmb250LXZhcmlhbnQ6bm9ybWFsO2ZvbnQtd2VpZ2h0OmJvbGQ7Zm9udC1zdHJldGNoOm5vcm1hbDtmaWxsOiMzMjZkZTU7Zm9udC1mYW1pbHk6VWJ1bnR1Oy1pbmtzY2FwZS1mb250LXNwZWNpZmljYXRpb246VWJ1bnR1IEJvbGQiIGQ9Im0gMjE3Ljk1NzU0LDM4NC4wODA1MiBjIC01ZS01LC0xMi45NTk5NSAtNC43NzAwNSwtMTkuNDM5OTUgLTE0LjMxLC0xOS40NCAtMi4wNzAwNCw1ZS01IC00LjE0MDAzLDAuMjcwMDUgLTYuMjEsMC44MSAtMS45ODAwMywwLjU0MDA1IC0zLjYwMDAzLDEuMjE1MDUgLTQuODYsMi4wMjUgbCAwLDM2LjU4NSBjIDAuOTg5OTcsMC4xODAwMSAyLjI0OTk3LDAuMzYwMDEgMy43OCwwLjU0IDEuNTI5OTcsMC4wOSAzLjE5NDk3LDAuMTM1MDEgNC45OTUsMC4xMzUgNS40ODk5NiwxMGUtNiA5LjYyOTk1LC0xLjg4OTk4IDEyLjQyLC01LjY3IDIuNzg5OTUsLTMuNzc5OTggNC4xODQ5NSwtOC43NzQ5NyA0LjE4NSwtMTQuOTg1IG0gMjAuNTIsMC41NCBjIC03ZS01LDUuNjcwMDMgLTAuODU1MDcsMTAuODAwMDIgLTIuNTY1LDE1LjM5IC0xLjYyMDA3LDQuNTkwMDEgLTQuMDA1MDcsOC41MDUwMSAtNy4xNTUsMTEuNzQ1IC0zLjE1MDA2LDMuMjQgLTcuMDIwMDYsNS43NiAtMTEuNjEsNy41NiAtNC41OTAwNSwxLjcxIC05LjgxMDA0LDIuNTY1IC0xNS42NiwyLjU2NSAtMi40MzAwMywwIC00Ljk5NTAzLC0wLjEzNSAtNy42OTUsLTAuNDA1IC0yLjYxMDAzLC0wLjE4IC01LjIyMDAyLC0wLjQ1IC03LjgzLC0wLjgxIC0yLjUyMDAyLC0wLjM2IC00Ljk1MDAyLC0wLjc2NSAtNy4yOSwtMS4yMTUgLTIuMzQwMDEsLTAuNTQgLTQuNDEwMDEsLTEuMDggLTYuMjEsLTEuNjIgbCAwLC05OS4yMjUgMjAuMTE1LC0zLjI0IDAsMzUuMzcgYyAyLjI0OTk3LC0wLjk4OTkzIDQuNTg5OTcsLTEuNzU0OTMgNy4wMiwtMi4yOTUgMi40Mjk5NiwtMC41Mzk5MyA1LjAzOTk2LC0wLjgwOTkzIDcuODMsLTAuODEgNS4wMzk5NSw3ZS01IDkuNDk0OTUsMC45MDAwNyAxMy4zNjUsMi43IDMuODY5OTQsMS43MTAwNyA3LjEwOTk0LDQuMTg1MDYgOS43Miw3LjQyNSAyLjYwOTkzLDMuMjQwMDYgNC41ODk5Myw3LjE1NTA1IDUuOTQsMTEuNzQ1IDEuMzQ5OTMsNC41MDAwNCAyLjAyNDkzLDkuNTQwMDQgMi4wMjUsMTUuMTIiLz4mI3hhOyAgICAgIDxwYXRoIGlkPSJwYXRoMjk5MSIgc3R5bGU9ImZvbnQtc2l6ZToxMzVweDtmb250LXZhcmlhbnQ6bm9ybWFsO2ZvbnQtd2VpZ2h0OmJvbGQ7Zm9udC1zdHJldGNoOm5vcm1hbDtmaWxsOiMzMjZkZTU7Zm9udC1mYW1pbHk6VWJ1bnR1Oy1pbmtzY2FwZS1mb250LXNwZWNpZmljYXRpb246VWJ1bnR1IEJvbGQiIGQ9Im0gMjUwLjU2MjE1LDM4NS4xNjA1MiBjIDAsLTYuMjk5OTYgMC45NDUsLTExLjc4OTk1IDIuODM1LC0xNi40NyAxLjk3OTk5LC00Ljc2OTk0IDQuNTQ0OTksLTguNzI5OTQgNy42OTUsLTExLjg4IDMuMTQ5OTgsLTMuMTQ5OTMgNi43NDk5OCwtNS41MzQ5MyAxMC44LC03LjE1NSA0LjEzOTk3LC0xLjYxOTkzIDguMzY5OTcsLTIuNDI5OTMgMTIuNjksLTIuNDMgMTAuMDc5OTUsN2UtNSAxOC4wNDQ5NCwzLjEwNTA3IDIzLjg5NSw5LjMxNSA1Ljg0OTkzLDYuMTIwMDYgOC43NzQ5MywxNS4xNjUwNSA4Ljc3NSwyNy4xMzUgLTdlLTUsMS4xNzAwMyAtMC4wNDUxLDIuNDc1MDMgLTAuMTM1LDMuOTE1IC0wLjA5MDEsMS4zNTAwMyAtMC4xODAwNywyLjU2NTAzIC0wLjI3LDMuNjQ1IGwgLTQ1LjYzLDAgYyAwLjQ0OTk3LDQuMTQwMDIgMi4zODQ5Nyw3LjQyNTAyIDUuODA1LDkuODU1IDMuNDE5OTcsMi40MzAwMiA4LjAwOTk2LDMuNjQ1MDEgMTMuNzcsMy42NDUgMy42ODk5NSwxMGUtNiA3LjI4OTk1LC0wLjMxNDk5IDEwLjgsLTAuOTQ1IDMuNTk5OTQsLTAuNzE5OTggNi41MjQ5NCwtMS41NzQ5OCA4Ljc3NSwtMi41NjUgbCAyLjcsMTYuMzM1IGMgLTEuMDgwMDcsMC41NCAtMi41MjAwNiwxLjA4IC00LjMyLDEuNjIgLTEuODAwMDYsMC41NCAtMy44MjUwNiwwLjk5IC02LjA3NSwxLjM1IC0yLjE2MDA1LDAuNDUgLTQuNTAwMDUsMC44MSAtNy4wMiwxLjA4IC0yLjUyMDA1LDAuMjcgLTUuMDQwMDQsMC40MDUgLTcuNTYsMC40MDUgLTYuMzkwMDQsMCAtMTEuOTcwMDMsLTAuOTQ1IC0xNi43NCwtMi44MzUgLTQuNjgwMDIsLTEuODkgLTguNTk1MDIsLTQuNDU1IC0xMS43NDUsLTcuNjk1IC0zLjA2MDAxLC0zLjMyOTk5IC01LjM1NTAxLC03LjI0NDk5IC02Ljg4NSwtMTEuNzQ1IC0xLjQ0LC00LjQ5OTk4IC0yLjE2LC05LjM1OTk3IC0yLjE2LC0xNC41OCBtIDQ3LjI1LC03LjY5NSBjIC0wLjA5LC0xLjcwOTk2IC0wLjQwNTA1LC0zLjM3NDk2IC0wLjk0NSwtNC45OTUgLTAuNDUwMDUsLTEuNjE5OTUgLTEuMjE1MDUsLTMuMDU5OTUgLTIuMjk1LC00LjMyIC0wLjk5MDA1LC0xLjI1OTk1IC0yLjI5NTA1LC0yLjI5NDk1IC0zLjkxNSwtMy4xMDUgLTEuNTMwMDQsLTAuODA5OTUgLTMuNDY1MDQsLTEuMjE0OTQgLTUuODA1LC0xLjIxNSAtMi4yNTAwNCw2ZS01IC00LjE4NTAzLDAuNDA1MDUgLTUuODA1LDEuMjE1IC0xLjYyMDAzLDAuNzIwMDUgLTIuOTcwMDMsMS43MTAwNSAtNC4wNSwyLjk3IC0xLjA4MDAzLDEuMjYwMDUgLTEuOTM1MDMsMi43NDUwNSAtMi41NjUsNC40NTUgLTAuNTQwMDMsMS42MjAwNCAtMC45NDUwMiwzLjI4NTA0IC0xLjIxNSw0Ljk5NSBsIDI2LjU5NSwwIi8+JiN4YTsgICAgICA8cGF0aCBpZD0icGF0aDI5OTMiIHN0eWxlPSJmb250LXNpemU6MTM1cHg7Zm9udC12YXJpYW50Om5vcm1hbDtmb250LXdlaWdodDpib2xkO2ZvbnQtc3RyZXRjaDpub3JtYWw7ZmlsbDojMzI2ZGU1O2ZvbnQtZmFtaWx5OlVidW50dTstaW5rc2NhcGUtZm9udC1zcGVjaWZpY2F0aW9uOlVidW50dSBCb2xkIiBkPSJtIDM3NS41NzAwNCwzNjYuOTM1NTIgYyAtMS44MDAwNSwtMC40NDk5NSAtMy45MTUwNSwtMC44OTk5NSAtNi4zNDUsLTEuMzUgLTIuNDMwMDQsLTAuNTM5OTUgLTUuMDQwMDQsLTAuODA5OTUgLTcuODMsLTAuODEgLTEuMjYwMDMsNWUtNSAtMi43OTAwMywwLjEzNTA1IC00LjU5LDAuNDA1IC0xLjcxMDAzLDAuMTgwMDUgLTMuMDE1MDMsMC40MDUwNSAtMy45MTUsMC42NzUgbCAwLDU0LjI3IC0yMC4xMTUsMCAwLC02Ny4yMyBjIDMuNTk5OTksLTEuMjU5OTMgNy44Mjk5OSwtMi40Mjk5MyAxMi42OSwtMy41MSA0Ljk0OTk4LC0xLjE2OTkzIDEwLjQzOTk3LC0xLjc1NDkzIDE2LjQ3LC0xLjc1NSAxLjA3OTk2LDdlLTUgMi4zODQ5NiwwLjA5MDEgMy45MTUsMC4yNyAxLjUyOTk2LDAuMDkwMSAzLjA1OTk2LDAuMjcwMDcgNC41OSwwLjU0IDEuNTI5OTUsMC4xODAwNyAzLjA1OTk1LDAuNDUwMDcgNC41OSwwLjgxIDEuNTI5OTUsMC4yNzAwNyAyLjgzNDk1LDAuNjMwMDcgMy45MTUsMS4wOCBsIC0zLjM3NSwxNi42MDUiLz4mI3hhOyAgICAgIDxwYXRoIGlkPSJwYXRoMjk5NSIgc3R5bGU9ImZvbnQtc2l6ZToxMzVweDtmb250LXZhcmlhbnQ6bm9ybWFsO2ZvbnQtd2VpZ2h0OmJvbGQ7Zm9udC1zdHJldGNoOm5vcm1hbDtmaWxsOiMzMjZkZTU7Zm9udC1mYW1pbHk6VWJ1bnR1Oy1pbmtzY2FwZS1mb250LXNwZWNpZmljYXRpb246VWJ1bnR1IEJvbGQiIGQ9Im0gMzg5LjcyODE3LDM1MS41NDU1MiBjIDMuNDE5OTgsLTAuOTg5OTMgNy44Mjk5OCwtMS44ODk5MyAxMy4yMywtMi43IDUuMzk5OTcsLTAuODk5OTMgMTEuMDY5OTYsLTEuMzQ5OTMgMTcuMDEsLTEuMzUgNi4wMjk5NSw3ZS01IDExLjAyNDk1LDAuODEwMDcgMTQuOTg1LDIuNDMgNC4wNDk5NCwxLjUzMDA3IDcuMjQ0OTQsMy43MzUwNyA5LjU4NSw2LjYxNSAyLjMzOTkzLDIuODgwMDYgNC4wMDQ5Myw2LjMwMDA2IDQuOTk1LDEwLjI2IDAuOTg5OTMsMy45NjAwNSAxLjQ4NDkzLDguMzcwMDQgMS40ODUsMTMuMjMgbCAwLDQwLjA5NSAtMjAuMTE1LDAgMCwtMzcuNjY1IGMgLTVlLTUsLTYuNDc5OTYgLTAuODU1MDUsLTExLjA2OTk1IC0yLjU2NSwtMTMuNzcgLTEuNzEwMDUsLTIuNjk5OTUgLTQuOTA1MDUsLTQuMDQ5OTUgLTkuNTg1LC00LjA1IC0xLjQ0MDA0LDVlLTUgLTIuOTcwMDQsMC4wOTAxIC00LjU5LDAuMjcgLTEuNjIwMDMsMC4wOSAtMy4wNjAwMywwLjIyNTA1IC00LjMyLDAuNDA1IGwgMCw1NC44MSAtMjAuMTE1LDAgMCwtNjguNTgiLz4mI3hhOyAgICAgIDxwYXRoIGlkPSJwYXRoMjk5NyIgc3R5bGU9ImZvbnQtc2l6ZToxMzVweDtmb250LXZhcmlhbnQ6bm9ybWFsO2ZvbnQtd2VpZ2h0OmJvbGQ7Zm9udC1zdHJldGNoOm5vcm1hbDtmaWxsOiMzMjZkZTU7Zm9udC1mYW1pbHk6VWJ1bnR1Oy1pbmtzY2FwZS1mb250LXNwZWNpZmljYXRpb246VWJ1bnR1IEJvbGQiIGQ9Im0gNDY1Ljk4MjA3LDM4NS4xNjA1MiBjIDAsLTYuMjk5OTYgMC45NDUsLTExLjc4OTk1IDIuODM1LC0xNi40NyAxLjk3OTk5LC00Ljc2OTk0IDQuNTQ0OTksLTguNzI5OTQgNy42OTUsLTExLjg4IDMuMTQ5OTgsLTMuMTQ5OTMgNi43NDk5OCwtNS41MzQ5MyAxMC44LC03LjE1NSA0LjEzOTk3LC0xLjYxOTkzIDguMzY5OTcsLTIuNDI5OTMgMTIuNjksLTIuNDMgMTAuMDc5OTUsN2UtNSAxOC4wNDQ5NSwzLjEwNTA3IDIzLjg5NSw5LjMxNSA1Ljg0OTkzLDYuMTIwMDYgOC43NzQ5MywxNS4xNjUwNSA4Ljc3NSwyNy4xMzUgLTdlLTUsMS4xNzAwMyAtMC4wNDUxLDIuNDc1MDMgLTAuMTM1LDMuOTE1IC0wLjA5MDEsMS4zNTAwMyAtMC4xODAwNywyLjU2NTAzIC0wLjI3LDMuNjQ1IGwgLTQ1LjYzLDAgYyAwLjQ0OTk4LDQuMTQwMDIgMi4zODQ5Nyw3LjQyNTAyIDUuODA1LDkuODU1IDMuNDE5OTcsMi40MzAwMiA4LjAwOTk2LDMuNjQ1MDEgMTMuNzcsMy42NDUgMy42ODk5NSwxMGUtNiA3LjI4OTk1LC0wLjMxNDk5IDEwLjgsLTAuOTQ1IDMuNTk5OTQsLTAuNzE5OTggNi41MjQ5NCwtMS41NzQ5OCA4Ljc3NSwtMi41NjUgbCAyLjcsMTYuMzM1IGMgLTEuMDgwMDYsMC41NCAtMi41MjAwNiwxLjA4IC00LjMyLDEuNjIgLTEuODAwMDYsMC41NCAtMy44MjUwNiwwLjk5IC02LjA3NSwxLjM1IC0yLjE2MDA1LDAuNDUgLTQuNTAwMDUsMC44MSAtNy4wMiwxLjA4IC0yLjUyMDA0LDAuMjcgLTUuMDQwMDQsMC40MDUgLTcuNTYsMC40MDUgLTYuMzkwMDMsMCAtMTEuOTcwMDMsLTAuOTQ1IC0xNi43NCwtMi44MzUgLTQuNjgwMDIsLTEuODkgLTguNTk1MDEsLTQuNDU1IC0xMS43NDUsLTcuNjk1IC0zLjA2MDAxLC0zLjMyOTk5IC01LjM1NTAxLC03LjI0NDk5IC02Ljg4NSwtMTEuNzQ1IC0xLjQ0LC00LjQ5OTk4IC0yLjE2LC05LjM1OTk3IC0yLjE2LC0xNC41OCBtIDQ3LjI1LC03LjY5NSBjIC0wLjA5MDEsLTEuNzA5OTYgLTAuNDA1MDUsLTMuMzc0OTYgLTAuOTQ1LC00Ljk5NSAtMC40NTAwNSwtMS42MTk5NSAtMS4yMTUwNSwtMy4wNTk5NSAtMi4yOTUsLTQuMzIgLTAuOTkwMDUsLTEuMjU5OTUgLTIuMjk1MDQsLTIuMjk0OTUgLTMuOTE1LC0zLjEwNSAtMS41MzAwNCwtMC44MDk5NSAtMy40NjUwNCwtMS4yMTQ5NCAtNS44MDUsLTEuMjE1IC0yLjI1MDAzLDZlLTUgLTQuMTg1MDMsMC40MDUwNSAtNS44MDUsMS4yMTUgLTEuNjIwMDMsMC43MjAwNSAtMi45NzAwMywxLjcxMDA1IC00LjA1LDIuOTcgLTEuMDgwMDMsMS4yNjAwNSAtMS45MzUwMiwyLjc0NTA1IC0yLjU2NSw0LjQ1NSAtMC41NDAwMiwxLjYyMDA0IC0wLjk0NTAyLDMuMjg1MDQgLTEuMjE1LDQuOTk1IGwgMjYuNTk1LDAiLz4mI3hhOyAgICAgIDxwYXRoIGlkPSJwYXRoMjk5OSIgc3R5bGU9ImZvbnQtc2l6ZToxMzVweDtmb250LXZhcmlhbnQ6bm9ybWFsO2ZvbnQtd2VpZ2h0OmJvbGQ7Zm9udC1zdHJldGNoOm5vcm1hbDtmaWxsOiMzMjZkZTU7Zm9udC1mYW1pbHk6VWJ1bnR1Oy1pbmtzY2FwZS1mb250LXNwZWNpZmljYXRpb246VWJ1bnR1IEJvbGQiIGQ9Im0gNTQ3LjUxOTk2LDMzMS40MzA1MiAyMC4xMTUsLTMuMjQgMCwyMC45MjUgMjQuMTY1LDAgMCwxNi43NCAtMjQuMTY1LDAgMCwyNC45NzUgYyAtMmUtNSw0LjIzMDAyIDAuNzE5OTcsNy42MDUwMiAyLjE2LDEwLjEyNSAxLjUyOTk3LDIuNTIwMDIgNC41NDQ5NywzLjc4MDAxIDkuMDQ1LDMuNzggMi4xNTk5NiwxMGUtNiA0LjM2NDk2LC0wLjE3OTk5IDYuNjE1LC0wLjU0IDIuMzM5OTYsLTAuNDQ5OTggNC40NTQ5NSwtMS4wMzQ5OCA2LjM0NSwtMS43NTUgbCAyLjgzNSwxNS42NiBjIC0yLjQzMDA1LDAuOTkgLTUuMTMwMDUsMS44NDUgLTguMSwyLjU2NSAtMi45NzAwNCwwLjcyIC02LjYxNTA0LDEuMDggLTEwLjkzNSwxLjA4IC01LjQ5MDAzLDAgLTEwLjAzNTAyLC0wLjcyIC0xMy42MzUsLTIuMTYgLTMuNjAwMDIsLTEuNTMgLTYuNDgwMDEsLTMuNiAtOC42NCwtNi4yMSAtMi4xNjAwMSwtMi42OTk5OSAtMy42OTAwMSwtNS45Mzk5OSAtNC41OSwtOS43MiAtMC44MSwtMy43Nzk5OCAtMS4yMTUsLTcuOTY0OTggLTEuMjE1LC0xMi41NTUgbCAwLC01OS42NyIvPiYjeGE7ICAgICAgPHBhdGggaWQ9InBhdGgzMDAxIiBzdHlsZT0iZm9udC1zaXplOjEzNXB4O2ZvbnQtdmFyaWFudDpub3JtYWw7Zm9udC13ZWlnaHQ6Ym9sZDtmb250LXN0cmV0Y2g6bm9ybWFsO2ZpbGw6IzMyNmRlNTtmb250LWZhbWlseTpVYnVudHU7LWlua3NjYXBlLWZvbnQtc3BlY2lmaWNhdGlvbjpVYnVudHUgQm9sZCIgZD0ibSA2MDIuMDM2NzYsMzg1LjE2MDUyIGMgMCwtNi4yOTk5NiAwLjk0NDk5LC0xMS43ODk5NSAyLjgzNSwtMTYuNDcgMS45Nzk5OSwtNC43Njk5NCA0LjU0NDk5LC04LjcyOTk0IDcuNjk1LC0xMS44OCAzLjE0OTk4LC0zLjE0OTkzIDYuNzQ5OTgsLTUuNTM0OTMgMTAuOCwtNy4xNTUgNC4xMzk5NywtMS42MTk5MyA4LjM2OTk3LC0yLjQyOTkzIDEyLjY5LC0yLjQzIDEwLjA3OTk1LDdlLTUgMTguMDQ0OTQsMy4xMDUwNyAyMy44OTUsOS4zMTUgNS44NDk5Myw2LjEyMDA2IDguNzc0OTMsMTUuMTY1MDUgOC43NzUsMjcuMTM1IC03ZS01LDEuMTcwMDMgLTAuMDQ1MSwyLjQ3NTAzIC0wLjEzNSwzLjkxNSAtMC4wOTAxLDEuMzUwMDMgLTAuMTgwMDcsMi41NjUwMyAtMC4yNywzLjY0NSBsIC00NS42MywwIGMgMC40NDk5Nyw0LjE0MDAyIDIuMzg0OTcsNy40MjUwMiA1LjgwNSw5Ljg1NSAzLjQxOTk3LDIuNDMwMDIgOC4wMDk5NiwzLjY0NTAxIDEzLjc3LDMuNjQ1IDMuNjg5OTUsMTBlLTYgNy4yODk5NSwtMC4zMTQ5OSAxMC44LC0wLjk0NSAzLjU5OTk0LC0wLjcxOTk4IDYuNTI0OTQsLTEuNTc0OTggOC43NzUsLTIuNTY1IGwgMi43LDE2LjMzNSBjIC0xLjA4MDA3LDAuNTQgLTIuNTIwMDYsMS4wOCAtNC4zMiwxLjYyIC0xLjgwMDA2LDAuNTQgLTMuODI1MDYsMC45OSAtNi4wNzUsMS4zNSAtMi4xNjAwNSwwLjQ1IC00LjUwMDA1LDAuODEgLTcuMDIsMS4wOCAtMi41MjAwNSwwLjI3IC01LjA0MDA0LDAuNDA1IC03LjU2LDAuNDA1IC02LjM5MDA0LDAgLTExLjk3MDAzLC0wLjk0NSAtMTYuNzQsLTIuODM1IC00LjY4MDAyLC0xLjg5IC04LjU5NTAyLC00LjQ1NSAtMTEuNzQ1LC03LjY5NSAtMy4wNjAwMSwtMy4zMjk5OSAtNS4zNTUwMSwtNy4yNDQ5OSAtNi44ODUsLTExLjc0NSAtMS40NDAwMSwtNC40OTk5OCAtMi4xNiwtOS4zNTk5NyAtMi4xNiwtMTQuNTggbSA0Ny4yNSwtNy42OTUgYyAtMC4wOSwtMS43MDk5NiAtMC40MDUwNSwtMy4zNzQ5NiAtMC45NDUsLTQuOTk1IC0wLjQ1MDA1LC0xLjYxOTk1IC0xLjIxNTA1LC0zLjA1OTk1IC0yLjI5NSwtNC4zMiAtMC45OTAwNSwtMS4yNTk5NSAtMi4yOTUwNSwtMi4yOTQ5NSAtMy45MTUsLTMuMTA1IC0xLjUzMDA0LC0wLjgwOTk1IC0zLjQ2NTA0LC0xLjIxNDk0IC01LjgwNSwtMS4yMTUgLTIuMjUwMDQsNmUtNSAtNC4xODUwMywwLjQwNTA1IC01LjgwNSwxLjIxNSAtMS42MjAwMywwLjcyMDA1IC0yLjk3MDAzLDEuNzEwMDUgLTQuMDUsMi45NyAtMS4wODAwMywxLjI2MDA1IC0xLjkzNTAzLDIuNzQ1MDUgLTIuNTY1LDQuNDU1IC0wLjU0MDAzLDEuNjIwMDQgLTAuOTQ1MDMsMy4yODUwNCAtMS4yMTUsNC45OTUgbCAyNi41OTUsMCIvPiYjeGE7ICAgICAgPHBhdGggaWQ9InBhdGgzMDAzIiBzdHlsZT0iZm9udC1zaXplOjEzNXB4O2ZvbnQtdmFyaWFudDpub3JtYWw7Zm9udC13ZWlnaHQ6Ym9sZDtmb250LXN0cmV0Y2g6bm9ybWFsO2ZpbGw6IzMyNmRlNTtmb250LWZhbWlseTpVYnVudHU7LWlua3NjYXBlLWZvbnQtc3BlY2lmaWNhdGlvbjpVYnVudHUgQm9sZCIgZD0ibSA3MDQuNjM0NjUsNDA1LjY4MDUyIGMgMy42ODk5NywxMGUtNiA2LjI5OTk3LC0wLjM1OTk5IDcuODMsLTEuMDggMS41Mjk5NiwtMC43MTk5OCAyLjI5NDk2LC0yLjExNDk4IDIuMjk1LC00LjE4NSAtNGUtNSwtMS42MTk5OCAtMC45OTAwNCwtMy4wMTQ5OCAtMi45NywtNC4xODUgLTEuOTgwMDMsLTEuMjU5OTggLTQuOTk1MDMsLTIuNjU0OTcgLTkuMDQ1LC00LjE4NSAtMy4xNTAwMiwtMS4xNjk5NyAtNi4wMzAwMiwtMi4zODQ5NyAtOC42NCwtMy42NDUgLTIuNTIwMDEsLTEuMjU5OTcgLTQuNjgwMDEsLTIuNzQ0OTcgLTYuNDgsLTQuNDU1IC0xLjgwMDAxLC0xLjc5OTk2IC0zLjE5NTAxLC0zLjkxNDk2IC00LjE4NSwtNi4zNDUgLTAuOTkwMDEsLTIuNDI5OTYgLTEuNDg1MDEsLTUuMzU0OTUgLTEuNDg1LC04Ljc3NSAtMTBlLTYsLTYuNjU5OTQgMi40NzQ5OSwtMTEuOTI0OTQgNy40MjUsLTE1Ljc5NSA0Ljk0OTk4LC0zLjg2OTkzIDExLjc0NDk4LC01LjgwNDkzIDIwLjM4NSwtNS44MDUgNC4zMTk5Niw3ZS01IDguNDU5OTYsMC40MDUwNyAxMi40MiwxLjIxNSAzLjk1OTk1LDAuNzIwMDcgNy4xMDk5NSwxLjUzMDA3IDkuNDUsMi40MyBsIC0zLjUxLDE1LjY2IGMgLTIuMzQwMDUsLTAuODA5OTUgLTQuOTA1MDUsLTEuNTI5OTUgLTcuNjk1LC0yLjE2IC0yLjcwMDA0LC0wLjYyOTk0IC01Ljc2MDA0LC0wLjk0NDk0IC05LjE4LC0wLjk0NSAtNi4zMDAwMyw2ZS01IC05LjQ1MDAyLDEuNzU1MDUgLTkuNDUsNS4yNjUgLTJlLTUsMC44MTAwNSAwLjEzNDk3LDEuNTMwMDUgMC40MDUsMi4xNiAwLjI2OTk3LDAuNjMwMDUgMC44MDk5NywxLjI2MDA1IDEuNjIsMS44OSAwLjgwOTk3LDAuNTQwMDUgMS44ODk5NywxLjE3MDA1IDMuMjQsMS44OSAxLjQzOTk3LDAuNjMwMDQgMy4yMzk5NywxLjM1MDA0IDUuNCwyLjE2IDQuNDA5OTYsMS42MjAwNCA4LjA1NDk2LDMuMjQwMDQgMTAuOTM1LDQuODYgMi44Nzk5NSwxLjUzMDA0IDUuMTI5OTUsMy4yNDAwMyA2Ljc1LDUuMTMgMS43MDk5NSwxLjgwMDAzIDIuODc5OTQsMy44MjUwMyAzLjUxLDYuMDc1IDAuNzE5OTQsMi4yNTAwMiAxLjA3OTk0LDQuODYwMDIgMS4wOCw3LjgzIC02ZS01LDcuMDIwMDEgLTIuNjU1MDYsMTIuMzMwMDEgLTcuOTY1LDE1LjkzIC01LjIyMDA0LDMuNiAtMTIuNjQ1MDQsNS40IC0yMi4yNzUsNS40IC02LjMwMDAyLDAgLTExLjU2NTAyLC0wLjU0IC0xNS43OTUsLTEuNjIgLTQuMTQwMDEsLTEuMDggLTcuMDIsLTEuOTggLTguNjQsLTIuNyBsIDMuMzc1LC0xNi4zMzUgYyAzLjQxOTk5LDEuMzUwMDIgNi45Mjk5OSwyLjQzMDAyIDEwLjUzLDMuMjQgMy41OTk5OCwwLjcyMDAxIDcuMTU0OTgsMS4wODAwMSAxMC42NjUsMS4wOCIvPiYjeGE7ICAgIDwvZz4mI3hhOyAgPC9nPiYjeGE7PC9zdmc+;" vertex="1" parent="Qk6iisqbKT5Qhv3eNS_e-124">
          <mxGeometry x="40" y="5.139999999999986" width="154.78" height="23.03" as="geometry" />
        </mxCell>
        <mxCell id="Qk6iisqbKT5Qhv3eNS_e-126" value="" style="shape=image;verticalLabelPosition=bottom;labelBackgroundColor=default;verticalAlign=top;aspect=fixed;imageAspect=0;editableCssRules=.*;image=data:image/svg+xml,PHN2ZyB4bWxucz0iaHR0cDovL3d3dy53My5vcmcvMjAwMC9zdmciIHZlcnNpb249IjEuMSIgaWQ9InN2ZzIiIGhlaWdodD0iNzUzLjkxNzg0NjY3OTY4NzUiIHdpZHRoPSI3NzciIHZpZXdCb3g9Ii0wLjAwMDAwOTUzNjc0MzE2NDA2MjUgMC4wMDAwMTUyNTg3ODkwNjI1IDc3NyA3NTMuOTE3ODQ2Njc5Njg3NSI+JiN4YTsgIDx0aXRsZSBpZD0idGl0bGUxMjIxIj5LdWJlcm5ldGVzIGxvZ28gd2l0aCBubyBib3JkZXI8L3RpdGxlPiYjeGE7ICA8ZGVmcyBpZD0iZGVmczQiLz4mI3hhOyAgJiN4YTsgIDxtZXRhZGF0YSBpZD0ibWV0YWRhdGE3Ij4mI3hhOyAgICAmI3hhOyAgICAgICYjeGE7ICAgICAgICBpbWFnZS9zdmcreG1sJiN4YTsgICAgICAgICYjeGE7ICAgICAgICBLdWJlcm5ldGVzIGxvZ28gd2l0aCBubyBib3JkZXImI3hhOyAgICAgICAgImt1YmVjdGwiIGlzIHByb25vdW5jZWQgImt5b29iIGt1dHRlbCImI3hhOyAgICAgICYjeGE7ICAgICYjeGE7ICA8L21ldGFkYXRhPiYjeGE7ICA8ZyB0cmFuc2Zvcm09InRyYW5zbGF0ZSgtMjEuNDc1OTYyLC0xNzguNTM1KSIgaWQ9ImxheWVyMSI+JiN4YTsgICAgPGcgdHJhbnNmb3JtPSJtYXRyaXgoMS4wNTU2ODU1LDAsMCwxLjA1NTY4NTUsLTEuMTk1ODk5MiwtOS45NDE4MDcyKSIgaWQ9ImcxMzUwIj4mI3hhOyAgICAgIDxwYXRoIGlkPSJwYXRoMzA1NSIgZD0ibSAzODYuOTMxODgsMTc4LjU5Nzk0IGEgNDguOTI5NjY4LDQ4LjUyOTI0OCAwIDAgMCAtMTguNzUxMjksNC43NDUwOSBMIDExMi4zMDU2NywzMDUuNjAyNzQgQSA0OC45Mjk2NjgsNDguNTI5MjQ4IDAgMCAwIDg1LjgzMTMzMywzMzguNTIzODUgTCAyMi43MDUyNjYsNjEzLjE1MDA2IGEgNDguOTI5NjY4LDQ4LjUyOTI0OCAwIDAgMCA2LjY0MzEyNywzNy4yMDgwNSA0OC45Mjk2NjgsNDguNTI5MjQ4IDAgMCAwIDIuNzgxNjA1LDMuODYxNTMgTCAyMDkuMjM2NDIsODc0LjQyNDU2IGEgNDguOTI5NjY4LDQ4LjUyOTI0OCAwIDAgMCAzOC4yNTUyNSwxOC4yNjA0MiBsIDI4NC4wMTgyMSwtMC4wNjU0IGEgNDguOTI5NjY4LDQ4LjUyOTI0OCAwIDAgMCAzOC4yNTUyNSwtMTguMjI3NjkgTCA3NDYuODA2MSw2NTQuMTU0MTkgYSA0OC45Mjk2NjgsNDguNTI5MjQ4IDAgMCAwIDkuNDU3NDUsLTQxLjA2OTU4IEwgNjkzLjAzOTMxLDMzOC40NTg0IEEgNDguOTI5NjY4LDQ4LjUyOTI0OCAwIDAgMCA2NjYuNTY0OTgsMzA1LjUzNzI5IEwgNDEwLjY1NzM0LDE4My4zNDMwMyBhIDQ4LjkyOTY2OCw0OC41MjkyNDggMCAwIDAgLTIzLjcyNTQ2LC00Ljc0NTA5IHoiIHN0eWxlPSJmaWxsOiMzMjZjZTU7ZmlsbC1vcGFjaXR5OjE7c3Ryb2tlOm5vbmU7c3Ryb2tlLXdpZHRoOjA7c3Ryb2tlLW1pdGVybGltaXQ6NDtzdHJva2UtZGFzaGFycmF5Om5vbmU7c3Ryb2tlLW9wYWNpdHk6MSIvPiYjeGE7ICAgICAgPHBhdGggc3R5bGU9ImNvbG9yOiMwMDAwMDA7Zm9udC1zdHlsZTpub3JtYWw7Zm9udC12YXJpYW50Om5vcm1hbDtmb250LXdlaWdodDpub3JtYWw7Zm9udC1zdHJldGNoOm5vcm1hbDtmb250LXNpemU6bWVkaXVtO2xpbmUtaGVpZ2h0Om5vcm1hbDtmb250LWZhbWlseTpTYW5zOy1pbmtzY2FwZS1mb250LXNwZWNpZmljYXRpb246U2Fuczt0ZXh0LWluZGVudDowO3RleHQtYWxpZ246c3RhcnQ7dGV4dC1kZWNvcmF0aW9uOm5vbmU7dGV4dC1kZWNvcmF0aW9uLWxpbmU6bm9uZTtsZXR0ZXItc3BhY2luZzpub3JtYWw7d29yZC1zcGFjaW5nOm5vcm1hbDt0ZXh0LXRyYW5zZm9ybTpub25lO3dyaXRpbmctbW9kZTpsci10YjtkaXJlY3Rpb246bHRyO2Jhc2VsaW5lLXNoaWZ0OmJhc2VsaW5lO3RleHQtYW5jaG9yOnN0YXJ0O2Rpc3BsYXk6aW5saW5lO292ZXJmbG93OnZpc2libGU7dmlzaWJpbGl0eTp2aXNpYmxlO2ZpbGw6I2ZmZmZmZjtmaWxsLW9wYWNpdHk6MTtzdHJva2U6bm9uZTtzdHJva2Utd2lkdGg6MDtzdHJva2UtbWl0ZXJsaW1pdDo0O3N0cm9rZS1kYXNoYXJyYXk6bm9uZTtzdHJva2Utb3BhY2l0eToxO21hcmtlcjpub25lO2VuYWJsZS1iYWNrZ3JvdW5kOmFjY3VtdWxhdGUiIGQ9Im0gMzg5LjQ2NzI5LDI3Mi4wNTY4NSBjIC04LjQ1ODEzLDguNmUtNCAtMTUuMzE2MTksNy42MTkyOCAtMTUuMzE1MTksMTcuMDE2ODcgMTBlLTYsMC4xNDQyMyAwLjAyOTUsMC4yODIwNSAwLjAzMjcsMC40MjU0MiAtMC4wMTI1LDEuMjc2OTEgLTAuMDc0MSwyLjgxNTIzIC0wLjAzMjcsMy45MjY5NyAwLjIwMTcxLDUuNDIwMjcgMS4zODMyNCw5LjU2ODcxIDIuMDk0MzksMTQuNTYyNTIgMS4yODgzNCwxMC42ODgzNCAyLjM2Nzg4LDE5LjU0ODMyIDEuNzAxNjksMjcuNzgzMzMgLTAuNjQ3ODksMy4xMDUzNCAtMi45MzUxNiw1Ljk0NTM0IC00Ljk3NDE3LDcuOTE5MzkgbCAtMC4zNTk5Nyw2LjQ3OTUgYyAtOS4xOTEwMiwwLjc2MTQ5IC0xOC40NDM1MiwyLjE1NTkgLTI3LjY4NTE1LDQuMjU0MjIgLTM5Ljc2NjcyLDkuMDI5MDggLTc0LjAwNTE3LDI5LjUxMzEgLTEwMC4wNzIzMiw1Ny4xNzAxNiAtMS42OTE0NSwtMS4xNTM5MyAtNC42NTA2MiwtMy4yNzY4MSAtNS41MzA1NCwtMy45MjY5NyAtMi43MzQ0LDAuMzY5MjYgLTUuNDk3OTgsMS4yMTI5NSAtOS4wOTc0OCwtMC44ODM1NyAtNi44NTM3OCwtNC42MTM1NCAtMTMuMDk2MDYsLTEwLjk4MTgzIC0yMC42NDkzMywtMTguNjUzMTEgLTMuNDYwOTUsLTMuNjY5NTYgLTUuOTY3MjQsLTcuMTYzODYgLTEwLjA3OTIzLC0xMC43MDEgLTAuOTMzOCwtMC44MDMyNyAtMi4zNTg4OCwtMS44ODk3MSAtMy40MDMzNywtMi43MTYxNiAtMy4yMTQ3NiwtMi41NjMwNyAtNy4wMDY0NSwtMy44OTk3NiAtMTAuNjY4MjcsLTQuMDI1MTQgLTQuNzA4MDcsLTAuMTYxMjEgLTkuMjQwMzcsMS42Nzk1NCAtMTIuMjA2MzQsNS4zOTk1OCAtNS4yNzI4Myw2LjYxMzQyIC0zLjU4NDY2LDE2LjcyMTYzIDMuNzYzMzUsMjIuNTgwMDkgMC4wNzQ2LDAuMDU5NCAwLjE1Mzk2LDAuMTA1NTQgMC4yMjkwNywwLjE2MzYyIDEuMDA5NzMsMC44MTg1MSAyLjI0NjE5LDEuODY3MjggMy4xNzQzLDIuNTUyNTQgNC4zNjM1MiwzLjIyMTc0IDguMzQ5NDgsNC44NzA5NiAxMi42OTcyMSw3LjQyODUyIDkuMTU5NzksNS42NTY3MyAxNi43NTMzNywxMC4zNDcxNiAyMi43NzY0NCwxNi4wMDI0MSAyLjM1MjAxLDIuNTA3MTUgMi43NjMxLDYuOTI1IDMuMDc2MTIsOC44MzU2OCBsIDQuOTA4NzIsNC4zODUxMiBjIC0yNi4yNzc2NCwzOS41NDU4NCAtMzguNDM5MTUsODguMzkyOTQgLTMxLjI1MjEsMTM4LjE2Mzk1IGwgLTYuNDE0MDUsMS44NjUzMSBjIC0xLjY5MDQ4LDIuMTgyOTkgLTQuMDc5MjUsNS42MTc5MSAtNi41Nzc3Myw2LjY0MzEzIC03Ljg4MDI2LDIuNDgyMDYgLTE2Ljc0OTA1LDMuMzkzNTIgLTI3LjQ1NjA4LDQuNTE2MDEgLTUuMDI2ODQsMC40MTc5OSAtOS4zNjQxOCwwLjE2ODU1IC0xNC42OTM0MiwxLjE3ODA5IC0xLjE3MjkzLDAuMjIyMiAtMi44MDcyMiwwLjY0Nzk4IC00LjA5MDU5LDAuOTQ5MDIgLTAuMDQ0NiwwLjAwOSAtMC4wODYzLDAuMDIyNiAtMC4xMzA5LDAuMDMyNyAtMC4wNywwLjAxNjIgLTAuMTYxODUsMC4wNTAyIC0wLjIyOTA3LDAuMDY1NCAtOS4wMjY5NSwyLjE4MTA5IC0xNC44MjU4OCwxMC40NzgyMSAtMTIuOTU5MDEsMTguNjUzMTIgMS44NjczMSw4LjE3NjgyIDEwLjY4NDY1LDEzLjE0OTM1IDE5Ljc2NTc2LDExLjE5MTg3IDAuMDY1NiwtMC4wMTUgMC4xNjA3NCwtMC4wMTc1IDAuMjI5MDcsLTAuMDMyNyAwLjEwMjUyLC0wLjAyMzUgMC4xOTI3OCwtMC4wNzMyIDAuMjk0NTIsLTAuMDk4MSAxLjI2NTksLTAuMjc3ODggMi44NTIzMiwtMC41ODcwNSAzLjk1OTcsLTAuODgzNTcgNS4yMzk0NiwtMS40MDI4NSA5LjAzNDA3LC0zLjQ2NDA3IDEzLjc0NDQsLTUuMjY4NjggMTAuMTMzNjIsLTMuNjM0NTcgMTguNTI2NjUsLTYuNjcwODUgMjYuNzAzNDEsLTcuODUzOTUgMy40MTUwOCwtMC4yNjc0NyA3LjAxMzE2LDIuMTA3MTIgOC44MDI5NiwzLjEwODg2IGwgNi42NzU4NSwtMS4xNDUzNyBjIDE1LjM2MjUsNDcuNjI5MjYgNDcuNTU3MzYsODYuMTI2MzYgODguMzI0MTMsMTEwLjI4MjQ1IGwgLTIuNzgxNiw2LjY3NTg1IGMgMS4wMDI2LDIuNTkyMjQgMi4xMDg0Myw2LjA5OTU4IDEuMzYxNTgsOC42NTk1NyAtMi45NzI2NSw3LjcwODU5IC04LjA2NDQsMTUuODQ1MDQgLTEzLjg2MjQ0LDI0LjkxNjA0IC0yLjgwNzM3LDQuMTkwNzggLTUuNjgwNTMsNy40NDMwMyAtOC4yMTM5MiwxMi4yMzkwNiAtMC42MDYyMiwxLjE0NzYxIC0xLjM3ODI5LDIuOTEwNDggLTEuOTYzNDgsNC4xMjMzMiAtMy45MzYyMyw4LjQyMTkgLTEuMDQ4OTEsMTguMTIxODcgNi41MTIyMywyMS43NjE5NyA3LjYwODYzLDMuNjYyOTUgMTcuMDUyOTcsLTAuMjAwMzcgMjEuMTQwMTksLTguNjM5MzQgMC4wMDYsLTAuMDExOSAwLjAyNjksLTAuMDIwNyAwLjAzMjcsLTAuMDMyNyAwLjAwNCwtMC4wMDkgLTAuMDA0LC0wLjAyMzYgMCwtMC4wMzI3IDAuNTgyMTcsLTEuMTk2NDcgMS40MDY5NCwtMi43NjkxNiAxLjg5ODA0LC0zLjg5NDI0IDIuMTY5OTIsLTQuOTcxMDUgMi44OTE5NCwtOS4yMzEwNyA0LjQxNzg0LC0xNC4wMzg5MyA0LjA1MjI0LC0xMC4xNzg4NSA2LjI3ODYyLC0yMC44NTkwNSAxMS44NTY5MiwtMjcuNTE0MDQgMS41Mjc1MiwtMS44MjIzNiA0LjAxNzg4LC0yLjUyMzIxIDYuNTk5ODUsLTMuMjE0NTEgbCAzLjQ2ODgyLC02LjI4MzE1IGMgMzUuNTM5ODcsMTMuNjQxNTYgNzUuMzIxMDYsMTcuMzAyMTkgMTE1LjA2MDI3LDguMjc5MzYgOS4wNjU1MSwtMi4wNTgzMyAxNy44MTczOSwtNC43MjIyNiAyNi4yNzc5OCwtNy45MTkzOSAwLjk3NDkyLDEuNzI5MjYgMi43ODY3Miw1LjA1MzQ0IDMuMjcyNDgsNS44OTA0NiAyLjYyMzg0LDAuODUzNjUgNS40ODc3NSwxLjI5NDQ3IDcuODIxMjIsNC43NDUwOSA0LjE3MzQ3LDcuMTMwMzEgNy4wMjc2LDE1LjU2NTYzIDEwLjUwNDY1LDI1Ljc1NDM5IDEuNTI2MTUsNC44MDc3NyAyLjI4MDM4LDkuMDY3OTggNC40NTA1NywxNC4wMzg5MiAwLjQ5NDYzLDEuMTMzMDEgMS4zMTUyNywyLjcyNzc5IDEuODk4MDMsMy45MjY5NyA0LjA3ODYzLDguNDY2MzggMTMuNTUyODksMTIuMzQyOTEgMjEuMTcyOTIsOC42NzIwNiA3LjU2MDIxLC0zLjY0MjAzIDEwLjQ1MDcxLC0xMy4zNDExMiA2LjUxMjIzLC0yMS43NjE5NiAtMC41ODUyNiwtMS4yMTI4IC0xLjM4OTk0LC0yLjk3NTc1IC0xLjk5NjIxLC00LjEyMzMyIC0yLjUzMzY0LC00Ljc5NTg5IC01LjQwNjM0LC04LjAxNTcyIC04LjIxMzkyLC0xMi4yMDYzNCAtNS43OTg1MiwtOS4wNzA3IC0xMC42MDc3MiwtMTYuNjA2MDYgLTEzLjU4MDc3LC0yNC4zMTQ1IC0xLjI0MzEzLC0zLjk3NTc0IDAuMjA5NzMsLTYuNDQ4MzQgMS4xNzgwOSwtOS4wMzIwMyAtMC41Nzk5MSwtMC42NjQ3MyAtMS44MjA4NywtNC40MTkyNSAtMi41NTI1MywtNi4xODQ5OCA0Mi4zNjY2OCwtMjUuMDE1NSA3My42MTYxMiwtNjQuOTQ4MjMgODguMjkxNDEsLTExMS4wNjc4NSAxLjk4MTcsMC4zMTE0NiA1LjQyNjA3LDAuOTIwODYgNi41NDQ5NSwxLjE0NTM3IDIuMzAzMzQsLTEuNTE5MTYgNC40MjExOCwtMy41MDEzMSA4LjU3Mzg5LC0zLjE3NDMgOC4xNzY4MSwxLjE4MjY2IDE2LjU2OTYsNC4yMTk5IDI2LjcwMzQsNy44NTM5NCA0LjcxMDQzLDEuODA0MzggOC41MDQ4OCwzLjg5ODgzIDEzLjc0NDQsNS4zMDE0MSAxLjEwNzQsMC4yOTY0NSAyLjY5Mzc4LDAuNTczMDMgMy45NTk3LDAuODUwODUgMC4xMDE3OSwwLjAyNDkgMC4xOTE5NSwwLjA3NDggMC4yOTQ1MiwwLjA5ODEgMC4wNjg0LDAuMDE1MyAwLjE2MzUyLDAuMDE3NyAwLjIyOTA4LDAuMDMyNyA5LjA4MTYzLDEuOTU1MDYgMTcuOTAwNTQsLTMuMDE0NTYgMTkuNzY1NzUsLTExLjE5MTg3IDEuODY0NzgsLTguMTc1MzkgLTMuOTMxNDcsLTE2LjQ3NDQ0IC0xMi45NTksLTE4LjY1MzExIC0xLjMxMzExLC0wLjI5ODU5IC0zLjE3NTM1LC0wLjgwNTY5IC00LjQ1MDU3LC0xLjA0NzIgLTUuMzI5MjksLTEuMDA5MjYgLTkuNjY2NTUsLTAuNzYwMzYgLTE0LjY5MzQyLC0xLjE3ODA5IC0xMC43MDcwOCwtMS4xMjE5NCAtMTkuNTc1NjksLTIuMDM0MzcgLTI3LjQ1NjA3LC00LjUxNjAxIC0zLjIxMzA2LC0xLjI0NjQ2IC01LjQ5ODg0LC01LjA2OTcxIC02LjYxMDQ2LC02LjY0MzEzIGwgLTYuMTg0OTgsLTEuNzk5ODYgYyAzLjIwNjc4LC0yMy4xOTk5NCAyLjM0MjEsLTQ3LjM0NDk3IC0zLjIwNzAzLC03MS41MDM2MSAtNS42MDA3OSwtMjQuMzgzNTcgLTE1LjQ5ODgzLC00Ni42ODQ3MiAtMjguNjk5NjEsLTY2LjMzMzA5IDEuNTg2NTUsLTEuNDQyMjkgNC41ODI3MSwtNC4wOTU0OCA1LjQzMjMxLC00Ljg3NTk5IDAuMjQ4MzUsLTIuNzQ4MDEgMC4wMzUsLTUuNjI5MjIgMi44Nzk3OCwtOC42NzIwNiA2LjAyMjc2LC01LjY1NTU3IDEzLjYxNjk0LC0xMC4zNDUyIDIyLjc3NjQzLC0xNi4wMDI0MSA0LjM0NzYsLTIuNTU3NzkgOC4zNjY1OSwtNC4yMDY1NSAxMi43Mjk5MywtNy40Mjg1MiAwLjk4NjcyLC0wLjcyODYgMi4zMzQwOSwtMS44ODI0MyAzLjM3MDY1LC0yLjcxNjE2IDcuMzQ2NDYsLTUuODYwNDMgOS4wMzc4OCwtMTUuOTY4MDMgMy43NjMzNSwtMjIuNTgwMDkgLTUuMjc0NTMsLTYuNjEyMDUgLTE1LjQ5NTQzLC03LjIzNDg3IC0yMi44NDE4OCwtMS4zNzQ0NCAtMS4wNDU2OSwwLjgyODE4IC0yLjQ2NDYsMS45MDg1MyAtMy40MDMzOCwyLjcxNjE2IC00LjExMTgsMy41MzczNyAtNi42NTExOSw3LjAzMTI2IC0xMC4xMTE5NSwxMC43MDEgLTcuNTUyODYsNy42NzE2OCAtMTMuNzk1NzgsMTQuMDcxOTMgLTIwLjY0OTMyLDE4LjY4NTg0IC0yLjk2OTg1LDEuNzI4OTcgLTcuMzE5ODQsMS4xMzA3MyAtOS4yOTM4OSwxLjAxNDQ2IGwgLTUuODI1MDEsNC4xNTYwNSBDIDUwMC4yNzMxMSwzNzYuODYzMTggNDU1LjA0OTIsMzU0LjU5NDc1IDQwNi4zNTMzLDM1MC4yNjg5NyBjIC0wLjEzNjIsLTIuMDQwNjkgLTAuMzE0NjMsLTUuNzI5MzcgLTAuMzU5OTcsLTYuODM5NDggLTEuOTkzNTUsLTEuOTA3NjIgLTQuNDAxNzksLTMuNTM2MjIgLTUuMDA2ODksLTcuNjU3NTkgLTAuNjY2MTksLTguMjM1MDEgMC40NDYwNywtMTcuMDk0OTkgMS43MzQ0MSwtMjcuNzgzMzMgMC43MTExNSwtNC45OTM4MSAxLjg5MjY4LC05LjE0MjI1IDIuMDk0MzksLTE0LjU2MjUyIDAuMDQ1OSwtMS4yMzIxNSAtMC4wMjc3LC0zLjAyMDExIC0wLjAzMjcsLTQuMzUyMzkgLTEwZS00LC05LjM5NzU5IC02Ljg1NzA1LC0xNy4wMTc3MiAtMTUuMzE1MTgsLTE3LjAxNjg3IHogbSAtMTkuMTc2NzEsMTE4Ljc5MDg4IC00LjU0ODc0LDgwLjMzOTI5IC0wLjMyNzI1LDAuMTYzNjMgYyAtMC4zMDUwOSw3LjE4NzI1IC02LjIyMDI4LDEyLjkyNjI4IC0xMy40ODI2LDEyLjkyNjI4IC0yLjk3NDg3LDAgLTUuNzIwNzUsLTAuOTU1MzQgLTcuOTUyMTIsLTIuNTg1MjYgbCAtMC4xMzA5LDAuMDY1NCAtNjUuODc0OTQsLTQ2LjY5ODIzIGMgMjAuMjQ2MDUsLTE5LjkwODM0IDQ2LjE0MjM0LC0zNC42MjA1OSA3NS45ODY5LC00MS4zOTY4MyA1LjQ1MTY3LC0xLjIzNzgxIDEwLjkwMDkxLC0yLjE1NjI3IDE2LjMyOTY1LC0yLjgxNDMzIHogbSAzOC4zODYxNSwwIGMgMzQuODQzNzIsNC4yODU0NSA2Ny4wNjc0NSwyMC4wNjI5NyA5MS43NjAyMyw0NC4yNDM4OCBsIC02NS40NDk1Miw0Ni40MDM3MSAtMC4yMjkwOCwtMC4wOTgxIGMgLTUuODA5MjQsNC4yNDI5IC0xMy45OTQwOCwzLjE5MDE2IC0xOC41MjIyMSwtMi40ODcwOCAtMS44NTQ5MSwtMi4zMjU3NyAtMi44MjgxNywtNS4wNjA0NCAtMi45NDUyMywtNy44MjEyMiBsIC0wLjA2NTUsLTAuMDMyNyB6IG0gLTE1NC41OTE3OCw3NC4yMTk3NiA2MC4xNDgxMSw1My43OTk1MSAtMC4wNjU0LDAuMzI3MjUgYyA1LjQyOTA0LDQuNzE5NjcgNi4yMjk2MywxMi45MDk3MyAxLjcwMTY5LDE4LjU4NzY3IC0xLjg1NDc4LDIuMzI1ODYgLTQuMzM3NTUsMy44ODU4NSAtNy4wMDMxLDQuNjE0MTkgbCAtMC4wNjU0LDAuMjYxOCAtNzcuMDk5NTQsMjIuMjUyODMgYyAtMy45MjQxMiwtMzUuODgyMjIgNC41MzI4MywtNzAuNzYyNiAyMi4zODM3NCwtOTkuODQzMjUgeiBtIDI3MC4zMzkyNiwwLjAzMjcgYyA4LjkzNjg1LDE0LjQ4NTM1IDE1LjcwNDI4LDMwLjY2NDAzIDE5LjczMzA0LDQ4LjIwMzU3IDMuOTgwNDQsMTcuMzI5MjMgNC45NzkzOSwzNC42Mjc0OCAzLjMzNzkyLDUxLjM0NTE1IGwgLTc3LjQ5MjI0LC0yMi4zMTgyOCAtMC4wNjU0LC0wLjMyNzI1IGMgLTYuOTM5MjIsLTEuODk2NTEgLTExLjIwMzgzLC04Ljk1NTE5IC05LjU4ODM1LC0xNi4wMzUxNCAwLjY2MTg2LC0yLjkwMDMyIDIuMjAxNDMsLTUuMzUzOTEgNC4yODY5NCwtNy4xNjY3MiBsIC0wLjAzMjcsLTAuMTYzNjIgNTkuODIwODcsLTUzLjUzNzcxIHogTSAzNzcuMTMwMDYsNTIzLjAyMyBoIDI0LjY0MTc0IGwgMTUuMzE1MTksMTkuMTQzOTggLTUuNDk3NzYsMjMuODg5MDggLTIyLjEyMTk0LDEwLjYzNTU1IC0yMi4xODczOSwtMTAuNjY4MjggLTUuNDk3NzYsLTIzLjg4OTA3IHogbSA3OC45OTc1Nyw2NS41MTQ5NyBjIDEuMDQ3MTcsLTAuMDUyOSAyLjA4OTc2LDAuMDQxNSAzLjEwODg2LDAuMjI5MDcgbCAwLjEzMDksLTAuMTYzNjIgNzkuNzUwMjQsMTMuNDgyNiBjIC0xMS42NzE0OCwzMi43OTA4NCAtMzQuMDA1MjgsNjEuMTk4MTEgLTYzLjg0NjAxLDgwLjIwODM5IGwgLTMwLjk1NzYyLC03NC43NzYwOCAwLjA5ODEsLTAuMTMwOSBjIC0yLjg0Mzc3LC02LjYwNzc3IDAuMDAyLC0xNC4zNTY1NCA2LjU0NDk1LC0xNy41MDc3NCAxLjY3NTE0LC0wLjgwNjc3IDMuNDI1MjUsLTEuMjUzNSA1LjE3MDUxLC0xLjM0MTcyIHogbSAtMTMzLjk0MjQ1LDAuMzI3MjUgYyA2LjA4NjAxLDAuMDg1MyAxMS41NDQ5LDQuMzA5NDYgMTIuOTU5MDEsMTAuNTA0NjUgMC42NjIwMiwyLjkwMDI4IDAuMzM5ODEsNS43NzM5NSAtMC43NTI2Nyw4LjMxMjA5IGwgMC4yMjkwNywwLjI5NDUyIC0zMC42MzAzOCw3NC4wMjM0MSBDIDI3NS4zNTI0OCw2NjMuNjIzMTMgMjUyLjU0MjQyLDYzNi4xMDc3IDI0MC4zNDA1NSw2MDIuMzQ3ODcgbCA3OS4wNjMwMywtMTMuNDE3MTUgMC4xMzA5LDAuMTYzNjIgYyAwLjg4NDM2LC0wLjE2Mjc0IDEuNzgxMjcsLTAuMjQxMjcgMi42NTA3LC0wLjIyOTA3IHogbSA2Ni43OTEyNCwzMi40MzAyOSBjIDIuMTE5OTksLTAuMDc3OSA0LjI3MTEzLDAuMzU3MDcgNi4zMTU4OCwxLjM0MTcyIDIuNjgwMywxLjI5MDY5IDQuNzUwODMsMy4zMjI5NCA2LjA1NDA4LDUuNzU5NTUgaCAwLjI5NDUyIGwgMzguOTc1Miw3MC40MjM2OSBjIC01LjA1ODI1LDEuNjk1NjUgLTEwLjI1ODM5LDMuMTQ0OCAtMTUuNTc2OTksNC4zNTI0IC0yOS44MDc4NCw2Ljc2NzkgLTU5LjUyMDk3LDQuNzE3MjUgLTg2LjQyNjEsLTQuNDUwNTcgbCAzOC44NzcwMiwtNzAuMjkyNzkgaCAwLjA2NTQgYyAyLjMzMjgsLTQuMzYwOTQgNi43NTY5OCwtNi45NjI2NSAxMS40MjA5NCwtNy4xMzQgeiIgaWQ9InBhdGgzMDU5Ii8+JiN4YTsgICAgPC9nPiYjeGE7ICA8L2c+JiN4YTs8L3N2Zz4=;" vertex="1" parent="Qk6iisqbKT5Qhv3eNS_e-124">
          <mxGeometry width="34.34" height="33.32" as="geometry" />
        </mxCell>
      </root>
    </mxGraphModel>
  </diagram>
</mxfile>
